<svg xmlns="http://www.w3.org/2000/svg" xmlns:xlink="http://www.w3.org/1999/xlink" width="2000" zoomAndPan="magnify" viewBox="0 0 1500 1499.999933" height="2000" preserveAspectRatio="xMidYMid meet" version="1.0"><defs><filter x="0%" y="0%" width="100%" height="100%" id="8e4d6d62af"><feColorMatrix values="0 0 0 0 1 0 0 0 0 1 0 0 0 0 1 0 0 0 1 0" color-interpolation-filters="sRGB"/></filter><g/><clipPath id="bcf7a770c0"><path d="M 0 0 L 1500 0 L 1500 1480.390625 L 0 1480.390625 Z M 0 0 " clip-rule="nonzero"/></clipPath><clipPath id="462e14d44d"><path d="M 0 0 L 1500 0 L 1500 1480.390625 L 0 1480.390625 Z M 0 0 " clip-rule="nonzero"/></clipPath><clipPath id="8edf73497f"><path d="M 0 0 L 1500 0 L 1500 1480.390625 L 0 1480.390625 Z M 0 0 " clip-rule="nonzero"/></clipPath><linearGradient x1="-45.316562" gradientTransform="matrix(0.749959, 0, 0, 0.750066, 33.985577, 483.62965)" y1="308.5" x2="1954.79378" gradientUnits="userSpaceOnUse" y2="308.5" id="d6a893180f"><stop stop-opacity="1" stop-color="rgb(0%, 0%, 0%)" offset="0"/><stop stop-opacity="1" stop-color="rgb(0%, 0%, 0%)" offset="0.015625"/><stop stop-opacity="1" stop-color="rgb(0.0320435%, 0.0228882%, 0.00305176%)" offset="0.0234375"/><stop stop-opacity="1" stop-color="rgb(0.384521%, 0.27771%, 0.0411987%)" offset="0.0273437"/><stop stop-opacity="1" stop-color="rgb(0.706482%, 0.511169%, 0.0762939%)" offset="0.03125"/><stop stop-opacity="1" stop-color="rgb(1.026917%, 0.744629%, 0.111389%)" offset="0.0351562"/><stop stop-opacity="1" stop-color="rgb(1.348877%, 0.978088%, 0.14801%)" offset="0.0390625"/><stop stop-opacity="1" stop-color="rgb(1.669312%, 1.210022%, 0.183105%)" offset="0.0429687"/><stop stop-opacity="1" stop-color="rgb(1.991272%, 1.443481%, 0.218201%)" offset="0.046875"/><stop stop-opacity="1" stop-color="rgb(2.311707%, 1.675415%, 0.253296%)" offset="0.0507812"/><stop stop-opacity="1" stop-color="rgb(2.633667%, 1.908875%, 0.288391%)" offset="0.0546875"/><stop stop-opacity="1" stop-color="rgb(2.954102%, 2.140808%, 0.323486%)" offset="0.0585937"/><stop stop-opacity="1" stop-color="rgb(3.276062%, 2.374268%, 0.360107%)" offset="0.0625"/><stop stop-opacity="1" stop-color="rgb(3.596497%, 2.607727%, 0.395203%)" offset="0.0664062"/><stop stop-opacity="1" stop-color="rgb(3.918457%, 2.841187%, 0.430298%)" offset="0.0703125"/><stop stop-opacity="1" stop-color="rgb(4.238892%, 3.07312%, 0.465393%)" offset="0.0742187"/><stop stop-opacity="1" stop-color="rgb(4.560852%, 3.30658%, 0.500488%)" offset="0.078125"/><stop stop-opacity="1" stop-color="rgb(4.881287%, 3.538513%, 0.535583%)" offset="0.0820312"/><stop stop-opacity="1" stop-color="rgb(5.203247%, 3.771973%, 0.572205%)" offset="0.0859375"/><stop stop-opacity="1" stop-color="rgb(5.523682%, 4.005432%, 0.6073%)" offset="0.0898438"/><stop stop-opacity="1" stop-color="rgb(5.845642%, 4.238892%, 0.642395%)" offset="0.09375"/><stop stop-opacity="1" stop-color="rgb(6.166077%, 4.470825%, 0.67749%)" offset="0.0976562"/><stop stop-opacity="1" stop-color="rgb(6.488037%, 4.704285%, 0.712585%)" offset="0.101562"/><stop stop-opacity="1" stop-color="rgb(6.809998%, 4.936218%, 0.747681%)" offset="0.105469"/><stop stop-opacity="1" stop-color="rgb(7.131958%, 5.169678%, 0.784302%)" offset="0.109375"/><stop stop-opacity="1" stop-color="rgb(7.452393%, 5.401611%, 0.819397%)" offset="0.113281"/><stop stop-opacity="1" stop-color="rgb(7.774353%, 5.635071%, 0.854492%)" offset="0.117187"/><stop stop-opacity="1" stop-color="rgb(8.094788%, 5.86853%, 0.889587%)" offset="0.121094"/><stop stop-opacity="1" stop-color="rgb(8.416748%, 6.10199%, 0.924683%)" offset="0.125"/><stop stop-opacity="1" stop-color="rgb(8.737183%, 6.333923%, 0.959778%)" offset="0.128906"/><stop stop-opacity="1" stop-color="rgb(9.059143%, 6.567383%, 0.996399%)" offset="0.132812"/><stop stop-opacity="1" stop-color="rgb(9.379578%, 6.799316%, 1.031494%)" offset="0.136719"/><stop stop-opacity="1" stop-color="rgb(9.701538%, 7.032776%, 1.066589%)" offset="0.140625"/><stop stop-opacity="1" stop-color="rgb(10.021973%, 7.266235%, 1.101685%)" offset="0.144531"/><stop stop-opacity="1" stop-color="rgb(10.343933%, 7.499695%, 1.13678%)" offset="0.148437"/><stop stop-opacity="1" stop-color="rgb(10.664368%, 7.731628%, 1.171875%)" offset="0.152344"/><stop stop-opacity="1" stop-color="rgb(10.986328%, 7.965088%, 1.208496%)" offset="0.15625"/><stop stop-opacity="1" stop-color="rgb(11.306763%, 8.197021%, 1.243591%)" offset="0.160156"/><stop stop-opacity="1" stop-color="rgb(11.628723%, 8.430481%, 1.278687%)" offset="0.164062"/><stop stop-opacity="1" stop-color="rgb(11.949158%, 8.662415%, 1.313782%)" offset="0.167969"/><stop stop-opacity="1" stop-color="rgb(12.271118%, 8.895874%, 1.348877%)" offset="0.171875"/><stop stop-opacity="1" stop-color="rgb(12.591553%, 9.129333%, 1.383972%)" offset="0.175781"/><stop stop-opacity="1" stop-color="rgb(12.913513%, 9.362793%, 1.420593%)" offset="0.179687"/><stop stop-opacity="1" stop-color="rgb(13.235474%, 9.594727%, 1.455688%)" offset="0.183594"/><stop stop-opacity="1" stop-color="rgb(13.557434%, 9.828186%, 1.490784%)" offset="0.1875"/><stop stop-opacity="1" stop-color="rgb(13.877869%, 10.06012%, 1.525879%)" offset="0.191406"/><stop stop-opacity="1" stop-color="rgb(14.199829%, 10.293579%, 1.560974%)" offset="0.195312"/><stop stop-opacity="1" stop-color="rgb(14.520264%, 10.525513%, 1.596069%)" offset="0.199219"/><stop stop-opacity="1" stop-color="rgb(14.842224%, 10.758972%, 1.63269%)" offset="0.203125"/><stop stop-opacity="1" stop-color="rgb(15.162659%, 10.992432%, 1.667786%)" offset="0.207031"/><stop stop-opacity="1" stop-color="rgb(15.484619%, 11.225891%, 1.702881%)" offset="0.210937"/><stop stop-opacity="1" stop-color="rgb(15.805054%, 11.457825%, 1.737976%)" offset="0.214844"/><stop stop-opacity="1" stop-color="rgb(16.127014%, 11.691284%, 1.773071%)" offset="0.21875"/><stop stop-opacity="1" stop-color="rgb(16.447449%, 11.923218%, 1.808167%)" offset="0.222656"/><stop stop-opacity="1" stop-color="rgb(16.769409%, 12.156677%, 1.844788%)" offset="0.226562"/><stop stop-opacity="1" stop-color="rgb(17.089844%, 12.390137%, 1.879883%)" offset="0.230469"/><stop stop-opacity="1" stop-color="rgb(17.411804%, 12.623596%, 1.914978%)" offset="0.234375"/><stop stop-opacity="1" stop-color="rgb(17.732239%, 12.85553%, 1.950073%)" offset="0.238281"/><stop stop-opacity="1" stop-color="rgb(18.054199%, 13.088989%, 1.985168%)" offset="0.242187"/><stop stop-opacity="1" stop-color="rgb(18.374634%, 13.320923%, 2.020264%)" offset="0.246094"/><stop stop-opacity="1" stop-color="rgb(18.696594%, 13.554382%, 2.056885%)" offset="0.25"/><stop stop-opacity="1" stop-color="rgb(19.017029%, 13.786316%, 2.09198%)" offset="0.253906"/><stop stop-opacity="1" stop-color="rgb(19.338989%, 14.019775%, 2.127075%)" offset="0.257812"/><stop stop-opacity="1" stop-color="rgb(19.659424%, 14.253235%, 2.16217%)" offset="0.261719"/><stop stop-opacity="1" stop-color="rgb(19.981384%, 14.486694%, 2.198792%)" offset="0.265625"/><stop stop-opacity="1" stop-color="rgb(20.303345%, 14.718628%, 2.233887%)" offset="0.269531"/><stop stop-opacity="1" stop-color="rgb(20.625305%, 14.952087%, 2.268982%)" offset="0.273438"/><stop stop-opacity="1" stop-color="rgb(20.94574%, 15.184021%, 2.304077%)" offset="0.277344"/><stop stop-opacity="1" stop-color="rgb(21.2677%, 15.41748%, 2.339172%)" offset="0.28125"/><stop stop-opacity="1" stop-color="rgb(21.588135%, 15.65094%, 2.374268%)" offset="0.285156"/><stop stop-opacity="1" stop-color="rgb(21.910095%, 15.884399%, 2.410889%)" offset="0.289062"/><stop stop-opacity="1" stop-color="rgb(22.23053%, 16.116333%, 2.445984%)" offset="0.292969"/><stop stop-opacity="1" stop-color="rgb(22.55249%, 16.349792%, 2.481079%)" offset="0.296875"/><stop stop-opacity="1" stop-color="rgb(22.872925%, 16.581726%, 2.516174%)" offset="0.300781"/><stop stop-opacity="1" stop-color="rgb(23.194885%, 16.815186%, 2.55127%)" offset="0.304687"/><stop stop-opacity="1" stop-color="rgb(23.51532%, 17.047119%, 2.586365%)" offset="0.308594"/><stop stop-opacity="1" stop-color="rgb(23.83728%, 17.280579%, 2.622986%)" offset="0.3125"/><stop stop-opacity="1" stop-color="rgb(24.157715%, 17.514038%, 2.658081%)" offset="0.316406"/><stop stop-opacity="1" stop-color="rgb(24.479675%, 17.747498%, 2.693176%)" offset="0.320312"/><stop stop-opacity="1" stop-color="rgb(24.80011%, 17.979431%, 2.728271%)" offset="0.324219"/><stop stop-opacity="1" stop-color="rgb(25.12207%, 18.212891%, 2.763367%)" offset="0.328125"/><stop stop-opacity="1" stop-color="rgb(25.442505%, 18.444824%, 2.798462%)" offset="0.332031"/><stop stop-opacity="1" stop-color="rgb(25.764465%, 18.678284%, 2.835083%)" offset="0.335938"/><stop stop-opacity="1" stop-color="rgb(26.0849%, 18.911743%, 2.870178%)" offset="0.339844"/><stop stop-opacity="1" stop-color="rgb(26.40686%, 19.145203%, 2.905273%)" offset="0.34375"/><stop stop-opacity="1" stop-color="rgb(26.727295%, 19.377136%, 2.940369%)" offset="0.347656"/><stop stop-opacity="1" stop-color="rgb(27.049255%, 19.610596%, 2.975464%)" offset="0.351562"/><stop stop-opacity="1" stop-color="rgb(27.371216%, 19.842529%, 3.010559%)" offset="0.355469"/><stop stop-opacity="1" stop-color="rgb(27.693176%, 20.075989%, 3.04718%)" offset="0.359375"/><stop stop-opacity="1" stop-color="rgb(28.013611%, 20.307922%, 3.082275%)" offset="0.363281"/><stop stop-opacity="1" stop-color="rgb(28.335571%, 20.541382%, 3.117371%)" offset="0.367187"/><stop stop-opacity="1" stop-color="rgb(28.656006%, 20.774841%, 3.152466%)" offset="0.371094"/><stop stop-opacity="1" stop-color="rgb(28.977966%, 21.008301%, 3.187561%)" offset="0.375"/><stop stop-opacity="1" stop-color="rgb(29.298401%, 21.240234%, 3.222656%)" offset="0.378906"/><stop stop-opacity="1" stop-color="rgb(29.620361%, 21.473694%, 3.259277%)" offset="0.382812"/><stop stop-opacity="1" stop-color="rgb(29.940796%, 21.705627%, 3.294373%)" offset="0.386719"/><stop stop-opacity="1" stop-color="rgb(30.262756%, 21.939087%, 3.329468%)" offset="0.390625"/><stop stop-opacity="1" stop-color="rgb(30.583191%, 22.172546%, 3.364563%)" offset="0.394531"/><stop stop-opacity="1" stop-color="rgb(30.905151%, 22.406006%, 3.399658%)" offset="0.398437"/><stop stop-opacity="1" stop-color="rgb(31.225586%, 22.637939%, 3.434753%)" offset="0.402344"/><stop stop-opacity="1" stop-color="rgb(31.547546%, 22.871399%, 3.471375%)" offset="0.40625"/><stop stop-opacity="1" stop-color="rgb(31.867981%, 23.103333%, 3.50647%)" offset="0.410156"/><stop stop-opacity="1" stop-color="rgb(32.189941%, 23.336792%, 3.541565%)" offset="0.414062"/><stop stop-opacity="1" stop-color="rgb(32.510376%, 23.568726%, 3.57666%)" offset="0.417969"/><stop stop-opacity="1" stop-color="rgb(32.832336%, 23.802185%, 3.611755%)" offset="0.421875"/><stop stop-opacity="1" stop-color="rgb(33.152771%, 24.035645%, 3.646851%)" offset="0.425781"/><stop stop-opacity="1" stop-color="rgb(33.474731%, 24.269104%, 3.683472%)" offset="0.429688"/><stop stop-opacity="1" stop-color="rgb(33.795166%, 24.501038%, 3.718567%)" offset="0.433594"/><stop stop-opacity="1" stop-color="rgb(34.117126%, 24.734497%, 3.753662%)" offset="0.4375"/><stop stop-opacity="1" stop-color="rgb(34.439087%, 24.966431%, 3.788757%)" offset="0.441406"/><stop stop-opacity="1" stop-color="rgb(34.761047%, 25.19989%, 3.823853%)" offset="0.445312"/><stop stop-opacity="1" stop-color="rgb(35.081482%, 25.43335%, 3.858948%)" offset="0.449219"/><stop stop-opacity="1" stop-color="rgb(35.403442%, 25.666809%, 3.895569%)" offset="0.453125"/><stop stop-opacity="1" stop-color="rgb(35.723877%, 25.898743%, 3.930664%)" offset="0.457031"/><stop stop-opacity="1" stop-color="rgb(36.045837%, 26.132202%, 3.965759%)" offset="0.460937"/><stop stop-opacity="1" stop-color="rgb(36.366272%, 26.364136%, 4.000854%)" offset="0.464844"/><stop stop-opacity="1" stop-color="rgb(36.688232%, 26.597595%, 4.03595%)" offset="0.46875"/><stop stop-opacity="1" stop-color="rgb(37.008667%, 26.829529%, 4.071045%)" offset="0.472656"/><stop stop-opacity="1" stop-color="rgb(37.330627%, 27.062988%, 4.107666%)" offset="0.476562"/><stop stop-opacity="1" stop-color="rgb(37.651062%, 27.296448%, 4.142761%)" offset="0.480469"/><stop stop-opacity="1" stop-color="rgb(37.973022%, 27.529907%, 4.177856%)" offset="0.484375"/><stop stop-opacity="1" stop-color="rgb(38.293457%, 27.761841%, 4.212952%)" offset="0.488281"/><stop stop-opacity="1" stop-color="rgb(38.615417%, 27.9953%, 4.248047%)" offset="0.492187"/><stop stop-opacity="1" stop-color="rgb(38.935852%, 28.227234%, 4.283142%)" offset="0.496094"/><stop stop-opacity="1" stop-color="rgb(39.257812%, 28.460693%, 4.319763%)" offset="0.5"/><stop stop-opacity="1" stop-color="rgb(39.578247%, 28.694153%, 4.354858%)" offset="0.503906"/><stop stop-opacity="1" stop-color="rgb(39.900208%, 28.927612%, 4.389954%)" offset="0.507812"/><stop stop-opacity="1" stop-color="rgb(40.220642%, 29.159546%, 4.425049%)" offset="0.511719"/><stop stop-opacity="1" stop-color="rgb(40.542603%, 29.393005%, 4.460144%)" offset="0.515625"/><stop stop-opacity="1" stop-color="rgb(40.863037%, 29.624939%, 4.495239%)" offset="0.519531"/><stop stop-opacity="1" stop-color="rgb(41.184998%, 29.858398%, 4.53186%)" offset="0.523437"/><stop stop-opacity="1" stop-color="rgb(41.506958%, 30.090332%, 4.566956%)" offset="0.527344"/><stop stop-opacity="1" stop-color="rgb(41.828918%, 30.323792%, 4.602051%)" offset="0.53125"/><stop stop-opacity="1" stop-color="rgb(42.149353%, 30.557251%, 4.637146%)" offset="0.535156"/><stop stop-opacity="1" stop-color="rgb(42.471313%, 30.79071%, 4.672241%)" offset="0.539062"/><stop stop-opacity="1" stop-color="rgb(42.791748%, 31.022644%, 4.707336%)" offset="0.542969"/><stop stop-opacity="1" stop-color="rgb(43.113708%, 31.256104%, 4.743958%)" offset="0.546875"/><stop stop-opacity="1" stop-color="rgb(43.434143%, 31.488037%, 4.779053%)" offset="0.550781"/><stop stop-opacity="1" stop-color="rgb(43.756104%, 31.721497%, 4.814148%)" offset="0.554687"/><stop stop-opacity="1" stop-color="rgb(44.076538%, 31.95343%, 4.849243%)" offset="0.558594"/><stop stop-opacity="1" stop-color="rgb(44.398499%, 32.18689%, 4.884338%)" offset="0.5625"/><stop stop-opacity="1" stop-color="rgb(44.718933%, 32.420349%, 4.919434%)" offset="0.566406"/><stop stop-opacity="1" stop-color="rgb(45.040894%, 32.653809%, 4.956055%)" offset="0.570312"/><stop stop-opacity="1" stop-color="rgb(45.361328%, 32.885742%, 4.99115%)" offset="0.574219"/><stop stop-opacity="1" stop-color="rgb(45.683289%, 33.119202%, 5.026245%)" offset="0.578125"/><stop stop-opacity="1" stop-color="rgb(46.003723%, 33.351135%, 5.06134%)" offset="0.582031"/><stop stop-opacity="1" stop-color="rgb(46.325684%, 33.584595%, 5.096436%)" offset="0.585937"/><stop stop-opacity="1" stop-color="rgb(46.646118%, 33.818054%, 5.131531%)" offset="0.589844"/><stop stop-opacity="1" stop-color="rgb(46.968079%, 34.051514%, 5.168152%)" offset="0.59375"/><stop stop-opacity="1" stop-color="rgb(47.288513%, 34.283447%, 5.203247%)" offset="0.597656"/><stop stop-opacity="1" stop-color="rgb(47.610474%, 34.516907%, 5.238342%)" offset="0.601562"/><stop stop-opacity="1" stop-color="rgb(47.930908%, 34.74884%, 5.273438%)" offset="0.605469"/><stop stop-opacity="1" stop-color="rgb(48.252869%, 34.9823%, 5.308533%)" offset="0.609375"/><stop stop-opacity="1" stop-color="rgb(48.574829%, 35.214233%, 5.343628%)" offset="0.613281"/><stop stop-opacity="1" stop-color="rgb(48.89679%, 35.447693%, 5.380249%)" offset="0.617187"/><stop stop-opacity="1" stop-color="rgb(49.217224%, 35.681152%, 5.415344%)" offset="0.621094"/><stop stop-opacity="1" stop-color="rgb(49.539185%, 35.914612%, 5.450439%)" offset="0.625"/><stop stop-opacity="1" stop-color="rgb(49.859619%, 36.146545%, 5.485535%)" offset="0.628906"/><stop stop-opacity="1" stop-color="rgb(50.18158%, 36.380005%, 5.52063%)" offset="0.632812"/><stop stop-opacity="1" stop-color="rgb(50.502014%, 36.611938%, 5.555725%)" offset="0.636719"/><stop stop-opacity="1" stop-color="rgb(50.823975%, 36.845398%, 5.592346%)" offset="0.640625"/><stop stop-opacity="1" stop-color="rgb(51.144409%, 37.078857%, 5.627441%)" offset="0.644531"/><stop stop-opacity="1" stop-color="rgb(51.46637%, 37.312317%, 5.662537%)" offset="0.648437"/><stop stop-opacity="1" stop-color="rgb(51.786804%, 37.54425%, 5.697632%)" offset="0.652344"/><stop stop-opacity="1" stop-color="rgb(52.108765%, 37.77771%, 5.732727%)" offset="0.65625"/><stop stop-opacity="1" stop-color="rgb(52.429199%, 38.009644%, 5.767822%)" offset="0.660156"/><stop stop-opacity="1" stop-color="rgb(52.75116%, 38.243103%, 5.804443%)" offset="0.664062"/><stop stop-opacity="1" stop-color="rgb(53.071594%, 38.475037%, 5.839539%)" offset="0.667969"/><stop stop-opacity="1" stop-color="rgb(53.393555%, 38.708496%, 5.874634%)" offset="0.671875"/><stop stop-opacity="1" stop-color="rgb(53.713989%, 38.941956%, 5.909729%)" offset="0.675781"/><stop stop-opacity="1" stop-color="rgb(54.03595%, 39.175415%, 5.944824%)" offset="0.679687"/><stop stop-opacity="1" stop-color="rgb(54.356384%, 39.407349%, 5.979919%)" offset="0.683594"/><stop stop-opacity="1" stop-color="rgb(54.678345%, 39.640808%, 6.016541%)" offset="0.6875"/><stop stop-opacity="1" stop-color="rgb(54.998779%, 39.872742%, 6.051636%)" offset="0.691406"/><stop stop-opacity="1" stop-color="rgb(55.32074%, 40.106201%, 6.086731%)" offset="0.695312"/><stop stop-opacity="1" stop-color="rgb(55.6427%, 40.339661%, 6.121826%)" offset="0.699219"/><stop stop-opacity="1" stop-color="rgb(55.964661%, 40.57312%, 6.156921%)" offset="0.703125"/><stop stop-opacity="1" stop-color="rgb(56.285095%, 40.805054%, 6.192017%)" offset="0.707031"/><stop stop-opacity="1" stop-color="rgb(56.607056%, 41.038513%, 6.228638%)" offset="0.710937"/><stop stop-opacity="1" stop-color="rgb(56.92749%, 41.270447%, 6.263733%)" offset="0.714844"/><stop stop-opacity="1" stop-color="rgb(57.249451%, 41.503906%, 6.298828%)" offset="0.71875"/><stop stop-opacity="1" stop-color="rgb(57.569885%, 41.73584%, 6.333923%)" offset="0.722656"/><stop stop-opacity="1" stop-color="rgb(57.891846%, 41.969299%, 6.369019%)" offset="0.726562"/><stop stop-opacity="1" stop-color="rgb(58.21228%, 42.202759%, 6.404114%)" offset="0.730469"/><stop stop-opacity="1" stop-color="rgb(58.534241%, 42.436218%, 6.440735%)" offset="0.734375"/><stop stop-opacity="1" stop-color="rgb(58.854675%, 42.668152%, 6.47583%)" offset="0.738281"/><stop stop-opacity="1" stop-color="rgb(59.176636%, 42.901611%, 6.510925%)" offset="0.742187"/><stop stop-opacity="1" stop-color="rgb(59.49707%, 43.133545%, 6.546021%)" offset="0.746094"/><stop stop-opacity="1" stop-color="rgb(59.819031%, 43.367004%, 6.581116%)" offset="0.75"/><stop stop-opacity="1" stop-color="rgb(60.139465%, 43.600464%, 6.616211%)" offset="0.753906"/><stop stop-opacity="1" stop-color="rgb(60.461426%, 43.833923%, 6.652832%)" offset="0.757812"/><stop stop-opacity="1" stop-color="rgb(60.78186%, 44.065857%, 6.687927%)" offset="0.761719"/><stop stop-opacity="1" stop-color="rgb(61.103821%, 44.299316%, 6.723022%)" offset="0.765625"/><stop stop-opacity="1" stop-color="rgb(61.424255%, 44.53125%, 6.758118%)" offset="0.769531"/><stop stop-opacity="1" stop-color="rgb(61.746216%, 44.764709%, 6.793213%)" offset="0.773438"/><stop stop-opacity="1" stop-color="rgb(62.068176%, 44.996643%, 6.828308%)" offset="0.777344"/><stop stop-opacity="1" stop-color="rgb(62.390137%, 45.230103%, 6.864929%)" offset="0.78125"/><stop stop-opacity="1" stop-color="rgb(62.710571%, 45.463562%, 6.900024%)" offset="0.785156"/><stop stop-opacity="1" stop-color="rgb(63.032532%, 45.697021%, 6.93512%)" offset="0.789062"/><stop stop-opacity="1" stop-color="rgb(63.352966%, 45.928955%, 6.970215%)" offset="0.792969"/><stop stop-opacity="1" stop-color="rgb(63.674927%, 46.162415%, 7.00531%)" offset="0.796875"/><stop stop-opacity="1" stop-color="rgb(63.995361%, 46.394348%, 7.040405%)" offset="0.800781"/><stop stop-opacity="1" stop-color="rgb(64.317322%, 46.627808%, 7.077026%)" offset="0.804687"/><stop stop-opacity="1" stop-color="rgb(64.637756%, 46.861267%, 7.112122%)" offset="0.808594"/><stop stop-opacity="1" stop-color="rgb(64.959717%, 47.094727%, 7.147217%)" offset="0.8125"/><stop stop-opacity="1" stop-color="rgb(65.280151%, 47.32666%, 7.182312%)" offset="0.816406"/><stop stop-opacity="1" stop-color="rgb(65.602112%, 47.56012%, 7.217407%)" offset="0.820312"/><stop stop-opacity="1" stop-color="rgb(65.922546%, 47.792053%, 7.252502%)" offset="0.824219"/><stop stop-opacity="1" stop-color="rgb(66.244507%, 48.025513%, 7.289124%)" offset="0.828125"/><stop stop-opacity="1" stop-color="rgb(66.564941%, 48.257446%, 7.324219%)" offset="0.832031"/><stop stop-opacity="1" stop-color="rgb(66.886902%, 48.490906%, 7.359314%)" offset="0.835937"/><stop stop-opacity="1" stop-color="rgb(67.207336%, 48.724365%, 7.394409%)" offset="0.839844"/><stop stop-opacity="1" stop-color="rgb(67.529297%, 48.957825%, 7.429504%)" offset="0.84375"/><stop stop-opacity="1" stop-color="rgb(67.849731%, 49.189758%, 7.4646%)" offset="0.847656"/><stop stop-opacity="1" stop-color="rgb(68.171692%, 49.423218%, 7.501221%)" offset="0.851562"/><stop stop-opacity="1" stop-color="rgb(68.492126%, 49.655151%, 7.536316%)" offset="0.855469"/><stop stop-opacity="1" stop-color="rgb(68.814087%, 49.888611%, 7.571411%)" offset="0.859375"/><stop stop-opacity="1" stop-color="rgb(69.136047%, 50.120544%, 7.606506%)" offset="0.863281"/><stop stop-opacity="1" stop-color="rgb(69.458008%, 50.354004%, 7.641602%)" offset="0.867188"/><stop stop-opacity="1" stop-color="rgb(69.778442%, 50.587463%, 7.676697%)" offset="0.871094"/><stop stop-opacity="1" stop-color="rgb(70.100403%, 50.820923%, 7.713318%)" offset="0.875"/><stop stop-opacity="1" stop-color="rgb(70.420837%, 51.052856%, 7.748413%)" offset="0.878906"/><stop stop-opacity="1" stop-color="rgb(70.742798%, 51.286316%, 7.783508%)" offset="0.882812"/><stop stop-opacity="1" stop-color="rgb(71.063232%, 51.51825%, 7.818604%)" offset="0.886719"/><stop stop-opacity="1" stop-color="rgb(71.385193%, 51.751709%, 7.853699%)" offset="0.890625"/><stop stop-opacity="1" stop-color="rgb(71.705627%, 51.985168%, 7.888794%)" offset="0.894531"/><stop stop-opacity="1" stop-color="rgb(72.027588%, 52.218628%, 7.925415%)" offset="0.898437"/><stop stop-opacity="1" stop-color="rgb(72.348022%, 52.450562%, 7.96051%)" offset="0.902344"/><stop stop-opacity="1" stop-color="rgb(72.669983%, 52.684021%, 7.995605%)" offset="0.90625"/><stop stop-opacity="1" stop-color="rgb(72.990417%, 52.915955%, 8.030701%)" offset="0.910156"/><stop stop-opacity="1" stop-color="rgb(73.312378%, 53.149414%, 8.065796%)" offset="0.914062"/><stop stop-opacity="1" stop-color="rgb(73.632812%, 53.381348%, 8.100891%)" offset="0.917969"/><stop stop-opacity="1" stop-color="rgb(73.954773%, 53.614807%, 8.137512%)" offset="0.921875"/><stop stop-opacity="1" stop-color="rgb(74.275208%, 53.848267%, 8.172607%)" offset="0.925781"/><stop stop-opacity="1" stop-color="rgb(74.597168%, 54.081726%, 8.207703%)" offset="0.929687"/><stop stop-opacity="1" stop-color="rgb(74.917603%, 54.31366%, 8.242798%)" offset="0.933594"/><stop stop-opacity="1" stop-color="rgb(75.239563%, 54.547119%, 8.277893%)" offset="0.9375"/><stop stop-opacity="1" stop-color="rgb(75.559998%, 54.779053%, 8.312988%)" offset="0.941406"/><stop stop-opacity="1" stop-color="rgb(75.881958%, 55.012512%, 8.349609%)" offset="0.945312"/><stop stop-opacity="1" stop-color="rgb(76.203918%, 55.245972%, 8.384705%)" offset="0.949219"/><stop stop-opacity="1" stop-color="rgb(76.525879%, 55.479431%, 8.4198%)" offset="0.953125"/><stop stop-opacity="1" stop-color="rgb(76.846313%, 55.711365%, 8.454895%)" offset="0.957031"/><stop stop-opacity="1" stop-color="rgb(77.168274%, 55.944824%, 8.48999%)" offset="0.960938"/><stop stop-opacity="1" stop-color="rgb(77.488708%, 56.176758%, 8.525085%)" offset="0.964844"/><stop stop-opacity="1" stop-color="rgb(77.810669%, 56.410217%, 8.561707%)" offset="0.96875"/><stop stop-opacity="1" stop-color="rgb(78.118896%, 56.634521%, 8.595276%)" offset="0.972656"/><stop stop-opacity="1" stop-color="rgb(78.42865%, 56.858826%, 8.628845%)" offset="0.976562"/><stop stop-opacity="1" stop-color="rgb(78.42865%, 56.858826%, 8.628845%)" offset="0.984375"/><stop stop-opacity="1" stop-color="rgb(78.42865%, 56.858826%, 8.628845%)" offset="1"/></linearGradient><clipPath id="fec7c1bbba"><rect x="0" width="1500" y="0" height="1481"/></clipPath><clipPath id="51da5365d2"><path d="M 0 0 L 1500 0 L 1500 1480.390625 L 0 1480.390625 Z M 0 0 " clip-rule="nonzero"/></clipPath><clipPath id="8c15892137"><rect x="0" width="1500" y="0" height="1481"/></clipPath><clipPath id="028f90a753"><rect x="0" width="1500" y="0" height="1481"/></clipPath><mask id="470e434d82"><g filter="url(#8e4d6d62af)"><g transform="matrix(1, 0, 0, 1, 0, 0.000000000000112861)"><g clip-path="url(#028f90a753)"><g clip-path="url(#51da5365d2)"><g transform="matrix(1, 0, 0, 1, 0, 0.000000000000112861)"><g clip-path="url(#8c15892137)"><g fill="#000000" fill-opacity="1"><g transform="translate(34.075065, 709.389471)"><g><path d="M 169.8125 -188.75 L 169.8125 -183.421875 C 166.4375 -182.703125 162.835938 -180.65625 159.015625 -177.28125 C 155.203125 -173.90625 151.785156 -168.21875 148.765625 -160.21875 L 86.109375 1.328125 C 85.753906 1.328125 85.398438 1.328125 85.046875 1.328125 C 84.691406 1.328125 84.335938 1.328125 83.984375 1.328125 C 83.617188 1.328125 83.257812 1.328125 82.90625 1.328125 C 82.550781 1.328125 82.195312 1.328125 81.84375 1.328125 L 16.796875 -166.359375 C 14.128906 -173.109375 11.109375 -177.59375 7.734375 -179.8125 C 4.359375 -182.039062 1.25 -183.242188 -1.59375 -183.421875 L -1.59375 -188.75 C 1.957031 -188.570312 6.351562 -188.394531 11.59375 -188.21875 C 16.84375 -188.039062 21.953125 -187.953125 26.921875 -187.953125 C 33.859375 -187.953125 40.347656 -188.039062 46.390625 -188.21875 C 52.429688 -188.394531 57.316406 -188.570312 61.046875 -188.75 L 61.046875 -183.421875 C 55.003906 -183.242188 50.425781 -182.53125 47.3125 -181.28125 C 44.207031 -180.039062 42.519531 -177.863281 42.25 -174.75 C 41.988281 -171.644531 43.015625 -167.066406 45.328125 -161.015625 L 94.90625 -29.59375 L 90.640625 -25.0625 L 137.03125 -145.5625 C 140.757812 -155.15625 142.535156 -162.660156 142.359375 -168.078125 C 142.179688 -173.503906 140.132812 -177.375 136.21875 -179.6875 C 132.3125 -182 126.628906 -183.242188 119.171875 -183.421875 L 119.171875 -188.75 C 124.328125 -188.570312 129.566406 -188.394531 134.890625 -188.21875 C 140.222656 -188.039062 145.203125 -187.953125 149.828125 -187.953125 C 154.441406 -187.953125 158.257812 -188.039062 161.28125 -188.21875 C 164.3125 -188.394531 167.15625 -188.570312 169.8125 -188.75 Z M 169.8125 -188.75 "/></g></g></g><g fill="#000000" fill-opacity="1"><g transform="translate(208.423147, 709.389471)"><g><path d="M 38.125 -203.9375 C 42.75 -203.9375 46.75 -202.25 50.125 -198.875 C 53.5 -195.5 55.1875 -191.5 55.1875 -186.875 C 55.1875 -182.257812 53.5 -178.257812 50.125 -174.875 C 46.75 -171.5 42.75 -169.8125 38.125 -169.8125 C 33.507812 -169.8125 29.507812 -171.5 26.125 -174.875 C 22.75 -178.257812 21.0625 -182.257812 21.0625 -186.875 C 21.0625 -191.5 22.75 -195.5 26.125 -198.875 C 29.507812 -202.25 33.507812 -203.9375 38.125 -203.9375 Z M 51.984375 -140.234375 L 51.984375 -24.796875 C 51.984375 -17.328125 53.535156 -12.257812 56.640625 -9.59375 C 59.753906 -6.925781 64.957031 -5.59375 72.25 -5.59375 L 72.25 0 C 69.226562 -0.175781 64.648438 -0.394531 58.515625 -0.65625 C 52.378906 -0.925781 46.203125 -1.0625 39.984375 -1.0625 C 33.941406 -1.0625 27.8125 -0.925781 21.59375 -0.65625 C 15.375 -0.394531 10.753906 -0.175781 7.734375 0 L 7.734375 -5.59375 C 15.015625 -5.59375 20.210938 -6.925781 23.328125 -9.59375 C 26.441406 -12.257812 28 -17.328125 28 -24.796875 L 28 -108.234375 C 28 -116.234375 26.578125 -122.144531 23.734375 -125.96875 C 20.890625 -129.789062 15.554688 -131.703125 7.734375 -131.703125 L 7.734375 -137.296875 C 13.421875 -136.765625 18.929688 -136.5 24.265625 -136.5 C 29.410156 -136.5 34.335938 -136.804688 39.046875 -137.421875 C 43.765625 -138.046875 48.078125 -138.984375 51.984375 -140.234375 Z M 51.984375 -140.234375 "/></g></g></g><g fill="#000000" fill-opacity="1"><g transform="translate(292.931383, 709.389471)"><g><path d="M 50.125 -209.015625 L 50.125 -24.796875 C 50.125 -17.328125 51.675781 -12.257812 54.78125 -9.59375 C 57.894531 -6.925781 63.09375 -5.59375 70.375 -5.59375 L 70.375 0 C 67.351562 -0.175781 62.773438 -0.394531 56.640625 -0.65625 C 50.515625 -0.925781 44.34375 -1.0625 38.125 -1.0625 C 32.082031 -1.0625 25.945312 -0.925781 19.71875 -0.65625 C 13.5 -0.394531 8.878906 -0.175781 5.859375 0 L 5.859375 -5.59375 C 13.148438 -5.59375 18.347656 -6.925781 21.453125 -9.59375 C 24.566406 -12.257812 26.125 -17.328125 26.125 -24.796875 L 26.125 -177.015625 C 26.125 -185.015625 24.703125 -190.925781 21.859375 -194.75 C 19.015625 -198.570312 13.679688 -200.484375 5.859375 -200.484375 L 5.859375 -206.078125 C 11.546875 -205.546875 17.054688 -205.28125 22.390625 -205.28125 C 27.546875 -205.28125 32.476562 -205.585938 37.1875 -206.203125 C 41.894531 -206.828125 46.207031 -207.765625 50.125 -209.015625 Z M 50.125 -209.015625 "/></g></g></g><g fill="#000000" fill-opacity="1"><g transform="translate(375.573557, 709.389471)"><g><path d="M 50.125 -209.015625 L 50.125 -24.796875 C 50.125 -17.328125 51.675781 -12.257812 54.78125 -9.59375 C 57.894531 -6.925781 63.09375 -5.59375 70.375 -5.59375 L 70.375 0 C 67.351562 -0.175781 62.773438 -0.394531 56.640625 -0.65625 C 50.515625 -0.925781 44.34375 -1.0625 38.125 -1.0625 C 32.082031 -1.0625 25.945312 -0.925781 19.71875 -0.65625 C 13.5 -0.394531 8.878906 -0.175781 5.859375 0 L 5.859375 -5.59375 C 13.148438 -5.59375 18.347656 -6.925781 21.453125 -9.59375 C 24.566406 -12.257812 26.125 -17.328125 26.125 -24.796875 L 26.125 -177.015625 C 26.125 -185.015625 24.703125 -190.925781 21.859375 -194.75 C 19.015625 -198.570312 13.679688 -200.484375 5.859375 -200.484375 L 5.859375 -206.078125 C 11.546875 -205.546875 17.054688 -205.28125 22.390625 -205.28125 C 27.546875 -205.28125 32.476562 -205.585938 37.1875 -206.203125 C 41.894531 -206.828125 46.207031 -207.765625 50.125 -209.015625 Z M 50.125 -209.015625 "/></g></g></g><g fill="#000000" fill-opacity="1"><g transform="translate(458.215686, 709.389471)"><g><path d="M 45.59375 1.859375 C 38.300781 1.859375 31.988281 0.484375 26.65625 -2.265625 C 21.320312 -5.015625 17.273438 -8.878906 14.515625 -13.859375 C 11.765625 -18.835938 10.390625 -24.613281 10.390625 -31.1875 C 10.390625 -39.007812 12.210938 -45.40625 15.859375 -50.375 C 19.503906 -55.351562 24.171875 -59.351562 29.859375 -62.375 C 35.546875 -65.40625 41.539062 -67.941406 47.84375 -69.984375 C 54.15625 -72.023438 60.15625 -73.976562 65.84375 -75.84375 C 71.53125 -77.707031 76.195312 -79.882812 79.84375 -82.375 C 83.488281 -84.863281 85.3125 -88.148438 85.3125 -92.234375 L 85.3125 -108.765625 C 85.3125 -116.234375 84.195312 -121.921875 81.96875 -125.828125 C 79.75 -129.742188 76.773438 -132.367188 73.046875 -133.703125 C 69.316406 -135.035156 65.140625 -135.703125 60.515625 -135.703125 C 56.078125 -135.703125 51.320312 -135.078125 46.25 -133.828125 C 41.1875 -132.585938 37.144531 -130.007812 34.125 -126.09375 C 37.5 -125.382812 40.429688 -123.609375 42.921875 -120.765625 C 45.410156 -117.921875 46.65625 -114.28125 46.65625 -109.84375 C 46.65625 -105.394531 45.234375 -101.878906 42.390625 -99.296875 C 39.546875 -96.722656 35.898438 -95.4375 31.453125 -95.4375 C 26.304688 -95.4375 22.53125 -97.078125 20.125 -100.359375 C 17.726562 -103.648438 16.53125 -107.34375 16.53125 -111.4375 C 16.53125 -116.0625 17.679688 -119.796875 19.984375 -122.640625 C 22.296875 -125.484375 25.234375 -128.144531 28.796875 -130.625 C 32.878906 -133.46875 38.164062 -135.910156 44.65625 -137.953125 C 51.144531 -140.003906 58.472656 -141.03125 66.640625 -141.03125 C 73.929688 -141.03125 80.15625 -140.1875 85.3125 -138.5 C 90.46875 -136.8125 94.734375 -134.367188 98.109375 -131.171875 C 102.722656 -126.898438 105.738281 -121.695312 107.15625 -115.5625 C 108.582031 -109.4375 109.296875 -102.109375 109.296875 -93.578125 L 109.296875 -19.46875 C 109.296875 -15.019531 109.960938 -11.816406 111.296875 -9.859375 C 112.628906 -7.910156 114.71875 -6.9375 117.5625 -6.9375 C 119.519531 -6.9375 121.382812 -7.378906 123.15625 -8.265625 C 124.9375 -9.148438 127.070312 -10.570312 129.5625 -12.53125 L 132.5 -8 C 128.769531 -5.15625 125.210938 -2.800781 121.828125 -0.9375 C 118.453125 0.925781 113.921875 1.859375 108.234375 1.859375 C 103.078125 1.859375 98.8125 0.972656 95.4375 -0.796875 C 92.0625 -2.578125 89.53125 -5.195312 87.84375 -8.65625 C 86.15625 -12.125 85.3125 -16.523438 85.3125 -21.859375 C 80.507812 -13.859375 74.773438 -7.90625 68.109375 -4 C 61.453125 -0.09375 53.945312 1.859375 45.59375 1.859375 Z M 55.1875 -8.796875 C 61.050781 -8.796875 66.515625 -10.484375 71.578125 -13.859375 C 76.640625 -17.234375 81.21875 -22.300781 85.3125 -29.0625 L 85.3125 -81.3125 C 83.175781 -78.289062 80.0625 -75.753906 75.96875 -73.703125 C 71.882812 -71.660156 67.441406 -69.617188 62.640625 -67.578125 C 57.847656 -65.535156 53.273438 -63.132812 48.921875 -60.375 C 44.566406 -57.625 40.96875 -54.023438 38.125 -49.578125 C 35.28125 -45.140625 33.859375 -39.367188 33.859375 -32.265625 C 33.859375 -25.148438 35.769531 -19.457031 39.59375 -15.1875 C 43.414062 -10.925781 48.613281 -8.796875 55.1875 -8.796875 Z M 55.1875 -8.796875 "/></g></g></g><g fill="#000000" fill-opacity="1"><g transform="translate(34.075065, 941.139451)"><g><path d="M 86.109375 -190.078125 L 151.15625 -22.390625 C 153.820312 -15.640625 156.84375 -11.148438 160.21875 -8.921875 C 163.59375 -6.703125 166.703125 -5.503906 169.546875 -5.328125 L 169.546875 0 C 165.992188 -0.351562 161.640625 -0.570312 156.484375 -0.65625 C 151.335938 -0.75 146.1875 -0.796875 141.03125 -0.796875 C 134.09375 -0.796875 127.601562 -0.75 121.5625 -0.65625 C 115.519531 -0.570312 110.632812 -0.351562 106.90625 0 L 106.90625 -5.328125 C 115.96875 -5.679688 121.742188 -7.234375 124.234375 -9.984375 C 126.722656 -12.742188 126.191406 -18.65625 122.640625 -27.71875 L 73.046875 -160.21875 L 77.3125 -163.6875 L 30.921875 -43.1875 C 28.078125 -36.082031 26.390625 -30.082031 25.859375 -25.1875 C 25.328125 -20.300781 25.816406 -16.4375 27.328125 -13.59375 C 28.835938 -10.75 31.410156 -8.703125 35.046875 -7.453125 C 38.691406 -6.210938 43.269531 -5.503906 48.78125 -5.328125 L 48.78125 0 C 43.8125 -0.351562 38.613281 -0.570312 33.1875 -0.65625 C 27.769531 -0.75 22.75 -0.796875 18.125 -0.796875 C 13.6875 -0.796875 9.910156 -0.75 6.796875 -0.65625 C 3.679688 -0.570312 0.796875 -0.351562 -1.859375 0 L -1.859375 -5.328125 C 1.691406 -6.222656 5.332031 -8.3125 9.0625 -11.59375 C 12.789062 -14.882812 16.164062 -20.53125 19.1875 -28.53125 L 81.84375 -190.078125 C 82.550781 -190.078125 83.257812 -190.078125 83.96875 -190.078125 C 84.6875 -190.078125 85.398438 -190.078125 86.109375 -190.078125 Z M 118.640625 -76.78125 L 118.640625 -71.453125 L 39.1875 -71.453125 L 41.859375 -76.78125 Z M 118.640625 -76.78125 "/></g></g></g><g fill="#000000" fill-opacity="1"><g transform="translate(208.423147, 941.139451)"><g><path d="M 129.5625 -137.296875 L 129.5625 -131.96875 C 126.1875 -131.613281 123.078125 -130.101562 120.234375 -127.4375 C 117.390625 -124.769531 114.722656 -120.054688 112.234375 -113.296875 L 68.515625 1.328125 C 67.804688 1.328125 67.09375 1.328125 66.375 1.328125 C 65.664062 1.328125 64.867188 1.328125 63.984375 1.328125 L 14.921875 -116.765625 C 12.078125 -123.703125 9.28125 -127.925781 6.53125 -129.4375 C 3.78125 -130.945312 1.425781 -131.703125 -0.53125 -131.703125 L -0.53125 -137.296875 C 3.019531 -137.117188 6.707031 -136.894531 10.53125 -136.625 C 14.351562 -136.363281 18.484375 -136.234375 22.921875 -136.234375 C 28.429688 -136.234375 34.253906 -136.320312 40.390625 -136.5 C 46.523438 -136.675781 52.253906 -136.941406 57.578125 -137.296875 L 57.578125 -131.703125 C 53.140625 -131.703125 49.1875 -131.390625 45.71875 -130.765625 C 42.25 -130.140625 40.023438 -128.40625 39.046875 -125.5625 C 38.078125 -122.71875 38.925781 -117.832031 41.59375 -110.90625 L 74.90625 -28.53125 L 73.3125 -27.1875 L 103.703125 -106.90625 C 106.015625 -112.769531 106.945312 -117.429688 106.5 -120.890625 C 106.0625 -124.359375 104.285156 -126.984375 101.171875 -128.765625 C 98.054688 -130.546875 93.300781 -131.613281 86.90625 -131.96875 L 86.90625 -137.296875 C 90.101562 -137.117188 92.859375 -136.984375 95.171875 -136.890625 C 97.484375 -136.804688 99.75 -136.71875 101.96875 -136.625 C 104.1875 -136.539062 106.628906 -136.5 109.296875 -136.5 C 113.390625 -136.5 117.078125 -136.585938 120.359375 -136.765625 C 123.648438 -136.941406 126.71875 -137.117188 129.5625 -137.296875 Z M 129.5625 -137.296875 "/></g></g></g><g fill="#000000" fill-opacity="1"><g transform="translate(345.182448, 941.139451)"><g><path d="M 45.59375 1.859375 C 38.300781 1.859375 31.988281 0.484375 26.65625 -2.265625 C 21.320312 -5.015625 17.273438 -8.878906 14.515625 -13.859375 C 11.765625 -18.835938 10.390625 -24.613281 10.390625 -31.1875 C 10.390625 -39.007812 12.210938 -45.40625 15.859375 -50.375 C 19.503906 -55.351562 24.171875 -59.351562 29.859375 -62.375 C 35.546875 -65.40625 41.539062 -67.941406 47.84375 -69.984375 C 54.15625 -72.023438 60.15625 -73.976562 65.84375 -75.84375 C 71.53125 -77.707031 76.195312 -79.882812 79.84375 -82.375 C 83.488281 -84.863281 85.3125 -88.148438 85.3125 -92.234375 L 85.3125 -108.765625 C 85.3125 -116.234375 84.195312 -121.921875 81.96875 -125.828125 C 79.75 -129.742188 76.773438 -132.367188 73.046875 -133.703125 C 69.316406 -135.035156 65.140625 -135.703125 60.515625 -135.703125 C 56.078125 -135.703125 51.320312 -135.078125 46.25 -133.828125 C 41.1875 -132.585938 37.144531 -130.007812 34.125 -126.09375 C 37.5 -125.382812 40.429688 -123.609375 42.921875 -120.765625 C 45.410156 -117.921875 46.65625 -114.28125 46.65625 -109.84375 C 46.65625 -105.394531 45.234375 -101.878906 42.390625 -99.296875 C 39.546875 -96.722656 35.898438 -95.4375 31.453125 -95.4375 C 26.304688 -95.4375 22.53125 -97.078125 20.125 -100.359375 C 17.726562 -103.648438 16.53125 -107.34375 16.53125 -111.4375 C 16.53125 -116.0625 17.679688 -119.796875 19.984375 -122.640625 C 22.296875 -125.484375 25.234375 -128.144531 28.796875 -130.625 C 32.878906 -133.46875 38.164062 -135.910156 44.65625 -137.953125 C 51.144531 -140.003906 58.472656 -141.03125 66.640625 -141.03125 C 73.929688 -141.03125 80.15625 -140.1875 85.3125 -138.5 C 90.46875 -136.8125 94.734375 -134.367188 98.109375 -131.171875 C 102.722656 -126.898438 105.738281 -121.695312 107.15625 -115.5625 C 108.582031 -109.4375 109.296875 -102.109375 109.296875 -93.578125 L 109.296875 -19.46875 C 109.296875 -15.019531 109.960938 -11.816406 111.296875 -9.859375 C 112.628906 -7.910156 114.71875 -6.9375 117.5625 -6.9375 C 119.519531 -6.9375 121.382812 -7.378906 123.15625 -8.265625 C 124.9375 -9.148438 127.070312 -10.570312 129.5625 -12.53125 L 132.5 -8 C 128.769531 -5.15625 125.210938 -2.800781 121.828125 -0.9375 C 118.453125 0.925781 113.921875 1.859375 108.234375 1.859375 C 103.078125 1.859375 98.8125 0.972656 95.4375 -0.796875 C 92.0625 -2.578125 89.53125 -5.195312 87.84375 -8.65625 C 86.15625 -12.125 85.3125 -16.523438 85.3125 -21.859375 C 80.507812 -13.859375 74.773438 -7.90625 68.109375 -4 C 61.453125 -0.09375 53.945312 1.859375 45.59375 1.859375 Z M 55.1875 -8.796875 C 61.050781 -8.796875 66.515625 -10.484375 71.578125 -13.859375 C 76.640625 -17.234375 81.21875 -22.300781 85.3125 -29.0625 L 85.3125 -81.3125 C 83.175781 -78.289062 80.0625 -75.753906 75.96875 -73.703125 C 71.882812 -71.660156 67.441406 -69.617188 62.640625 -67.578125 C 57.847656 -65.535156 53.273438 -63.132812 48.921875 -60.375 C 44.566406 -57.625 40.96875 -54.023438 38.125 -49.578125 C 35.28125 -45.140625 33.859375 -39.367188 33.859375 -32.265625 C 33.859375 -25.148438 35.769531 -19.457031 39.59375 -15.1875 C 43.414062 -10.925781 48.613281 -8.796875 55.1875 -8.796875 Z M 55.1875 -8.796875 "/></g></g></g><g fill="#000000" fill-opacity="1"><g transform="translate(484.341081, 941.139451)"><g><path d="M 97.3125 -141.03125 C 104.0625 -141.03125 109.703125 -140.140625 114.234375 -138.359375 C 118.765625 -136.585938 122.539062 -134.097656 125.5625 -130.890625 C 128.9375 -127.335938 131.332031 -122.894531 132.75 -117.5625 C 134.175781 -112.226562 134.890625 -105.03125 134.890625 -95.96875 L 134.890625 -24.796875 C 134.890625 -17.328125 136.445312 -12.257812 139.5625 -9.59375 C 142.675781 -6.925781 147.875 -5.59375 155.15625 -5.59375 L 155.15625 0 C 152.132812 -0.175781 147.515625 -0.394531 141.296875 -0.65625 C 135.078125 -0.925781 129.035156 -1.0625 123.171875 -1.0625 C 117.304688 -1.0625 111.570312 -0.925781 105.96875 -0.65625 C 100.375 -0.394531 96.15625 -0.175781 93.3125 0 L 93.3125 -5.59375 C 99.707031 -5.59375 104.238281 -6.925781 106.90625 -9.59375 C 109.570312 -12.257812 110.90625 -17.328125 110.90625 -24.796875 L 110.90625 -101.84375 C 110.90625 -107.351562 110.457031 -112.414062 109.5625 -117.03125 C 108.675781 -121.65625 106.675781 -125.390625 103.5625 -128.234375 C 100.457031 -131.078125 95.707031 -132.5 89.3125 -132.5 C 81.84375 -132.5 75.304688 -130.363281 69.703125 -126.09375 C 64.109375 -121.832031 59.753906 -116.015625 56.640625 -108.640625 C 53.535156 -101.265625 51.984375 -93.046875 51.984375 -83.984375 L 51.984375 -24.796875 C 51.984375 -17.328125 53.316406 -12.257812 55.984375 -9.59375 C 58.648438 -6.925781 63.179688 -5.59375 69.578125 -5.59375 L 69.578125 0 C 66.734375 -0.175781 62.507812 -0.394531 56.90625 -0.65625 C 51.3125 -0.925781 45.582031 -1.0625 39.71875 -1.0625 C 33.851562 -1.0625 27.8125 -0.925781 21.59375 -0.65625 C 15.375 -0.394531 10.753906 -0.175781 7.734375 0 L 7.734375 -5.59375 C 15.015625 -5.59375 20.210938 -6.925781 23.328125 -9.59375 C 26.441406 -12.257812 28 -17.328125 28 -24.796875 L 28 -108.234375 C 28 -116.234375 26.578125 -122.144531 23.734375 -125.96875 C 20.890625 -129.789062 15.554688 -131.703125 7.734375 -131.703125 L 7.734375 -137.296875 C 13.421875 -136.765625 18.929688 -136.5 24.265625 -136.5 C 29.410156 -136.5 34.335938 -136.804688 39.046875 -137.421875 C 43.765625 -138.046875 48.078125 -138.984375 51.984375 -140.234375 L 51.984375 -108.765625 C 56.609375 -120.859375 63.050781 -129.257812 71.3125 -133.96875 C 79.570312 -138.675781 88.238281 -141.03125 97.3125 -141.03125 Z M 97.3125 -141.03125 "/></g></g></g><g fill="#000000" fill-opacity="1"><g transform="translate(649.891754, 941.139451)"><g><path d="M 50.65625 -181.546875 L 50.65625 -137.03125 L 90.109375 -137.03125 L 90.109375 -131.703125 L 50.65625 -131.703125 L 50.65625 -28.53125 C 50.65625 -20.175781 52.164062 -14.304688 55.1875 -10.921875 C 58.207031 -7.546875 62.382812 -5.859375 67.71875 -5.859375 C 73.050781 -5.859375 77.671875 -8.035156 81.578125 -12.390625 C 85.484375 -16.742188 88.859375 -24.078125 91.703125 -34.390625 L 97.046875 -33.0625 C 95.265625 -22.75 91.75 -14.035156 86.5 -6.921875 C 81.257812 0.179688 73.222656 3.734375 62.390625 3.734375 C 56.335938 3.734375 51.359375 2.976562 47.453125 1.46875 C 43.546875 -0.0390625 40.082031 -2.21875 37.0625 -5.0625 C 33.144531 -9.15625 30.429688 -14.046875 28.921875 -19.734375 C 27.410156 -25.421875 26.65625 -32.972656 26.65625 -42.390625 L 26.65625 -131.703125 L 1.0625 -131.703125 L 1.0625 -137.03125 L 26.65625 -137.03125 L 26.65625 -177.8125 C 31.101562 -177.988281 35.367188 -178.34375 39.453125 -178.875 C 43.546875 -179.414062 47.28125 -180.304688 50.65625 -181.546875 Z M 50.65625 -181.546875 "/></g></g></g><g fill="#000000" fill-opacity="1"><g transform="translate(750.661826, 941.139451)"><g><path d="M 56.78125 50.125 C 47.363281 50.125 38.476562 49.144531 30.125 47.1875 C 21.769531 45.226562 15.0625 42.160156 10 37.984375 C 4.9375 33.804688 2.40625 28.519531 2.40625 22.125 C 2.40625 15.90625 4.890625 10.570312 9.859375 6.125 C 14.835938 1.6875 21.59375 -1.6875 30.125 -4 L 31.71875 0.265625 C 27.8125 1.503906 24.703125 3.988281 22.390625 7.71875 C 20.078125 11.457031 18.921875 15.640625 18.921875 20.265625 C 18.921875 28.441406 22.695312 34.707031 30.25 39.0625 C 37.8125 43.414062 47.632812 45.59375 59.71875 45.59375 C 67.71875 45.59375 75.535156 44.566406 83.171875 42.515625 C 90.816406 40.472656 97.125 37.050781 102.09375 32.25 C 107.070312 27.457031 109.5625 21.148438 109.5625 13.328125 C 109.5625 7.460938 107.472656 2.617188 103.296875 -1.203125 C 99.128906 -5.023438 90.910156 -6.9375 78.640625 -6.9375 L 58.921875 -6.9375 C 53.234375 -6.9375 47.722656 -7.378906 42.390625 -8.265625 C 37.054688 -9.148438 32.703125 -11.015625 29.328125 -13.859375 C 25.953125 -16.703125 24.265625 -21.054688 24.265625 -26.921875 C 24.265625 -32.960938 26.75 -38.78125 31.71875 -44.375 C 36.695312 -49.976562 45.851562 -55.710938 59.1875 -61.578125 L 62.390625 -59.1875 C 56.335938 -55.988281 51.085938 -52.742188 46.640625 -49.453125 C 42.203125 -46.160156 39.984375 -42.296875 39.984375 -37.859375 C 39.984375 -32.171875 44.25 -29.328125 52.78125 -29.328125 L 86.109375 -29.328125 C 93.578125 -29.328125 100.460938 -28.257812 106.765625 -26.125 C 113.078125 -23.988281 118.1875 -20.609375 122.09375 -15.984375 C 126.007812 -11.367188 127.96875 -5.332031 127.96875 2.125 C 127.96875 10.476562 125.300781 18.296875 119.96875 25.578125 C 114.632812 32.867188 106.679688 38.78125 96.109375 43.3125 C 85.535156 47.851562 72.425781 50.125 56.78125 50.125 Z M 58.125 -56.78125 C 49.40625 -56.78125 41.492188 -58.242188 34.390625 -61.171875 C 27.285156 -64.109375 21.6875 -68.6875 17.59375 -74.90625 C 13.507812 -81.132812 11.46875 -89.132812 11.46875 -98.90625 C 11.46875 -108.675781 13.507812 -116.671875 17.59375 -122.890625 C 21.6875 -129.117188 27.285156 -133.695312 34.390625 -136.625 C 41.492188 -139.5625 49.40625 -141.03125 58.125 -141.03125 C 67.007812 -141.03125 74.960938 -139.5625 81.984375 -136.625 C 89.003906 -133.695312 94.554688 -129.117188 98.640625 -122.890625 C 102.722656 -116.671875 104.765625 -108.675781 104.765625 -98.90625 C 104.765625 -89.132812 102.722656 -81.132812 98.640625 -74.90625 C 94.554688 -68.6875 89.003906 -64.109375 81.984375 -61.171875 C 74.960938 -58.242188 67.007812 -56.78125 58.125 -56.78125 Z M 58.125 -61.578125 C 64.875 -61.578125 70.160156 -64.242188 73.984375 -69.578125 C 77.804688 -74.910156 79.71875 -84.6875 79.71875 -98.90625 C 79.71875 -113.125 77.804688 -122.898438 73.984375 -128.234375 C 70.160156 -133.566406 64.875 -136.234375 58.125 -136.234375 C 51.539062 -136.234375 46.289062 -133.566406 42.375 -128.234375 C 38.46875 -122.898438 36.515625 -113.125 36.515625 -98.90625 C 36.515625 -84.6875 38.46875 -74.910156 42.375 -69.578125 C 46.289062 -64.242188 51.539062 -61.578125 58.125 -61.578125 Z M 96.5 -118.90625 L 91.703125 -120.765625 C 94.191406 -126.804688 98.457031 -132.132812 104.5 -136.75 C 110.539062 -141.375 116.851562 -143.6875 123.4375 -143.6875 C 128.050781 -143.6875 131.78125 -142.398438 134.625 -139.828125 C 137.46875 -137.253906 138.890625 -133.390625 138.890625 -128.234375 C 138.890625 -122.722656 137.421875 -118.851562 134.484375 -116.625 C 131.554688 -114.40625 128.582031 -113.296875 125.5625 -113.296875 C 122.894531 -113.296875 120.40625 -114.226562 118.09375 -116.09375 C 115.789062 -117.96875 114.457031 -120.945312 114.09375 -125.03125 C 113.738281 -129.125 114.984375 -134.367188 117.828125 -140.765625 L 121.296875 -139.96875 C 113.835938 -137.125 108.503906 -134.144531 105.296875 -131.03125 C 102.097656 -127.914062 99.164062 -123.875 96.5 -118.90625 Z M 96.5 -118.90625 "/></g></g></g><g fill="#000000" fill-opacity="1"><g transform="translate(897.818, 941.139451)"><g><path d="M 45.59375 1.859375 C 38.300781 1.859375 31.988281 0.484375 26.65625 -2.265625 C 21.320312 -5.015625 17.273438 -8.878906 14.515625 -13.859375 C 11.765625 -18.835938 10.390625 -24.613281 10.390625 -31.1875 C 10.390625 -39.007812 12.210938 -45.40625 15.859375 -50.375 C 19.503906 -55.351562 24.171875 -59.351562 29.859375 -62.375 C 35.546875 -65.40625 41.539062 -67.941406 47.84375 -69.984375 C 54.15625 -72.023438 60.15625 -73.976562 65.84375 -75.84375 C 71.53125 -77.707031 76.195312 -79.882812 79.84375 -82.375 C 83.488281 -84.863281 85.3125 -88.148438 85.3125 -92.234375 L 85.3125 -108.765625 C 85.3125 -116.234375 84.195312 -121.921875 81.96875 -125.828125 C 79.75 -129.742188 76.773438 -132.367188 73.046875 -133.703125 C 69.316406 -135.035156 65.140625 -135.703125 60.515625 -135.703125 C 56.078125 -135.703125 51.320312 -135.078125 46.25 -133.828125 C 41.1875 -132.585938 37.144531 -130.007812 34.125 -126.09375 C 37.5 -125.382812 40.429688 -123.609375 42.921875 -120.765625 C 45.410156 -117.921875 46.65625 -114.28125 46.65625 -109.84375 C 46.65625 -105.394531 45.234375 -101.878906 42.390625 -99.296875 C 39.546875 -96.722656 35.898438 -95.4375 31.453125 -95.4375 C 26.304688 -95.4375 22.53125 -97.078125 20.125 -100.359375 C 17.726562 -103.648438 16.53125 -107.34375 16.53125 -111.4375 C 16.53125 -116.0625 17.679688 -119.796875 19.984375 -122.640625 C 22.296875 -125.484375 25.234375 -128.144531 28.796875 -130.625 C 32.878906 -133.46875 38.164062 -135.910156 44.65625 -137.953125 C 51.144531 -140.003906 58.472656 -141.03125 66.640625 -141.03125 C 73.929688 -141.03125 80.15625 -140.1875 85.3125 -138.5 C 90.46875 -136.8125 94.734375 -134.367188 98.109375 -131.171875 C 102.722656 -126.898438 105.738281 -121.695312 107.15625 -115.5625 C 108.582031 -109.4375 109.296875 -102.109375 109.296875 -93.578125 L 109.296875 -19.46875 C 109.296875 -15.019531 109.960938 -11.816406 111.296875 -9.859375 C 112.628906 -7.910156 114.71875 -6.9375 117.5625 -6.9375 C 119.519531 -6.9375 121.382812 -7.378906 123.15625 -8.265625 C 124.9375 -9.148438 127.070312 -10.570312 129.5625 -12.53125 L 132.5 -8 C 128.769531 -5.15625 125.210938 -2.800781 121.828125 -0.9375 C 118.453125 0.925781 113.921875 1.859375 108.234375 1.859375 C 103.078125 1.859375 98.8125 0.972656 95.4375 -0.796875 C 92.0625 -2.578125 89.53125 -5.195312 87.84375 -8.65625 C 86.15625 -12.125 85.3125 -16.523438 85.3125 -21.859375 C 80.507812 -13.859375 74.773438 -7.90625 68.109375 -4 C 61.453125 -0.09375 53.945312 1.859375 45.59375 1.859375 Z M 55.1875 -8.796875 C 61.050781 -8.796875 66.515625 -10.484375 71.578125 -13.859375 C 76.640625 -17.234375 81.21875 -22.300781 85.3125 -29.0625 L 85.3125 -81.3125 C 83.175781 -78.289062 80.0625 -75.753906 75.96875 -73.703125 C 71.882812 -71.660156 67.441406 -69.617188 62.640625 -67.578125 C 57.847656 -65.535156 53.273438 -63.132812 48.921875 -60.375 C 44.566406 -57.625 40.96875 -54.023438 38.125 -49.578125 C 35.28125 -45.140625 33.859375 -39.367188 33.859375 -32.265625 C 33.859375 -25.148438 35.769531 -19.457031 39.59375 -15.1875 C 43.414062 -10.925781 48.613281 -8.796875 55.1875 -8.796875 Z M 55.1875 -8.796875 "/></g></g></g><g fill="#000000" fill-opacity="1"><g transform="translate(1036.976678, 941.139451)"><g><path d="M 90.640625 -141.03125 C 95.441406 -141.03125 99.660156 -140.050781 103.296875 -138.09375 C 106.941406 -136.132812 109.785156 -133.597656 111.828125 -130.484375 C 113.878906 -127.378906 114.90625 -123.875 114.90625 -119.96875 C 114.90625 -115.519531 113.523438 -111.609375 110.765625 -108.234375 C 108.015625 -104.859375 104.328125 -103.171875 99.703125 -103.171875 C 95.972656 -103.171875 92.6875 -104.367188 89.84375 -106.765625 C 87 -109.171875 85.578125 -112.59375 85.578125 -117.03125 C 85.578125 -120.40625 86.507812 -123.289062 88.375 -125.6875 C 90.238281 -128.09375 92.328125 -130.007812 94.640625 -131.4375 C 93.398438 -133.207031 91.535156 -134.09375 89.046875 -134.09375 C 83.535156 -134.09375 78.46875 -132.445312 73.84375 -129.15625 C 69.226562 -125.875 65.316406 -121.65625 62.109375 -116.5 C 58.910156 -111.34375 56.421875 -105.875 54.640625 -100.09375 C 52.867188 -94.320312 51.984375 -88.953125 51.984375 -83.984375 L 51.984375 -27.453125 C 51.984375 -18.742188 54.515625 -12.921875 59.578125 -9.984375 C 64.648438 -7.054688 71.539062 -5.59375 80.25 -5.59375 L 80.25 0 C 76.15625 -0.175781 70.375 -0.394531 62.90625 -0.65625 C 55.445312 -0.925781 47.539062 -1.0625 39.1875 -1.0625 C 33.144531 -1.0625 27.144531 -0.925781 21.1875 -0.65625 C 15.238281 -0.394531 10.753906 -0.175781 7.734375 0 L 7.734375 -5.59375 C 15.015625 -5.59375 20.210938 -6.925781 23.328125 -9.59375 C 26.441406 -12.257812 28 -17.328125 28 -24.796875 L 28 -108.234375 C 28 -116.234375 26.578125 -122.144531 23.734375 -125.96875 C 20.890625 -129.789062 15.554688 -131.703125 7.734375 -131.703125 L 7.734375 -137.296875 C 13.421875 -136.765625 18.929688 -136.5 24.265625 -136.5 C 29.410156 -136.5 34.335938 -136.804688 39.046875 -137.421875 C 43.765625 -138.046875 48.078125 -138.984375 51.984375 -140.234375 L 51.984375 -106.90625 C 53.941406 -112.0625 56.738281 -117.257812 60.375 -122.5 C 64.019531 -127.738281 68.421875 -132.132812 73.578125 -135.6875 C 78.734375 -139.25 84.421875 -141.03125 90.640625 -141.03125 Z M 90.640625 -141.03125 "/></g></g></g><g fill="#000000" fill-opacity="1"><g transform="translate(1162.006117, 941.139451)"><g><path d="M 129.03125 -209.015625 L 129.03125 -29.0625 C 129.03125 -21.0625 130.492188 -15.148438 133.421875 -11.328125 C 136.359375 -7.503906 141.648438 -5.59375 149.296875 -5.59375 L 149.296875 0 C 143.785156 -0.53125 138.273438 -0.796875 132.765625 -0.796875 C 127.609375 -0.796875 122.675781 -0.53125 117.96875 0 C 113.257812 0.53125 108.945312 1.507812 105.03125 2.9375 L 105.03125 -177.015625 C 105.03125 -185.015625 103.609375 -190.925781 100.765625 -194.75 C 97.921875 -198.570312 92.59375 -200.484375 84.78125 -200.484375 L 84.78125 -206.078125 C 90.46875 -205.546875 95.976562 -205.28125 101.3125 -205.28125 C 106.457031 -205.28125 111.382812 -205.585938 116.09375 -206.203125 C 120.8125 -206.828125 125.125 -207.765625 129.03125 -209.015625 Z M 73.046875 -141.03125 C 80.867188 -141.03125 88.195312 -139.160156 95.03125 -135.421875 C 101.875 -131.691406 106.453125 -125.296875 108.765625 -116.234375 L 105.296875 -113.5625 C 102.816406 -121.03125 98.953125 -126.453125 93.703125 -129.828125 C 88.460938 -133.203125 82.285156 -134.890625 75.171875 -134.890625 C 64.691406 -134.890625 55.941406 -129.46875 48.921875 -118.625 C 41.898438 -107.789062 38.476562 -91.085938 38.65625 -68.515625 C 38.65625 -54.117188 40.03125 -42.164062 42.78125 -32.65625 C 45.539062 -23.144531 49.628906 -16.035156 55.046875 -11.328125 C 60.472656 -6.617188 67.09375 -4.265625 74.90625 -4.265625 C 82.375 -4.265625 89.128906 -7.460938 95.171875 -13.859375 C 101.210938 -20.253906 104.859375 -29.675781 106.109375 -42.125 L 109.296875 -38.390625 C 107.878906 -24.878906 103.570312 -14.476562 96.375 -7.1875 C 89.175781 0.09375 79.445312 3.734375 67.1875 3.734375 C 56.164062 3.734375 46.519531 1.066406 38.25 -4.265625 C 29.988281 -9.597656 23.679688 -17.59375 19.328125 -28.25 C 14.972656 -38.914062 12.796875 -52.335938 12.796875 -68.515625 C 12.796875 -84.691406 15.59375 -98.15625 21.1875 -108.90625 C 26.789062 -119.65625 34.164062 -127.695312 43.3125 -133.03125 C 52.46875 -138.363281 62.378906 -141.03125 73.046875 -141.03125 Z M 73.046875 -141.03125 "/></g></g></g><g fill="#000000" fill-opacity="1"><g transform="translate(1323.291444, 941.139451)"><g><path d="M 72.515625 -141.03125 C 88.148438 -141.03125 100.363281 -136.273438 109.15625 -126.765625 C 117.957031 -117.253906 122.359375 -102.457031 122.359375 -82.375 L 28.265625 -82.375 L 28 -87.4375 L 96.78125 -87.4375 C 97.132812 -96.144531 96.421875 -104.1875 94.640625 -111.5625 C 92.859375 -118.945312 90.054688 -124.859375 86.234375 -129.296875 C 82.421875 -133.742188 77.492188 -135.96875 71.453125 -135.96875 C 63.273438 -135.96875 56.03125 -131.878906 49.71875 -123.703125 C 43.40625 -115.523438 39.628906 -102.550781 38.390625 -84.78125 L 39.1875 -83.703125 C 38.832031 -81.046875 38.566406 -78.113281 38.390625 -74.90625 C 38.210938 -71.707031 38.125 -68.507812 38.125 -65.3125 C 38.125 -53.226562 40.078125 -42.832031 43.984375 -34.125 C 47.898438 -25.414062 53.007812 -18.796875 59.3125 -14.265625 C 65.625 -9.734375 72.15625 -7.46875 78.90625 -7.46875 C 84.238281 -7.46875 89.304688 -8.3125 94.109375 -10 C 98.910156 -11.6875 103.351562 -14.484375 107.4375 -18.390625 C 111.519531 -22.304688 115.070312 -27.550781 118.09375 -34.125 L 123.4375 -31.984375 C 121.476562 -26.117188 118.273438 -20.429688 113.828125 -14.921875 C 109.390625 -9.421875 103.789062 -4.9375 97.03125 -1.46875 C 90.28125 2 82.460938 3.734375 73.578125 3.734375 C 60.785156 3.734375 49.8125 0.800781 40.65625 -5.0625 C 31.5 -10.925781 24.476562 -19.054688 19.59375 -29.453125 C 14.707031 -39.847656 12.265625 -51.800781 12.265625 -65.3125 C 12.265625 -80.957031 14.75 -94.421875 19.71875 -105.703125 C 24.695312 -116.992188 31.71875 -125.703125 40.78125 -131.828125 C 49.851562 -137.960938 60.429688 -141.03125 72.515625 -141.03125 Z M 72.515625 -141.03125 "/></g></g></g></g></g></g></g></g></g></mask><clipPath id="b09dff373b"><path d="M 0 0 L 1500 0 L 1500 1480.390625 L 0 1480.390625 Z M 0 0 " clip-rule="nonzero"/></clipPath><clipPath id="e23bd1a3dd"><rect x="0" width="1500" y="0" height="1481"/></clipPath><clipPath id="301223b281"><rect x="0" width="1500" y="0" height="1481"/></clipPath><clipPath id="ffacce2831"><path d="M 1266.316406 524.59375 L 1466 524.59375 L 1466 714.84375 L 1266.316406 714.84375 Z M 1266.316406 524.59375 " clip-rule="nonzero"/></clipPath><clipPath id="412f092c13"><path d="M 1366.121094 524.59375 L 1389.683594 597.261719 L 1465.925781 597.261719 L 1404.242188 642.175781 L 1427.804688 714.84375 L 1366.121094 669.929688 L 1304.4375 714.84375 L 1328 642.175781 L 1266.316406 597.261719 L 1342.5625 597.261719 Z M 1366.121094 524.59375 " clip-rule="nonzero"/></clipPath><clipPath id="c8fb684b64"><path d="M 0.316406 0.59375 L 200 0.59375 L 200 190.84375 L 0.316406 190.84375 Z M 0.316406 0.59375 " clip-rule="nonzero"/></clipPath><clipPath id="31915d06c4"><path d="M 100.121094 0.59375 L 123.683594 73.261719 L 199.925781 73.261719 L 138.242188 118.175781 L 161.804688 190.84375 L 100.121094 145.929688 L 38.4375 190.84375 L 62 118.175781 L 0.316406 73.261719 L 76.5625 73.261719 Z M 100.121094 0.59375 " clip-rule="nonzero"/></clipPath><clipPath id="771956d0bf"><rect x="0" width="200" y="0" height="191"/></clipPath><clipPath id="bf365b3ac8"><path d="M 1049.542969 524.59375 L 1249.453125 524.59375 L 1249.453125 714.84375 L 1049.542969 714.84375 Z M 1049.542969 524.59375 " clip-rule="nonzero"/></clipPath><clipPath id="26f849a90d"><path d="M 1149.347656 524.59375 L 1172.90625 597.261719 L 1249.148438 597.261719 L 1187.46875 642.175781 L 1211.027344 714.84375 L 1149.347656 669.929688 L 1087.664062 714.84375 L 1111.222656 642.175781 L 1049.542969 597.261719 L 1125.785156 597.261719 Z M 1149.347656 524.59375 " clip-rule="nonzero"/></clipPath><clipPath id="71eb08f9cf"><path d="M 0.542969 0.59375 L 200.199219 0.59375 L 200.199219 190.84375 L 0.542969 190.84375 Z M 0.542969 0.59375 " clip-rule="nonzero"/></clipPath><clipPath id="74a852502a"><path d="M 100.347656 0.59375 L 123.90625 73.261719 L 200.148438 73.261719 L 138.46875 118.175781 L 162.027344 190.84375 L 100.347656 145.929688 L 38.664062 190.84375 L 62.222656 118.175781 L 0.542969 73.261719 L 76.785156 73.261719 Z M 100.347656 0.59375 " clip-rule="nonzero"/></clipPath><clipPath id="2092ff3807"><rect x="0" width="201" y="0" height="191"/></clipPath><clipPath id="fa08b7f7ae"><path d="M 832.765625 524.59375 L 1032.679688 524.59375 L 1032.679688 714.84375 L 832.765625 714.84375 Z M 832.765625 524.59375 " clip-rule="nonzero"/></clipPath><clipPath id="f95132bac7"><path d="M 932.570312 524.59375 L 956.128906 597.261719 L 1032.375 597.261719 L 970.691406 642.175781 L 994.253906 714.84375 L 932.570312 669.929688 L 870.886719 714.84375 L 894.449219 642.175781 L 832.765625 597.261719 L 909.007812 597.261719 Z M 932.570312 524.59375 " clip-rule="nonzero"/></clipPath><clipPath id="ea4bf72658"><path d="M 0.765625 0.59375 L 200.480469 0.59375 L 200.480469 190.84375 L 0.765625 190.84375 Z M 0.765625 0.59375 " clip-rule="nonzero"/></clipPath><clipPath id="2459dc4f4b"><path d="M 100.570312 0.59375 L 124.128906 73.261719 L 200.375 73.261719 L 138.691406 118.175781 L 162.253906 190.84375 L 100.570312 145.929688 L 38.886719 190.84375 L 62.449219 118.175781 L 0.765625 73.261719 L 77.007812 73.261719 Z M 100.570312 0.59375 " clip-rule="nonzero"/></clipPath><clipPath id="e73b1d8343"><rect x="0" width="201" y="0" height="191"/></clipPath><clipPath id="3cd9a81b81"><path d="M 616.3125 524.59375 L 816 524.59375 L 816 714.84375 L 616.3125 714.84375 Z M 616.3125 524.59375 " clip-rule="nonzero"/></clipPath><clipPath id="e711bf9e02"><path d="M 716.113281 524.59375 L 739.675781 597.261719 L 815.917969 597.261719 L 754.238281 642.175781 L 777.796875 714.84375 L 716.113281 669.929688 L 654.433594 714.84375 L 677.992188 642.175781 L 616.3125 597.261719 L 692.554688 597.261719 Z M 716.113281 524.59375 " clip-rule="nonzero"/></clipPath><clipPath id="0b8c545590"><path d="M 0.3125 0.59375 L 200 0.59375 L 200 190.84375 L 0.3125 190.84375 Z M 0.3125 0.59375 " clip-rule="nonzero"/></clipPath><clipPath id="ca764e6edc"><path d="M 100.113281 0.59375 L 123.675781 73.261719 L 199.917969 73.261719 L 138.238281 118.175781 L 161.796875 190.84375 L 100.113281 145.929688 L 38.433594 190.84375 L 61.992188 118.175781 L 0.3125 73.261719 L 76.554688 73.261719 Z M 100.113281 0.59375 " clip-rule="nonzero"/></clipPath><clipPath id="178e3f9d9e"><rect x="0" width="200" y="0" height="191"/></clipPath></defs><rect x="-150" width="1800" fill="#ffffff" y="-149.999993" height="1799.99992" fill-opacity="1"/><rect x="-150" width="1800" fill="#ffffff" y="-149.999993" height="1799.99992" fill-opacity="1"/><g clip-path="url(#bcf7a770c0)"><g transform="matrix(1, 0, 0, 1, 0, 0.000000000000112861)"><g clip-path="url(#301223b281)"><g clip-path="url(#462e14d44d)"><g mask="url(#470e434d82)"><g transform="matrix(1, 0, 0, 1, 0, 0.000000000000112861)"><g clip-path="url(#e23bd1a3dd)"><g clip-path="url(#b09dff373b)"><path fill="url(#d6a893180f)" d="M 0 0 L 0 1480.390625 L 1500 1480.390625 L 1500 0 Z M 0 0 " fill-rule="nonzero"/></g></g></g></g></g></g></g></g><g clip-path="url(#ffacce2831)"><g clip-path="url(#412f092c13)"><g transform="matrix(1, 0, 0, 1, 1266, 524)"><g clip-path="url(#771956d0bf)"><g clip-path="url(#c8fb684b64)"><g clip-path="url(#31915d06c4)"><path fill="#f3cb51" d="M 0.316406 0.59375 L 200.230469 0.59375 L 200.230469 190.84375 L 0.316406 190.84375 Z M 0.316406 0.59375 " fill-opacity="1" fill-rule="nonzero"/></g></g></g></g></g></g><g clip-path="url(#bf365b3ac8)"><g clip-path="url(#26f849a90d)"><g transform="matrix(1, 0, 0, 1, 1049, 524)"><g clip-path="url(#2092ff3807)"><g clip-path="url(#71eb08f9cf)"><g clip-path="url(#74a852502a)"><path fill="#f3cb51" d="M 0.542969 0.59375 L 200.453125 0.59375 L 200.453125 190.84375 L 0.542969 190.84375 Z M 0.542969 0.59375 " fill-opacity="1" fill-rule="nonzero"/></g></g></g></g></g></g><g clip-path="url(#fa08b7f7ae)"><g clip-path="url(#f95132bac7)"><g transform="matrix(1, 0, 0, 1, 832, 524)"><g clip-path="url(#e73b1d8343)"><g clip-path="url(#ea4bf72658)"><g clip-path="url(#2459dc4f4b)"><path fill="#f3cb51" d="M 0.765625 0.59375 L 200.679688 0.59375 L 200.679688 190.84375 L 0.765625 190.84375 Z M 0.765625 0.59375 " fill-opacity="1" fill-rule="nonzero"/></g></g></g></g></g></g><g clip-path="url(#3cd9a81b81)"><g clip-path="url(#e711bf9e02)"><g transform="matrix(1, 0, 0, 1, 616, 524)"><g clip-path="url(#178e3f9d9e)"><g clip-path="url(#0b8c545590)"><g clip-path="url(#ca764e6edc)"><path fill="#f3cb51" d="M 0.3125 0.59375 L 200.222656 0.59375 L 200.222656 190.84375 L 0.3125 190.84375 Z M 0.3125 0.59375 " fill-opacity="1" fill-rule="nonzero"/></g></g></g></g></g></g></svg>