<svg xmlns="http://www.w3.org/2000/svg" xmlns:xlink="http://www.w3.org/1999/xlink" width="2000" zoomAndPan="magnify" viewBox="0 0 1500 1499.999933" height="2000" preserveAspectRatio="xMidYMid meet" version="1.0"><defs><filter x="0%" y="0%" width="100%" height="100%" id="31c96e281f"><feColorMatrix values="0 0 0 0 1 0 0 0 0 1 0 0 0 0 1 0 0 0 1 0" color-interpolation-filters="sRGB"/></filter><g/><clipPath id="782304e106"><path d="M 0 0 L 1500 0 L 1500 1500 L 0 1500 Z M 0 0 " clip-rule="nonzero"/></clipPath><linearGradient x1="0.257192" gradientTransform="matrix(1.198794, 0, 0, 1.199351, -0.308287, 483.49033)" y1="202" x2="1251.514806" gradientUnits="userSpaceOnUse" y2="202" id="4e239d97e1"><stop stop-opacity="1" stop-color="rgb(65.106201%, 65.106201%, 65.106201%)" offset="0"/><stop stop-opacity="1" stop-color="rgb(65.242004%, 65.242004%, 65.242004%)" offset="0.0078125"/><stop stop-opacity="1" stop-color="rgb(65.515137%, 65.515137%, 65.515137%)" offset="0.015625"/><stop stop-opacity="1" stop-color="rgb(65.788269%, 65.788269%, 65.788269%)" offset="0.0234375"/><stop stop-opacity="1" stop-color="rgb(66.061401%, 66.061401%, 66.061401%)" offset="0.03125"/><stop stop-opacity="1" stop-color="rgb(66.334534%, 66.334534%, 66.334534%)" offset="0.0390625"/><stop stop-opacity="1" stop-color="rgb(66.607666%, 66.607666%, 66.607666%)" offset="0.046875"/><stop stop-opacity="1" stop-color="rgb(66.880798%, 66.880798%, 66.880798%)" offset="0.0546875"/><stop stop-opacity="1" stop-color="rgb(67.152405%, 67.152405%, 67.152405%)" offset="0.0625"/><stop stop-opacity="1" stop-color="rgb(67.425537%, 67.425537%, 67.425537%)" offset="0.0703125"/><stop stop-opacity="1" stop-color="rgb(67.698669%, 67.698669%, 67.698669%)" offset="0.078125"/><stop stop-opacity="1" stop-color="rgb(67.971802%, 67.971802%, 67.971802%)" offset="0.0859375"/><stop stop-opacity="1" stop-color="rgb(68.244934%, 68.244934%, 68.244934%)" offset="0.09375"/><stop stop-opacity="1" stop-color="rgb(68.518066%, 68.518066%, 68.518066%)" offset="0.101562"/><stop stop-opacity="1" stop-color="rgb(68.791199%, 68.791199%, 68.791199%)" offset="0.109375"/><stop stop-opacity="1" stop-color="rgb(69.064331%, 69.064331%, 69.064331%)" offset="0.117188"/><stop stop-opacity="1" stop-color="rgb(69.337463%, 69.337463%, 69.337463%)" offset="0.125"/><stop stop-opacity="1" stop-color="rgb(69.610596%, 69.610596%, 69.610596%)" offset="0.132812"/><stop stop-opacity="1" stop-color="rgb(69.882202%, 69.882202%, 69.882202%)" offset="0.140625"/><stop stop-opacity="1" stop-color="rgb(70.155334%, 70.155334%, 70.155334%)" offset="0.148438"/><stop stop-opacity="1" stop-color="rgb(70.428467%, 70.428467%, 70.428467%)" offset="0.15625"/><stop stop-opacity="1" stop-color="rgb(70.701599%, 70.701599%, 70.701599%)" offset="0.164062"/><stop stop-opacity="1" stop-color="rgb(70.974731%, 70.974731%, 70.974731%)" offset="0.171875"/><stop stop-opacity="1" stop-color="rgb(71.247864%, 71.247864%, 71.247864%)" offset="0.179688"/><stop stop-opacity="1" stop-color="rgb(71.520996%, 71.520996%, 71.520996%)" offset="0.1875"/><stop stop-opacity="1" stop-color="rgb(71.794128%, 71.794128%, 71.794128%)" offset="0.195313"/><stop stop-opacity="1" stop-color="rgb(72.067261%, 72.067261%, 72.067261%)" offset="0.203125"/><stop stop-opacity="1" stop-color="rgb(72.340393%, 72.340393%, 72.340393%)" offset="0.210938"/><stop stop-opacity="1" stop-color="rgb(72.612%, 72.612%, 72.612%)" offset="0.21875"/><stop stop-opacity="1" stop-color="rgb(72.885132%, 72.885132%, 72.885132%)" offset="0.226563"/><stop stop-opacity="1" stop-color="rgb(73.158264%, 73.158264%, 73.158264%)" offset="0.234375"/><stop stop-opacity="1" stop-color="rgb(73.431396%, 73.431396%, 73.431396%)" offset="0.242188"/><stop stop-opacity="1" stop-color="rgb(73.704529%, 73.704529%, 73.704529%)" offset="0.25"/><stop stop-opacity="1" stop-color="rgb(73.977661%, 73.977661%, 73.977661%)" offset="0.257813"/><stop stop-opacity="1" stop-color="rgb(74.250793%, 74.250793%, 74.250793%)" offset="0.265625"/><stop stop-opacity="1" stop-color="rgb(74.523926%, 74.523926%, 74.523926%)" offset="0.273438"/><stop stop-opacity="1" stop-color="rgb(74.797058%, 74.797058%, 74.797058%)" offset="0.28125"/><stop stop-opacity="1" stop-color="rgb(75.07019%, 75.07019%, 75.07019%)" offset="0.289063"/><stop stop-opacity="1" stop-color="rgb(75.341797%, 75.341797%, 75.341797%)" offset="0.296875"/><stop stop-opacity="1" stop-color="rgb(75.614929%, 75.614929%, 75.614929%)" offset="0.304688"/><stop stop-opacity="1" stop-color="rgb(75.888062%, 75.888062%, 75.888062%)" offset="0.3125"/><stop stop-opacity="1" stop-color="rgb(76.161194%, 76.161194%, 76.161194%)" offset="0.320313"/><stop stop-opacity="1" stop-color="rgb(76.434326%, 76.434326%, 76.434326%)" offset="0.328125"/><stop stop-opacity="1" stop-color="rgb(76.707458%, 76.707458%, 76.707458%)" offset="0.335938"/><stop stop-opacity="1" stop-color="rgb(76.980591%, 76.980591%, 76.980591%)" offset="0.34375"/><stop stop-opacity="1" stop-color="rgb(77.253723%, 77.253723%, 77.253723%)" offset="0.351563"/><stop stop-opacity="1" stop-color="rgb(77.526855%, 77.526855%, 77.526855%)" offset="0.359375"/><stop stop-opacity="1" stop-color="rgb(77.799988%, 77.799988%, 77.799988%)" offset="0.367188"/><stop stop-opacity="1" stop-color="rgb(78.071594%, 78.071594%, 78.071594%)" offset="0.375"/><stop stop-opacity="1" stop-color="rgb(78.344727%, 78.344727%, 78.344727%)" offset="0.382813"/><stop stop-opacity="1" stop-color="rgb(78.617859%, 78.617859%, 78.617859%)" offset="0.390625"/><stop stop-opacity="1" stop-color="rgb(78.890991%, 78.890991%, 78.890991%)" offset="0.398438"/><stop stop-opacity="1" stop-color="rgb(79.164124%, 79.164124%, 79.164124%)" offset="0.40625"/><stop stop-opacity="1" stop-color="rgb(79.437256%, 79.437256%, 79.437256%)" offset="0.414063"/><stop stop-opacity="1" stop-color="rgb(79.710388%, 79.710388%, 79.710388%)" offset="0.421875"/><stop stop-opacity="1" stop-color="rgb(79.983521%, 79.983521%, 79.983521%)" offset="0.429688"/><stop stop-opacity="1" stop-color="rgb(80.256653%, 80.256653%, 80.256653%)" offset="0.4375"/><stop stop-opacity="1" stop-color="rgb(80.528259%, 80.528259%, 80.528259%)" offset="0.445313"/><stop stop-opacity="1" stop-color="rgb(80.801392%, 80.801392%, 80.801392%)" offset="0.453125"/><stop stop-opacity="1" stop-color="rgb(81.074524%, 81.074524%, 81.074524%)" offset="0.460938"/><stop stop-opacity="1" stop-color="rgb(81.347656%, 81.347656%, 81.347656%)" offset="0.46875"/><stop stop-opacity="1" stop-color="rgb(81.620789%, 81.620789%, 81.620789%)" offset="0.476563"/><stop stop-opacity="1" stop-color="rgb(81.893921%, 81.893921%, 81.893921%)" offset="0.484375"/><stop stop-opacity="1" stop-color="rgb(82.167053%, 82.167053%, 82.167053%)" offset="0.492188"/><stop stop-opacity="1" stop-color="rgb(82.440186%, 82.440186%, 82.440186%)" offset="0.5"/><stop stop-opacity="1" stop-color="rgb(82.713318%, 82.713318%, 82.713318%)" offset="0.507812"/><stop stop-opacity="1" stop-color="rgb(82.98645%, 82.98645%, 82.98645%)" offset="0.515625"/><stop stop-opacity="1" stop-color="rgb(83.258057%, 83.258057%, 83.258057%)" offset="0.523438"/><stop stop-opacity="1" stop-color="rgb(83.531189%, 83.531189%, 83.531189%)" offset="0.53125"/><stop stop-opacity="1" stop-color="rgb(83.804321%, 83.804321%, 83.804321%)" offset="0.539063"/><stop stop-opacity="1" stop-color="rgb(84.077454%, 84.077454%, 84.077454%)" offset="0.546875"/><stop stop-opacity="1" stop-color="rgb(84.350586%, 84.350586%, 84.350586%)" offset="0.554688"/><stop stop-opacity="1" stop-color="rgb(84.623718%, 84.623718%, 84.623718%)" offset="0.5625"/><stop stop-opacity="1" stop-color="rgb(84.896851%, 84.896851%, 84.896851%)" offset="0.570312"/><stop stop-opacity="1" stop-color="rgb(85.169983%, 85.169983%, 85.169983%)" offset="0.578125"/><stop stop-opacity="1" stop-color="rgb(85.443115%, 85.443115%, 85.443115%)" offset="0.585938"/><stop stop-opacity="1" stop-color="rgb(85.716248%, 85.716248%, 85.716248%)" offset="0.59375"/><stop stop-opacity="1" stop-color="rgb(85.987854%, 85.987854%, 85.987854%)" offset="0.601562"/><stop stop-opacity="1" stop-color="rgb(86.260986%, 86.260986%, 86.260986%)" offset="0.609375"/><stop stop-opacity="1" stop-color="rgb(86.534119%, 86.534119%, 86.534119%)" offset="0.617188"/><stop stop-opacity="1" stop-color="rgb(86.807251%, 86.807251%, 86.807251%)" offset="0.625"/><stop stop-opacity="1" stop-color="rgb(87.080383%, 87.080383%, 87.080383%)" offset="0.632812"/><stop stop-opacity="1" stop-color="rgb(87.353516%, 87.353516%, 87.353516%)" offset="0.640625"/><stop stop-opacity="1" stop-color="rgb(87.626648%, 87.626648%, 87.626648%)" offset="0.648438"/><stop stop-opacity="1" stop-color="rgb(87.89978%, 87.89978%, 87.89978%)" offset="0.65625"/><stop stop-opacity="1" stop-color="rgb(88.172913%, 88.172913%, 88.172913%)" offset="0.664062"/><stop stop-opacity="1" stop-color="rgb(88.446045%, 88.446045%, 88.446045%)" offset="0.671875"/><stop stop-opacity="1" stop-color="rgb(88.717651%, 88.717651%, 88.717651%)" offset="0.679688"/><stop stop-opacity="1" stop-color="rgb(88.990784%, 88.990784%, 88.990784%)" offset="0.6875"/><stop stop-opacity="1" stop-color="rgb(89.263916%, 89.263916%, 89.263916%)" offset="0.695312"/><stop stop-opacity="1" stop-color="rgb(89.537048%, 89.537048%, 89.537048%)" offset="0.703125"/><stop stop-opacity="1" stop-color="rgb(89.810181%, 89.810181%, 89.810181%)" offset="0.710937"/><stop stop-opacity="1" stop-color="rgb(90.083313%, 90.083313%, 90.083313%)" offset="0.71875"/><stop stop-opacity="1" stop-color="rgb(90.356445%, 90.356445%, 90.356445%)" offset="0.726562"/><stop stop-opacity="1" stop-color="rgb(90.629578%, 90.629578%, 90.629578%)" offset="0.734375"/><stop stop-opacity="1" stop-color="rgb(90.90271%, 90.90271%, 90.90271%)" offset="0.742188"/><stop stop-opacity="1" stop-color="rgb(91.175842%, 91.175842%, 91.175842%)" offset="0.75"/><stop stop-opacity="1" stop-color="rgb(91.447449%, 91.447449%, 91.447449%)" offset="0.757812"/><stop stop-opacity="1" stop-color="rgb(91.720581%, 91.720581%, 91.720581%)" offset="0.765625"/><stop stop-opacity="1" stop-color="rgb(91.993713%, 91.993713%, 91.993713%)" offset="0.773438"/><stop stop-opacity="1" stop-color="rgb(92.266846%, 92.266846%, 92.266846%)" offset="0.78125"/><stop stop-opacity="1" stop-color="rgb(92.539978%, 92.539978%, 92.539978%)" offset="0.789063"/><stop stop-opacity="1" stop-color="rgb(92.81311%, 92.81311%, 92.81311%)" offset="0.796875"/><stop stop-opacity="1" stop-color="rgb(93.086243%, 93.086243%, 93.086243%)" offset="0.804688"/><stop stop-opacity="1" stop-color="rgb(93.359375%, 93.359375%, 93.359375%)" offset="0.8125"/><stop stop-opacity="1" stop-color="rgb(93.632507%, 93.632507%, 93.632507%)" offset="0.820312"/><stop stop-opacity="1" stop-color="rgb(93.90564%, 93.90564%, 93.90564%)" offset="0.828125"/><stop stop-opacity="1" stop-color="rgb(94.177246%, 94.177246%, 94.177246%)" offset="0.835938"/><stop stop-opacity="1" stop-color="rgb(94.450378%, 94.450378%, 94.450378%)" offset="0.84375"/><stop stop-opacity="1" stop-color="rgb(94.723511%, 94.723511%, 94.723511%)" offset="0.851562"/><stop stop-opacity="1" stop-color="rgb(94.996643%, 94.996643%, 94.996643%)" offset="0.859375"/><stop stop-opacity="1" stop-color="rgb(95.269775%, 95.269775%, 95.269775%)" offset="0.867188"/><stop stop-opacity="1" stop-color="rgb(95.542908%, 95.542908%, 95.542908%)" offset="0.875"/><stop stop-opacity="1" stop-color="rgb(95.81604%, 95.81604%, 95.81604%)" offset="0.882812"/><stop stop-opacity="1" stop-color="rgb(96.089172%, 96.089172%, 96.089172%)" offset="0.890625"/><stop stop-opacity="1" stop-color="rgb(96.362305%, 96.362305%, 96.362305%)" offset="0.898438"/><stop stop-opacity="1" stop-color="rgb(96.635437%, 96.635437%, 96.635437%)" offset="0.90625"/><stop stop-opacity="1" stop-color="rgb(96.907043%, 96.907043%, 96.907043%)" offset="0.914062"/><stop stop-opacity="1" stop-color="rgb(97.180176%, 97.180176%, 97.180176%)" offset="0.921875"/><stop stop-opacity="1" stop-color="rgb(97.453308%, 97.453308%, 97.453308%)" offset="0.929688"/><stop stop-opacity="1" stop-color="rgb(97.72644%, 97.72644%, 97.72644%)" offset="0.9375"/><stop stop-opacity="1" stop-color="rgb(97.999573%, 97.999573%, 97.999573%)" offset="0.945312"/><stop stop-opacity="1" stop-color="rgb(98.272705%, 98.272705%, 98.272705%)" offset="0.953125"/><stop stop-opacity="1" stop-color="rgb(98.545837%, 98.545837%, 98.545837%)" offset="0.960937"/><stop stop-opacity="1" stop-color="rgb(98.81897%, 98.81897%, 98.81897%)" offset="0.96875"/><stop stop-opacity="1" stop-color="rgb(99.092102%, 99.092102%, 99.092102%)" offset="0.976562"/><stop stop-opacity="1" stop-color="rgb(99.365234%, 99.365234%, 99.365234%)" offset="0.984375"/><stop stop-opacity="1" stop-color="rgb(99.636841%, 99.636841%, 99.636841%)" offset="0.992188"/><stop stop-opacity="1" stop-color="rgb(99.887085%, 99.887085%, 99.887085%)" offset="1"/></linearGradient><clipPath id="24db09d501"><rect x="0" width="1500" y="0" height="1500"/></clipPath><clipPath id="2c4da740f7"><path d="M 0 522 L 178 522 L 178 722 L 0 722 Z M 0 522 " clip-rule="nonzero"/></clipPath><clipPath id="295dc3b6c0"><path d="M 0 762 L 178 762 L 178 962 L 0 962 Z M 0 762 " clip-rule="nonzero"/></clipPath><clipPath id="22ca1b6154"><rect x="0" width="1500" y="0" height="1500"/></clipPath><clipPath id="262dbe2cf7"><rect x="0" width="1500" y="0" height="1500"/></clipPath><mask id="e8fca6206d"><g filter="url(#31c96e281f)"><g transform="matrix(1, 0, 0, 1, 0, 0.000000000000112861)"><g clip-path="url(#262dbe2cf7)"><g transform="matrix(1, 0, 0, 1, 0, 0.000000000000112861)"><g clip-path="url(#22ca1b6154)"><g clip-path="url(#2c4da740f7)"><g fill="#000000" fill-opacity="1"><g transform="translate(0.00003335, 719.739983)"><g><path d="M 177.90625 -197.734375 L 177.90625 -192.140625 C 174.363281 -191.398438 170.59375 -189.257812 166.59375 -185.71875 C 162.59375 -182.1875 159.007812 -176.226562 155.84375 -167.84375 L 90.203125 1.390625 C 89.835938 1.390625 89.46875 1.390625 89.09375 1.390625 C 88.71875 1.390625 88.34375 1.390625 87.96875 1.390625 C 87.601562 1.390625 87.234375 1.390625 86.859375 1.390625 C 86.484375 1.390625 86.109375 1.390625 85.734375 1.390625 L 17.59375 -174.265625 C 14.800781 -181.347656 11.632812 -186.050781 8.09375 -188.375 C 4.5625 -190.695312 1.304688 -191.953125 -1.671875 -192.140625 L -1.671875 -197.734375 C 2.046875 -197.546875 6.648438 -197.359375 12.140625 -197.171875 C 17.640625 -196.984375 22.992188 -196.890625 28.203125 -196.890625 C 35.460938 -196.890625 42.257812 -196.984375 48.59375 -197.171875 C 54.925781 -197.359375 60.046875 -197.546875 63.953125 -197.734375 L 63.953125 -192.140625 C 57.617188 -191.953125 52.820312 -191.207031 49.5625 -189.90625 C 46.3125 -188.601562 44.546875 -186.320312 44.265625 -183.0625 C 43.984375 -179.8125 45.054688 -175.019531 47.484375 -168.6875 L 99.421875 -31 L 94.953125 -26.25 L 143.546875 -152.484375 C 147.460938 -162.535156 149.328125 -170.398438 149.140625 -176.078125 C 148.953125 -181.765625 146.804688 -185.816406 142.703125 -188.234375 C 138.609375 -190.648438 132.65625 -191.953125 124.84375 -192.140625 L 124.84375 -197.734375 C 130.238281 -197.546875 135.726562 -197.359375 141.3125 -197.171875 C 146.894531 -196.984375 152.109375 -196.890625 156.953125 -196.890625 C 161.796875 -196.890625 165.800781 -196.984375 168.96875 -197.171875 C 172.132812 -197.359375 175.113281 -197.546875 177.90625 -197.734375 Z M 177.90625 -197.734375 "/></g></g></g></g><g fill="#000000" fill-opacity="1"><g transform="translate(182.640571, 719.739983)"><g><path d="M 39.9375 -213.65625 C 44.769531 -213.65625 48.953125 -211.882812 52.484375 -208.34375 C 56.023438 -204.800781 57.796875 -200.613281 57.796875 -195.78125 C 57.796875 -190.9375 56.023438 -186.742188 52.484375 -183.203125 C 48.953125 -179.671875 44.769531 -177.90625 39.9375 -177.90625 C 35.09375 -177.90625 30.898438 -179.671875 27.359375 -183.203125 C 23.828125 -186.742188 22.0625 -190.9375 22.0625 -195.78125 C 22.0625 -200.613281 23.828125 -204.800781 27.359375 -208.34375 C 30.898438 -211.882812 35.09375 -213.65625 39.9375 -213.65625 Z M 54.453125 -146.90625 L 54.453125 -25.96875 C 54.453125 -18.15625 56.082031 -12.847656 59.34375 -10.046875 C 62.601562 -7.253906 68.050781 -5.859375 75.6875 -5.859375 L 75.6875 0 C 72.519531 -0.1875 67.722656 -0.414062 61.296875 -0.6875 C 54.878906 -0.96875 48.410156 -1.109375 41.890625 -1.109375 C 35.554688 -1.109375 29.128906 -0.96875 22.609375 -0.6875 C 16.097656 -0.414062 11.257812 -0.1875 8.09375 0 L 8.09375 -5.859375 C 15.726562 -5.859375 21.175781 -7.253906 24.4375 -10.046875 C 27.695312 -12.847656 29.328125 -18.15625 29.328125 -25.96875 L 29.328125 -113.390625 C 29.328125 -121.765625 27.835938 -127.953125 24.859375 -131.953125 C 21.878906 -135.960938 16.289062 -137.96875 8.09375 -137.96875 L 8.09375 -143.828125 C 14.050781 -143.265625 19.828125 -142.984375 25.421875 -142.984375 C 30.816406 -142.984375 35.976562 -143.3125 40.90625 -143.96875 C 45.84375 -144.625 50.359375 -145.601562 54.453125 -146.90625 Z M 54.453125 -146.90625 "/></g></g></g><g fill="#000000" fill-opacity="1"><g transform="translate(271.16837, 719.739983)"><g><path d="M 52.5 -218.953125 L 52.5 -25.96875 C 52.5 -18.15625 54.128906 -12.847656 57.390625 -10.046875 C 60.648438 -7.253906 66.097656 -5.859375 73.734375 -5.859375 L 73.734375 0 C 70.566406 -0.1875 65.769531 -0.414062 59.34375 -0.6875 C 52.925781 -0.96875 46.457031 -1.109375 39.9375 -1.109375 C 33.601562 -1.109375 27.175781 -0.96875 20.65625 -0.6875 C 14.144531 -0.414062 9.304688 -0.1875 6.140625 0 L 6.140625 -5.859375 C 13.773438 -5.859375 19.222656 -7.253906 22.484375 -10.046875 C 25.742188 -12.847656 27.375 -18.15625 27.375 -25.96875 L 27.375 -185.4375 C 27.375 -193.820312 25.882812 -200.015625 22.90625 -204.015625 C 19.925781 -208.015625 14.335938 -210.015625 6.140625 -210.015625 L 6.140625 -215.890625 C 12.097656 -215.328125 17.867188 -215.046875 23.453125 -215.046875 C 28.859375 -215.046875 34.023438 -215.367188 38.953125 -216.015625 C 43.890625 -216.671875 48.40625 -217.648438 52.5 -218.953125 Z M 52.5 -218.953125 "/></g></g></g><g fill="#000000" fill-opacity="1"><g transform="translate(357.741309, 719.739983)"><g><path d="M 52.5 -218.953125 L 52.5 -25.96875 C 52.5 -18.15625 54.128906 -12.847656 57.390625 -10.046875 C 60.648438 -7.253906 66.097656 -5.859375 73.734375 -5.859375 L 73.734375 0 C 70.566406 -0.1875 65.769531 -0.414062 59.34375 -0.6875 C 52.925781 -0.96875 46.457031 -1.109375 39.9375 -1.109375 C 33.601562 -1.109375 27.175781 -0.96875 20.65625 -0.6875 C 14.144531 -0.414062 9.304688 -0.1875 6.140625 0 L 6.140625 -5.859375 C 13.773438 -5.859375 19.222656 -7.253906 22.484375 -10.046875 C 25.742188 -12.847656 27.375 -18.15625 27.375 -25.96875 L 27.375 -185.4375 C 27.375 -193.820312 25.882812 -200.015625 22.90625 -204.015625 C 19.925781 -208.015625 14.335938 -210.015625 6.140625 -210.015625 L 6.140625 -215.890625 C 12.097656 -215.328125 17.867188 -215.046875 23.453125 -215.046875 C 28.859375 -215.046875 34.023438 -215.367188 38.953125 -216.015625 C 43.890625 -216.671875 48.40625 -217.648438 52.5 -218.953125 Z M 52.5 -218.953125 "/></g></g></g><g fill="#000000" fill-opacity="1"><g transform="translate(444.314248, 719.739983)"><g><path d="M 47.75 1.953125 C 40.125 1.953125 33.515625 0.507812 27.921875 -2.375 C 22.335938 -5.257812 18.101562 -9.304688 15.21875 -14.515625 C 12.332031 -19.734375 10.890625 -25.785156 10.890625 -32.671875 C 10.890625 -40.867188 12.796875 -47.570312 16.609375 -52.78125 C 20.429688 -58 25.320312 -62.1875 31.28125 -65.34375 C 37.238281 -68.507812 43.519531 -71.160156 50.125 -73.296875 C 56.738281 -75.441406 63.023438 -77.492188 68.984375 -79.453125 C 74.941406 -81.410156 79.828125 -83.691406 83.640625 -86.296875 C 87.460938 -88.898438 89.375 -92.34375 89.375 -96.625 L 89.375 -113.953125 C 89.375 -121.765625 88.207031 -127.71875 85.875 -131.8125 C 83.550781 -135.914062 80.429688 -138.664062 76.515625 -140.0625 C 72.609375 -141.457031 68.234375 -142.15625 63.390625 -142.15625 C 58.742188 -142.15625 53.765625 -141.503906 48.453125 -140.203125 C 43.148438 -138.898438 38.914062 -136.195312 35.75 -132.09375 C 39.28125 -131.351562 42.347656 -129.492188 44.953125 -126.515625 C 47.566406 -123.535156 48.875 -119.71875 48.875 -115.0625 C 48.875 -110.40625 47.382812 -106.726562 44.40625 -104.03125 C 41.425781 -101.332031 37.609375 -99.984375 32.953125 -99.984375 C 27.554688 -99.984375 23.597656 -101.703125 21.078125 -105.140625 C 18.566406 -108.585938 17.3125 -112.453125 17.3125 -116.734375 C 17.3125 -121.578125 18.519531 -125.488281 20.9375 -128.46875 C 23.363281 -131.445312 26.4375 -134.238281 30.15625 -136.84375 C 34.4375 -139.820312 39.972656 -142.378906 46.765625 -144.515625 C 53.566406 -146.660156 61.25 -147.734375 69.8125 -147.734375 C 77.445312 -147.734375 83.960938 -146.847656 89.359375 -145.078125 C 94.765625 -143.316406 99.238281 -140.757812 102.78125 -137.40625 C 107.613281 -132.9375 110.773438 -127.488281 112.265625 -121.0625 C 113.753906 -114.644531 114.5 -106.96875 114.5 -98.03125 L 114.5 -20.390625 C 114.5 -15.734375 115.195312 -12.378906 116.59375 -10.328125 C 117.988281 -8.285156 120.175781 -7.265625 123.15625 -7.265625 C 125.207031 -7.265625 127.164062 -7.726562 129.03125 -8.65625 C 130.894531 -9.582031 133.128906 -11.070312 135.734375 -13.125 L 138.796875 -8.375 C 134.890625 -5.394531 131.164062 -2.925781 127.625 -0.96875 C 124.09375 0.976562 119.347656 1.953125 113.390625 1.953125 C 107.984375 1.953125 103.507812 1.023438 99.96875 -0.828125 C 96.4375 -2.691406 93.785156 -5.4375 92.015625 -9.0625 C 90.253906 -12.695312 89.375 -17.3125 89.375 -22.90625 C 84.34375 -14.519531 78.335938 -8.28125 71.359375 -4.1875 C 64.378906 -0.09375 56.507812 1.953125 47.75 1.953125 Z M 57.8125 -9.21875 C 63.957031 -9.21875 69.679688 -10.984375 74.984375 -14.515625 C 80.296875 -18.054688 85.09375 -23.363281 89.375 -30.4375 L 89.375 -85.1875 C 87.132812 -82.019531 83.875 -79.363281 79.59375 -77.21875 C 75.3125 -75.082031 70.65625 -72.941406 65.625 -70.796875 C 60.601562 -68.660156 55.8125 -66.144531 51.25 -63.25 C 46.6875 -60.363281 42.914062 -56.59375 39.9375 -51.9375 C 36.957031 -47.289062 35.46875 -41.242188 35.46875 -33.796875 C 35.46875 -26.347656 37.46875 -20.390625 41.46875 -15.921875 C 45.476562 -11.453125 50.925781 -9.21875 57.8125 -9.21875 Z M 57.8125 -9.21875 "/></g></g></g><g clip-path="url(#295dc3b6c0)"><g fill="#000000" fill-opacity="1"><g transform="translate(0.00003335, 961.94802)"><g><path d="M 90.203125 -199.125 L 158.359375 -23.453125 C 161.148438 -16.378906 164.3125 -11.675781 167.84375 -9.34375 C 171.382812 -7.019531 174.644531 -5.765625 177.625 -5.578125 L 177.625 0 C 173.894531 -0.375 169.332031 -0.609375 163.9375 -0.703125 C 158.539062 -0.796875 153.140625 -0.84375 147.734375 -0.84375 C 140.472656 -0.84375 133.675781 -0.796875 127.34375 -0.703125 C 121.019531 -0.609375 115.898438 -0.375 111.984375 0 L 111.984375 -5.578125 C 121.484375 -5.953125 127.535156 -7.582031 130.140625 -10.46875 C 132.753906 -13.351562 132.195312 -19.546875 128.46875 -29.046875 L 76.515625 -167.84375 L 80.984375 -171.484375 L 32.390625 -45.25 C 29.410156 -37.800781 27.640625 -31.515625 27.078125 -26.390625 C 26.523438 -21.273438 27.039062 -17.226562 28.625 -14.25 C 30.207031 -11.269531 32.90625 -9.125 36.71875 -7.8125 C 40.539062 -6.507812 45.335938 -5.765625 51.109375 -5.578125 L 51.109375 0 C 45.890625 -0.375 40.441406 -0.609375 34.765625 -0.703125 C 29.085938 -0.796875 23.828125 -0.84375 18.984375 -0.84375 C 14.335938 -0.84375 10.382812 -0.796875 7.125 -0.703125 C 3.863281 -0.609375 0.835938 -0.375 -1.953125 0 L -1.953125 -5.578125 C 1.765625 -6.515625 5.578125 -8.703125 9.484375 -12.140625 C 13.398438 -15.585938 16.941406 -21.503906 20.109375 -29.890625 L 85.734375 -199.125 C 86.484375 -199.125 87.226562 -199.125 87.96875 -199.125 C 88.71875 -199.125 89.460938 -199.125 90.203125 -199.125 Z M 124.28125 -80.4375 L 124.28125 -74.84375 L 41.046875 -74.84375 L 43.84375 -80.4375 Z M 124.28125 -80.4375 "/></g></g></g></g><g fill="#000000" fill-opacity="1"><g transform="translate(182.640571, 961.94802)"><g><path d="M 135.734375 -143.828125 L 135.734375 -138.25 C 132.191406 -137.875 128.929688 -136.289062 125.953125 -133.5 C 122.972656 -130.707031 120.179688 -125.769531 117.578125 -118.6875 L 71.78125 1.390625 C 71.03125 1.390625 70.28125 1.390625 69.53125 1.390625 C 68.789062 1.390625 67.957031 1.390625 67.03125 1.390625 L 15.640625 -122.328125 C 12.660156 -129.585938 9.726562 -134.007812 6.84375 -135.59375 C 3.957031 -137.175781 1.488281 -137.96875 -0.5625 -137.96875 L -0.5625 -143.828125 C 3.164062 -143.640625 7.03125 -143.40625 11.03125 -143.125 C 15.03125 -142.851562 19.359375 -142.71875 24.015625 -142.71875 C 29.785156 -142.71875 35.882812 -142.804688 42.3125 -142.984375 C 48.738281 -143.171875 54.742188 -143.453125 60.328125 -143.828125 L 60.328125 -137.96875 C 55.671875 -137.96875 51.523438 -137.640625 47.890625 -136.984375 C 44.265625 -136.335938 41.9375 -134.523438 40.90625 -131.546875 C 39.882812 -128.566406 40.769531 -123.445312 43.5625 -116.1875 L 78.484375 -29.890625 L 76.796875 -28.484375 L 108.640625 -111.984375 C 111.054688 -118.128906 112.03125 -123.015625 111.5625 -126.640625 C 111.101562 -130.273438 109.242188 -133.023438 105.984375 -134.890625 C 102.722656 -136.753906 97.742188 -137.875 91.046875 -138.25 L 91.046875 -143.828125 C 94.398438 -143.640625 97.285156 -143.5 99.703125 -143.40625 C 102.117188 -143.3125 104.488281 -143.21875 106.8125 -143.125 C 109.144531 -143.03125 111.707031 -142.984375 114.5 -142.984375 C 118.78125 -142.984375 122.644531 -143.078125 126.09375 -143.265625 C 129.539062 -143.453125 132.753906 -143.640625 135.734375 -143.828125 Z M 135.734375 -143.828125 "/></g></g></g><g fill="#000000" fill-opacity="1"><g transform="translate(325.904578, 961.94802)"><g><path d="M 47.75 1.953125 C 40.125 1.953125 33.515625 0.507812 27.921875 -2.375 C 22.335938 -5.257812 18.101562 -9.304688 15.21875 -14.515625 C 12.332031 -19.734375 10.890625 -25.785156 10.890625 -32.671875 C 10.890625 -40.867188 12.796875 -47.570312 16.609375 -52.78125 C 20.429688 -58 25.320312 -62.1875 31.28125 -65.34375 C 37.238281 -68.507812 43.519531 -71.160156 50.125 -73.296875 C 56.738281 -75.441406 63.023438 -77.492188 68.984375 -79.453125 C 74.941406 -81.410156 79.828125 -83.691406 83.640625 -86.296875 C 87.460938 -88.898438 89.375 -92.34375 89.375 -96.625 L 89.375 -113.953125 C 89.375 -121.765625 88.207031 -127.71875 85.875 -131.8125 C 83.550781 -135.914062 80.429688 -138.664062 76.515625 -140.0625 C 72.609375 -141.457031 68.234375 -142.15625 63.390625 -142.15625 C 58.742188 -142.15625 53.765625 -141.503906 48.453125 -140.203125 C 43.148438 -138.898438 38.914062 -136.195312 35.75 -132.09375 C 39.28125 -131.351562 42.347656 -129.492188 44.953125 -126.515625 C 47.566406 -123.535156 48.875 -119.71875 48.875 -115.0625 C 48.875 -110.40625 47.382812 -106.726562 44.40625 -104.03125 C 41.425781 -101.332031 37.609375 -99.984375 32.953125 -99.984375 C 27.554688 -99.984375 23.597656 -101.703125 21.078125 -105.140625 C 18.566406 -108.585938 17.3125 -112.453125 17.3125 -116.734375 C 17.3125 -121.578125 18.519531 -125.488281 20.9375 -128.46875 C 23.363281 -131.445312 26.4375 -134.238281 30.15625 -136.84375 C 34.4375 -139.820312 39.972656 -142.378906 46.765625 -144.515625 C 53.566406 -146.660156 61.25 -147.734375 69.8125 -147.734375 C 77.445312 -147.734375 83.960938 -146.847656 89.359375 -145.078125 C 94.765625 -143.316406 99.238281 -140.757812 102.78125 -137.40625 C 107.613281 -132.9375 110.773438 -127.488281 112.265625 -121.0625 C 113.753906 -114.644531 114.5 -106.96875 114.5 -98.03125 L 114.5 -20.390625 C 114.5 -15.734375 115.195312 -12.378906 116.59375 -10.328125 C 117.988281 -8.285156 120.175781 -7.265625 123.15625 -7.265625 C 125.207031 -7.265625 127.164062 -7.726562 129.03125 -8.65625 C 130.894531 -9.582031 133.128906 -11.070312 135.734375 -13.125 L 138.796875 -8.375 C 134.890625 -5.394531 131.164062 -2.925781 127.625 -0.96875 C 124.09375 0.976562 119.347656 1.953125 113.390625 1.953125 C 107.984375 1.953125 103.507812 1.023438 99.96875 -0.828125 C 96.4375 -2.691406 93.785156 -5.4375 92.015625 -9.0625 C 90.253906 -12.695312 89.375 -17.3125 89.375 -22.90625 C 84.34375 -14.519531 78.335938 -8.28125 71.359375 -4.1875 C 64.378906 -0.09375 56.507812 1.953125 47.75 1.953125 Z M 57.8125 -9.21875 C 63.957031 -9.21875 69.679688 -10.984375 74.984375 -14.515625 C 80.296875 -18.054688 85.09375 -23.363281 89.375 -30.4375 L 89.375 -85.1875 C 87.132812 -82.019531 83.875 -79.363281 79.59375 -77.21875 C 75.3125 -75.082031 70.65625 -72.941406 65.625 -70.796875 C 60.601562 -68.660156 55.8125 -66.144531 51.25 -63.25 C 46.6875 -60.363281 42.914062 -56.59375 39.9375 -51.9375 C 36.957031 -47.289062 35.46875 -41.242188 35.46875 -33.796875 C 35.46875 -26.347656 37.46875 -20.390625 41.46875 -15.921875 C 45.476562 -11.453125 50.925781 -9.21875 57.8125 -9.21875 Z M 57.8125 -9.21875 "/></g></g></g><g fill="#000000" fill-opacity="1"><g transform="translate(471.681949, 961.94802)"><g><path d="M 101.9375 -147.734375 C 109.007812 -147.734375 114.921875 -146.800781 119.671875 -144.9375 C 124.421875 -143.082031 128.378906 -140.476562 131.546875 -137.125 C 135.078125 -133.40625 137.585938 -128.75 139.078125 -123.15625 C 140.566406 -117.570312 141.3125 -110.035156 141.3125 -100.546875 L 141.3125 -25.96875 C 141.3125 -18.15625 142.941406 -12.847656 146.203125 -10.046875 C 149.460938 -7.253906 154.910156 -5.859375 162.546875 -5.859375 L 162.546875 0 C 159.378906 -0.1875 154.535156 -0.414062 148.015625 -0.6875 C 141.503906 -0.96875 135.175781 -1.109375 129.03125 -1.109375 C 122.882812 -1.109375 116.878906 -0.96875 111.015625 -0.6875 C 105.148438 -0.414062 100.726562 -0.1875 97.75 0 L 97.75 -5.859375 C 104.445312 -5.859375 109.191406 -7.253906 111.984375 -10.046875 C 114.785156 -12.847656 116.1875 -18.15625 116.1875 -25.96875 L 116.1875 -106.6875 C 116.1875 -112.457031 115.71875 -117.757812 114.78125 -122.59375 C 113.851562 -127.4375 111.757812 -131.347656 108.5 -134.328125 C 105.238281 -137.304688 100.257812 -138.796875 93.5625 -138.796875 C 85.738281 -138.796875 78.894531 -136.5625 73.03125 -132.09375 C 67.164062 -127.625 62.601562 -121.523438 59.34375 -113.796875 C 56.082031 -106.078125 54.453125 -97.46875 54.453125 -87.96875 L 54.453125 -25.96875 C 54.453125 -18.15625 55.847656 -12.847656 58.640625 -10.046875 C 61.441406 -7.253906 66.191406 -5.859375 72.890625 -5.859375 L 72.890625 0 C 69.910156 -0.1875 65.488281 -0.414062 59.625 -0.6875 C 53.757812 -0.96875 47.753906 -1.109375 41.609375 -1.109375 C 35.460938 -1.109375 29.128906 -0.96875 22.609375 -0.6875 C 16.097656 -0.414062 11.257812 -0.1875 8.09375 0 L 8.09375 -5.859375 C 15.726562 -5.859375 21.175781 -7.253906 24.4375 -10.046875 C 27.695312 -12.847656 29.328125 -18.15625 29.328125 -25.96875 L 29.328125 -113.390625 C 29.328125 -121.765625 27.835938 -127.953125 24.859375 -131.953125 C 21.878906 -135.960938 16.289062 -137.96875 8.09375 -137.96875 L 8.09375 -143.828125 C 14.050781 -143.265625 19.828125 -142.984375 25.421875 -142.984375 C 30.816406 -142.984375 35.976562 -143.3125 40.90625 -143.96875 C 45.84375 -144.625 50.359375 -145.601562 54.453125 -146.90625 L 54.453125 -113.953125 C 59.296875 -126.609375 66.046875 -135.398438 74.703125 -140.328125 C 83.359375 -145.265625 92.4375 -147.734375 101.9375 -147.734375 Z M 101.9375 -147.734375 "/></g></g></g><g fill="#000000" fill-opacity="1"><g transform="translate(645.106695, 961.94802)"><g><path d="M 53.0625 -190.1875 L 53.0625 -143.546875 L 94.390625 -143.546875 L 94.390625 -137.96875 L 53.0625 -137.96875 L 53.0625 -29.890625 C 53.0625 -21.128906 54.644531 -14.976562 57.8125 -11.4375 C 60.976562 -7.90625 65.351562 -6.140625 70.9375 -6.140625 C 76.519531 -6.140625 81.359375 -8.421875 85.453125 -12.984375 C 89.554688 -17.546875 93.097656 -25.226562 96.078125 -36.03125 L 101.65625 -34.625 C 99.789062 -23.832031 96.113281 -14.710938 90.625 -7.265625 C 85.132812 0.179688 76.710938 3.90625 65.359375 3.90625 C 59.023438 3.90625 53.804688 3.113281 49.703125 1.53125 C 45.609375 -0.0507812 41.976562 -2.332031 38.8125 -5.3125 C 34.71875 -9.59375 31.878906 -14.710938 30.296875 -20.671875 C 28.710938 -26.628906 27.921875 -34.539062 27.921875 -44.40625 L 27.921875 -137.96875 L 1.109375 -137.96875 L 1.109375 -143.546875 L 27.921875 -143.546875 L 27.921875 -186.28125 C 32.578125 -186.46875 37.046875 -186.835938 41.328125 -187.390625 C 45.609375 -187.953125 49.519531 -188.882812 53.0625 -190.1875 Z M 53.0625 -190.1875 "/></g></g></g><g fill="#000000" fill-opacity="1"><g transform="translate(750.669759, 961.94802)"><g><path d="M 59.484375 52.5 C 49.617188 52.5 40.3125 51.472656 31.5625 49.421875 C 22.8125 47.378906 15.78125 44.171875 10.46875 39.796875 C 5.164062 35.421875 2.515625 29.882812 2.515625 23.1875 C 2.515625 16.664062 5.117188 11.078125 10.328125 6.421875 C 15.546875 1.765625 22.625 -1.769531 31.5625 -4.1875 L 33.234375 0.28125 C 29.140625 1.582031 25.878906 4.1875 23.453125 8.09375 C 21.035156 12.007812 19.828125 16.382812 19.828125 21.21875 C 19.828125 29.789062 23.78125 36.351562 31.6875 40.90625 C 39.601562 45.46875 49.894531 47.75 62.5625 47.75 C 70.9375 47.75 79.125 46.675781 87.125 44.53125 C 95.132812 42.394531 101.742188 38.8125 106.953125 33.78125 C 112.171875 28.757812 114.78125 22.15625 114.78125 13.96875 C 114.78125 7.820312 112.59375 2.75 108.21875 -1.25 C 103.84375 -5.257812 95.234375 -7.265625 82.390625 -7.265625 L 61.71875 -7.265625 C 55.757812 -7.265625 49.988281 -7.726562 44.40625 -8.65625 C 38.820312 -9.582031 34.257812 -11.535156 30.71875 -14.515625 C 27.1875 -17.492188 25.421875 -22.054688 25.421875 -28.203125 C 25.421875 -34.535156 28.023438 -40.632812 33.234375 -46.5 C 38.441406 -52.363281 48.03125 -58.367188 62 -64.515625 L 65.359375 -62 C 59.023438 -58.644531 53.53125 -55.242188 48.875 -51.796875 C 44.21875 -48.359375 41.890625 -44.3125 41.890625 -39.65625 C 41.890625 -33.695312 46.359375 -30.71875 55.296875 -30.71875 L 90.203125 -30.71875 C 98.023438 -30.71875 105.238281 -29.597656 111.84375 -27.359375 C 118.457031 -25.128906 123.8125 -21.59375 127.90625 -16.75 C 132.007812 -11.914062 134.0625 -5.585938 134.0625 2.234375 C 134.0625 10.984375 131.265625 19.175781 125.671875 26.8125 C 120.085938 34.445312 111.753906 40.632812 100.671875 45.375 C 89.597656 50.125 75.867188 52.5 59.484375 52.5 Z M 60.890625 -59.484375 C 51.765625 -59.484375 43.476562 -61.019531 36.03125 -64.09375 C 28.582031 -67.164062 22.71875 -71.957031 18.4375 -78.46875 C 14.15625 -84.988281 12.015625 -93.367188 12.015625 -103.609375 C 12.015625 -113.847656 14.15625 -122.226562 18.4375 -128.75 C 22.71875 -135.269531 28.582031 -140.0625 36.03125 -143.125 C 43.476562 -146.195312 51.765625 -147.734375 60.890625 -147.734375 C 70.191406 -147.734375 78.519531 -146.195312 85.875 -143.125 C 93.226562 -140.0625 99.046875 -135.269531 103.328125 -128.75 C 107.609375 -122.226562 109.75 -113.847656 109.75 -103.609375 C 109.75 -93.367188 107.609375 -84.988281 103.328125 -78.46875 C 99.046875 -71.957031 93.226562 -67.164062 85.875 -64.09375 C 78.519531 -61.019531 70.191406 -59.484375 60.890625 -59.484375 Z M 60.890625 -64.515625 C 67.960938 -64.515625 73.5 -67.304688 77.5 -72.890625 C 81.5 -78.472656 83.5 -88.710938 83.5 -103.609375 C 83.5 -118.503906 81.5 -128.742188 77.5 -134.328125 C 73.5 -139.921875 67.960938 -142.71875 60.890625 -142.71875 C 53.992188 -142.71875 48.5 -139.921875 44.40625 -134.328125 C 40.3125 -128.742188 38.265625 -118.503906 38.265625 -103.609375 C 38.265625 -88.710938 40.3125 -78.472656 44.40625 -72.890625 C 48.5 -67.304688 53.992188 -64.515625 60.890625 -64.515625 Z M 101.09375 -124.5625 L 96.078125 -126.515625 C 98.679688 -132.847656 103.144531 -138.429688 109.46875 -143.265625 C 115.800781 -148.109375 122.414062 -150.53125 129.3125 -150.53125 C 134.144531 -150.53125 138.050781 -149.179688 141.03125 -146.484375 C 144.007812 -143.785156 145.5 -139.734375 145.5 -134.328125 C 145.5 -128.554688 143.960938 -124.503906 140.890625 -122.171875 C 137.828125 -119.847656 134.710938 -118.6875 131.546875 -118.6875 C 128.753906 -118.6875 126.144531 -119.664062 123.71875 -121.625 C 121.300781 -123.582031 119.90625 -126.703125 119.53125 -130.984375 C 119.15625 -135.265625 120.457031 -140.753906 123.4375 -147.453125 L 127.078125 -146.625 C 119.253906 -143.644531 113.664062 -140.523438 110.3125 -137.265625 C 106.957031 -134.003906 103.882812 -129.769531 101.09375 -124.5625 Z M 101.09375 -124.5625 "/></g></g></g><g fill="#000000" fill-opacity="1"><g transform="translate(904.825146, 961.94802)"><g><path d="M 47.75 1.953125 C 40.125 1.953125 33.515625 0.507812 27.921875 -2.375 C 22.335938 -5.257812 18.101562 -9.304688 15.21875 -14.515625 C 12.332031 -19.734375 10.890625 -25.785156 10.890625 -32.671875 C 10.890625 -40.867188 12.796875 -47.570312 16.609375 -52.78125 C 20.429688 -58 25.320312 -62.1875 31.28125 -65.34375 C 37.238281 -68.507812 43.519531 -71.160156 50.125 -73.296875 C 56.738281 -75.441406 63.023438 -77.492188 68.984375 -79.453125 C 74.941406 -81.410156 79.828125 -83.691406 83.640625 -86.296875 C 87.460938 -88.898438 89.375 -92.34375 89.375 -96.625 L 89.375 -113.953125 C 89.375 -121.765625 88.207031 -127.71875 85.875 -131.8125 C 83.550781 -135.914062 80.429688 -138.664062 76.515625 -140.0625 C 72.609375 -141.457031 68.234375 -142.15625 63.390625 -142.15625 C 58.742188 -142.15625 53.765625 -141.503906 48.453125 -140.203125 C 43.148438 -138.898438 38.914062 -136.195312 35.75 -132.09375 C 39.28125 -131.351562 42.347656 -129.492188 44.953125 -126.515625 C 47.566406 -123.535156 48.875 -119.71875 48.875 -115.0625 C 48.875 -110.40625 47.382812 -106.726562 44.40625 -104.03125 C 41.425781 -101.332031 37.609375 -99.984375 32.953125 -99.984375 C 27.554688 -99.984375 23.597656 -101.703125 21.078125 -105.140625 C 18.566406 -108.585938 17.3125 -112.453125 17.3125 -116.734375 C 17.3125 -121.578125 18.519531 -125.488281 20.9375 -128.46875 C 23.363281 -131.445312 26.4375 -134.238281 30.15625 -136.84375 C 34.4375 -139.820312 39.972656 -142.378906 46.765625 -144.515625 C 53.566406 -146.660156 61.25 -147.734375 69.8125 -147.734375 C 77.445312 -147.734375 83.960938 -146.847656 89.359375 -145.078125 C 94.765625 -143.316406 99.238281 -140.757812 102.78125 -137.40625 C 107.613281 -132.9375 110.773438 -127.488281 112.265625 -121.0625 C 113.753906 -114.644531 114.5 -106.96875 114.5 -98.03125 L 114.5 -20.390625 C 114.5 -15.734375 115.195312 -12.378906 116.59375 -10.328125 C 117.988281 -8.285156 120.175781 -7.265625 123.15625 -7.265625 C 125.207031 -7.265625 127.164062 -7.726562 129.03125 -8.65625 C 130.894531 -9.582031 133.128906 -11.070312 135.734375 -13.125 L 138.796875 -8.375 C 134.890625 -5.394531 131.164062 -2.925781 127.625 -0.96875 C 124.09375 0.976562 119.347656 1.953125 113.390625 1.953125 C 107.984375 1.953125 103.507812 1.023438 99.96875 -0.828125 C 96.4375 -2.691406 93.785156 -5.4375 92.015625 -9.0625 C 90.253906 -12.695312 89.375 -17.3125 89.375 -22.90625 C 84.34375 -14.519531 78.335938 -8.28125 71.359375 -4.1875 C 64.378906 -0.09375 56.507812 1.953125 47.75 1.953125 Z M 57.8125 -9.21875 C 63.957031 -9.21875 69.679688 -10.984375 74.984375 -14.515625 C 80.296875 -18.054688 85.09375 -23.363281 89.375 -30.4375 L 89.375 -85.1875 C 87.132812 -82.019531 83.875 -79.363281 79.59375 -77.21875 C 75.3125 -75.082031 70.65625 -72.941406 65.625 -70.796875 C 60.601562 -68.660156 55.8125 -66.144531 51.25 -63.25 C 46.6875 -60.363281 42.914062 -56.59375 39.9375 -51.9375 C 36.957031 -47.289062 35.46875 -41.242188 35.46875 -33.796875 C 35.46875 -26.347656 37.46875 -20.390625 41.46875 -15.921875 C 45.476562 -11.453125 50.925781 -9.21875 57.8125 -9.21875 Z M 57.8125 -9.21875 "/></g></g></g><g fill="#000000" fill-opacity="1"><g transform="translate(1050.602481, 961.94802)"><g><path d="M 94.953125 -147.734375 C 99.984375 -147.734375 104.40625 -146.707031 108.21875 -144.65625 C 112.039062 -142.613281 115.019531 -139.960938 117.15625 -136.703125 C 119.300781 -133.453125 120.375 -129.773438 120.375 -125.671875 C 120.375 -121.015625 118.929688 -116.914062 116.046875 -113.375 C 113.160156 -109.84375 109.296875 -108.078125 104.453125 -108.078125 C 100.546875 -108.078125 97.101562 -109.332031 94.125 -111.84375 C 91.144531 -114.363281 89.65625 -117.953125 89.65625 -122.609375 C 89.65625 -126.140625 90.628906 -129.160156 92.578125 -131.671875 C 94.535156 -134.191406 96.722656 -136.195312 99.140625 -137.6875 C 97.835938 -139.550781 95.882812 -140.484375 93.28125 -140.484375 C 87.507812 -140.484375 82.203125 -138.757812 77.359375 -135.3125 C 72.515625 -131.863281 68.414062 -127.441406 65.0625 -122.046875 C 61.71875 -116.648438 59.113281 -110.925781 57.25 -104.875 C 55.382812 -98.820312 54.453125 -93.1875 54.453125 -87.96875 L 54.453125 -28.765625 C 54.453125 -19.640625 57.101562 -13.539062 62.40625 -10.46875 C 67.71875 -7.394531 74.9375 -5.859375 84.0625 -5.859375 L 84.0625 0 C 79.78125 -0.1875 73.726562 -0.414062 65.90625 -0.6875 C 58.09375 -0.96875 49.804688 -1.109375 41.046875 -1.109375 C 34.722656 -1.109375 28.441406 -0.96875 22.203125 -0.6875 C 15.960938 -0.414062 11.257812 -0.1875 8.09375 0 L 8.09375 -5.859375 C 15.726562 -5.859375 21.175781 -7.253906 24.4375 -10.046875 C 27.695312 -12.847656 29.328125 -18.15625 29.328125 -25.96875 L 29.328125 -113.390625 C 29.328125 -121.765625 27.835938 -127.953125 24.859375 -131.953125 C 21.878906 -135.960938 16.289062 -137.96875 8.09375 -137.96875 L 8.09375 -143.828125 C 14.050781 -143.265625 19.828125 -142.984375 25.421875 -142.984375 C 30.816406 -142.984375 35.976562 -143.3125 40.90625 -143.96875 C 45.84375 -144.625 50.359375 -145.601562 54.453125 -146.90625 L 54.453125 -111.984375 C 56.503906 -117.390625 59.4375 -122.835938 63.25 -128.328125 C 67.070312 -133.816406 71.679688 -138.421875 77.078125 -142.140625 C 82.484375 -145.867188 88.441406 -147.734375 94.953125 -147.734375 Z M 94.953125 -147.734375 "/></g></g></g><g fill="#000000" fill-opacity="1"><g transform="translate(1181.578753, 961.94802)"><g><path d="M 135.171875 -218.953125 L 135.171875 -30.4375 C 135.171875 -22.0625 136.707031 -15.867188 139.78125 -11.859375 C 142.851562 -7.859375 148.390625 -5.859375 156.390625 -5.859375 L 156.390625 0 C 150.617188 -0.5625 144.847656 -0.84375 139.078125 -0.84375 C 133.679688 -0.84375 128.515625 -0.5625 123.578125 0 C 118.648438 0.5625 114.132812 1.585938 110.03125 3.078125 L 110.03125 -185.4375 C 110.03125 -193.820312 108.539062 -200.015625 105.5625 -204.015625 C 102.582031 -208.015625 97 -210.015625 88.8125 -210.015625 L 88.8125 -215.890625 C 94.769531 -215.328125 100.539062 -215.046875 106.125 -215.046875 C 111.519531 -215.046875 116.6875 -215.367188 121.625 -216.015625 C 126.5625 -216.671875 131.078125 -217.648438 135.171875 -218.953125 Z M 76.515625 -147.734375 C 84.710938 -147.734375 92.394531 -145.78125 99.5625 -141.875 C 106.726562 -137.96875 111.523438 -131.265625 113.953125 -121.765625 L 110.3125 -118.96875 C 107.707031 -126.789062 103.65625 -132.46875 98.15625 -136 C 92.664062 -139.539062 86.195312 -141.3125 78.75 -141.3125 C 67.769531 -141.3125 58.601562 -135.632812 51.25 -124.28125 C 43.894531 -112.925781 40.3125 -95.425781 40.5 -71.78125 C 40.5 -56.695312 41.941406 -44.171875 44.828125 -34.203125 C 47.710938 -24.242188 51.992188 -16.796875 57.671875 -11.859375 C 63.347656 -6.929688 70.285156 -4.46875 78.484375 -4.46875 C 86.296875 -4.46875 93.367188 -7.816406 99.703125 -14.515625 C 106.035156 -21.222656 109.851562 -31.09375 111.15625 -44.125 L 114.5 -40.21875 C 113.007812 -26.0625 108.492188 -15.164062 100.953125 -7.53125 C 93.421875 0.09375 83.226562 3.90625 70.375 3.90625 C 58.832031 3.90625 48.734375 1.113281 40.078125 -4.46875 C 31.421875 -10.050781 24.8125 -18.425781 20.25 -29.59375 C 15.6875 -40.769531 13.40625 -54.832031 13.40625 -71.78125 C 13.40625 -88.71875 16.335938 -102.816406 22.203125 -114.078125 C 28.066406 -125.347656 35.789062 -133.773438 45.375 -139.359375 C 54.96875 -144.941406 65.347656 -147.734375 76.515625 -147.734375 Z M 76.515625 -147.734375 "/></g></g></g><g fill="#000000" fill-opacity="1"><g transform="translate(1350.535275, 961.94802)"><g><path d="M 75.96875 -147.734375 C 92.351562 -147.734375 105.148438 -142.753906 114.359375 -132.796875 C 123.578125 -122.835938 128.1875 -107.335938 128.1875 -86.296875 L 29.609375 -86.296875 L 29.328125 -91.609375 L 101.375 -91.609375 C 101.75 -100.722656 101.003906 -109.144531 99.140625 -116.875 C 97.285156 -124.601562 94.351562 -130.796875 90.34375 -135.453125 C 86.34375 -140.109375 81.175781 -142.4375 74.84375 -142.4375 C 66.28125 -142.4375 58.691406 -138.148438 52.078125 -129.578125 C 45.472656 -121.015625 41.519531 -107.425781 40.21875 -88.8125 L 41.046875 -87.6875 C 40.679688 -84.894531 40.40625 -81.820312 40.21875 -78.46875 C 40.03125 -75.125 39.9375 -71.773438 39.9375 -68.421875 C 39.9375 -55.765625 41.984375 -44.875 46.078125 -35.75 C 50.171875 -26.625 55.519531 -19.6875 62.125 -14.9375 C 68.738281 -10.1875 75.585938 -7.8125 82.671875 -7.8125 C 88.253906 -7.8125 93.554688 -8.695312 98.578125 -10.46875 C 103.609375 -12.238281 108.265625 -15.171875 112.546875 -19.265625 C 116.828125 -23.367188 120.550781 -28.863281 123.71875 -35.75 L 129.3125 -33.515625 C 127.257812 -27.367188 123.90625 -21.410156 119.25 -15.640625 C 114.59375 -9.867188 108.726562 -5.164062 101.65625 -1.53125 C 94.582031 2.09375 86.390625 3.90625 77.078125 3.90625 C 63.671875 3.90625 52.171875 0.835938 42.578125 -5.296875 C 32.992188 -11.441406 25.640625 -19.960938 20.515625 -30.859375 C 15.398438 -41.753906 12.84375 -54.273438 12.84375 -68.421875 C 12.84375 -84.804688 15.445312 -98.910156 20.65625 -110.734375 C 25.875 -122.554688 33.226562 -131.675781 42.71875 -138.09375 C 52.21875 -144.519531 63.300781 -147.734375 75.96875 -147.734375 Z M 75.96875 -147.734375 "/></g></g></g></g></g></g></g></g></mask><clipPath id="fef1237768"><path d="M 0 0 L 1500 0 L 1500 1500 L 0 1500 Z M 0 0 " clip-rule="nonzero"/></clipPath><clipPath id="77be387080"><rect x="0" width="1500" y="0" height="1500"/></clipPath><clipPath id="7e348c2f63"><rect x="0" width="1500" y="0" height="1500"/></clipPath><clipPath id="c37f475ae0"><path d="M 1290.890625 526.429688 L 1500 526.429688 L 1500 725.734375 L 1290.890625 725.734375 Z M 1290.890625 526.429688 " clip-rule="nonzero"/></clipPath><clipPath id="069a1c9b7c"><path d="M 1395.445312 526.429688 L 1420.128906 602.558594 L 1500 602.558594 L 1435.382812 649.605469 L 1460.0625 725.734375 L 1395.445312 678.6875 L 1330.828125 725.734375 L 1355.511719 649.605469 L 1290.890625 602.558594 L 1370.765625 602.558594 Z M 1395.445312 526.429688 " clip-rule="nonzero"/></clipPath><clipPath id="cf18ef9e06"><path d="M 0.890625 0.429688 L 210 0.429688 L 210 199.734375 L 0.890625 199.734375 Z M 0.890625 0.429688 " clip-rule="nonzero"/></clipPath><clipPath id="e51e693f6d"><path d="M 105.445312 0.429688 L 130.128906 76.558594 L 210 76.558594 L 145.382812 123.605469 L 170.0625 199.734375 L 105.445312 152.6875 L 40.828125 199.734375 L 65.511719 123.605469 L 0.890625 76.558594 L 80.765625 76.558594 Z M 105.445312 0.429688 " clip-rule="nonzero"/></clipPath><clipPath id="2909ca6c03"><rect x="0" width="210" y="0" height="200"/></clipPath><clipPath id="9e7fe8ac28"><path d="M 1063.800781 526.429688 L 1273 526.429688 L 1273 725.734375 L 1063.800781 725.734375 Z M 1063.800781 526.429688 " clip-rule="nonzero"/></clipPath><clipPath id="d1772a3c3e"><path d="M 1168.351562 526.429688 L 1193.035156 602.558594 L 1272.90625 602.558594 L 1208.289062 649.605469 L 1232.972656 725.734375 L 1168.351562 678.6875 L 1103.734375 725.734375 L 1128.417969 649.605469 L 1063.800781 602.558594 L 1143.671875 602.558594 Z M 1168.351562 526.429688 " clip-rule="nonzero"/></clipPath><clipPath id="cdee6a1d83"><path d="M 0.800781 0.429688 L 209.960938 0.429688 L 209.960938 199.734375 L 0.800781 199.734375 Z M 0.800781 0.429688 " clip-rule="nonzero"/></clipPath><clipPath id="e6dcb0bdbe"><path d="M 105.351562 0.429688 L 130.035156 76.558594 L 209.90625 76.558594 L 145.289062 123.605469 L 169.972656 199.734375 L 105.351562 152.6875 L 40.734375 199.734375 L 65.417969 123.605469 L 0.800781 76.558594 L 80.671875 76.558594 Z M 105.351562 0.429688 " clip-rule="nonzero"/></clipPath><clipPath id="c852339a5f"><rect x="0" width="210" y="0" height="200"/></clipPath><clipPath id="042e496d6c"><path d="M 836.707031 526.429688 L 1046 526.429688 L 1046 725.734375 L 836.707031 725.734375 Z M 836.707031 526.429688 " clip-rule="nonzero"/></clipPath><clipPath id="f41f5f4b12"><path d="M 941.261719 526.429688 L 965.941406 602.558594 L 1045.8125 602.558594 L 981.195312 649.605469 L 1005.878906 725.734375 L 941.261719 678.6875 L 876.640625 725.734375 L 901.324219 649.605469 L 836.707031 602.558594 L 916.578125 602.558594 Z M 941.261719 526.429688 " clip-rule="nonzero"/></clipPath><clipPath id="6444c1f9fb"><path d="M 0.707031 0.429688 L 209.921875 0.429688 L 209.921875 199.734375 L 0.707031 199.734375 Z M 0.707031 0.429688 " clip-rule="nonzero"/></clipPath><clipPath id="bcbcf84fc2"><path d="M 105.261719 0.429688 L 129.941406 76.558594 L 209.8125 76.558594 L 145.195312 123.605469 L 169.878906 199.734375 L 105.261719 152.6875 L 40.640625 199.734375 L 65.324219 123.605469 L 0.707031 76.558594 L 80.578125 76.558594 Z M 105.261719 0.429688 " clip-rule="nonzero"/></clipPath><clipPath id="95eadc6f3c"><rect x="0" width="210" y="0" height="200"/></clipPath><clipPath id="84fbef2879"><path d="M 609.949219 526.429688 L 819.375 526.429688 L 819.375 725.734375 L 609.949219 725.734375 Z M 609.949219 526.429688 " clip-rule="nonzero"/></clipPath><clipPath id="a90ed2713f"><path d="M 714.503906 526.429688 L 739.183594 602.558594 L 819.054688 602.558594 L 754.4375 649.605469 L 779.121094 725.734375 L 714.503906 678.6875 L 649.882812 725.734375 L 674.566406 649.605469 L 609.949219 602.558594 L 689.820312 602.558594 Z M 714.503906 526.429688 " clip-rule="nonzero"/></clipPath><clipPath id="e2acf72846"><path d="M 0.949219 0.429688 L 210.121094 0.429688 L 210.121094 199.734375 L 0.949219 199.734375 Z M 0.949219 0.429688 " clip-rule="nonzero"/></clipPath><clipPath id="de749f2bb1"><path d="M 105.503906 0.429688 L 130.183594 76.558594 L 210.054688 76.558594 L 145.4375 123.605469 L 170.121094 199.734375 L 105.503906 152.6875 L 40.882812 199.734375 L 65.566406 123.605469 L 0.949219 76.558594 L 80.820312 76.558594 Z M 105.503906 0.429688 " clip-rule="nonzero"/></clipPath><clipPath id="f0a300764d"><rect x="0" width="211" y="0" height="200"/></clipPath><clipPath id="902bbabb2e"><rect x="0" width="1500" y="0" height="1500"/></clipPath></defs><g transform="matrix(1, 0, 0, 1, 0, 0.000000000000112861)"><g clip-path="url(#902bbabb2e)"><g transform="matrix(1, 0, 0, 1, 0, 0.000000000000112861)"><g clip-path="url(#7e348c2f63)"><g mask="url(#e8fca6206d)"><g transform="matrix(1, 0, 0, 1, 0, 0.000000000000112861)"><g clip-path="url(#77be387080)"><g clip-path="url(#fef1237768)"><rect x="-805.2" fill="url(#4e239d97e1)" width="3110.4" height="3110.399862" y="-805.199964"/></g></g></g></g></g></g><g clip-path="url(#c37f475ae0)"><g clip-path="url(#069a1c9b7c)"><g transform="matrix(1, 0, 0, 1, 1290, 526)"><g clip-path="url(#2909ca6c03)"><g clip-path="url(#cf18ef9e06)"><g clip-path="url(#e51e693f6d)"><path fill="#f3cb51" d="M 0.890625 0.429688 L 210.320312 0.429688 L 210.320312 199.734375 L 0.890625 199.734375 Z M 0.890625 0.429688 " fill-opacity="1" fill-rule="nonzero"/></g></g></g></g></g></g><g clip-path="url(#9e7fe8ac28)"><g clip-path="url(#d1772a3c3e)"><g transform="matrix(1, 0, 0, 1, 1063, 526)"><g clip-path="url(#c852339a5f)"><g clip-path="url(#cdee6a1d83)"><g clip-path="url(#e6dcb0bdbe)"><path fill="#f3cb51" d="M 0.800781 0.429688 L 210.226562 0.429688 L 210.226562 199.734375 L 0.800781 199.734375 Z M 0.800781 0.429688 " fill-opacity="1" fill-rule="nonzero"/></g></g></g></g></g></g><g clip-path="url(#042e496d6c)"><g clip-path="url(#f41f5f4b12)"><g transform="matrix(1, 0, 0, 1, 836, 526)"><g clip-path="url(#95eadc6f3c)"><g clip-path="url(#6444c1f9fb)"><g clip-path="url(#bcbcf84fc2)"><path fill="#f3cb51" d="M 0.707031 0.429688 L 210.132812 0.429688 L 210.132812 199.734375 L 0.707031 199.734375 Z M 0.707031 0.429688 " fill-opacity="1" fill-rule="nonzero"/></g></g></g></g></g></g><g clip-path="url(#84fbef2879)"><g clip-path="url(#a90ed2713f)"><g transform="matrix(1, 0, 0, 1, 609, 526)"><g clip-path="url(#f0a300764d)"><g clip-path="url(#e2acf72846)"><g clip-path="url(#de749f2bb1)"><path fill="#f3cb51" d="M 0.949219 0.429688 L 210.375 0.429688 L 210.375 199.734375 L 0.949219 199.734375 Z M 0.949219 0.429688 " fill-opacity="1" fill-rule="nonzero"/></g></g></g></g></g></g></g></g></svg>