<svg xmlns="http://www.w3.org/2000/svg" xmlns:xlink="http://www.w3.org/1999/xlink" width="2123" zoomAndPan="magnify" viewBox="0 0 1592.25 711.749979" height="949" preserveAspectRatio="xMidYMid meet" version="1.0"><defs><filter x="0%" y="0%" width="100%" height="100%" id="e5524190bc"><feColorMatrix values="0 0 0 0 1 0 0 0 0 1 0 0 0 0 1 0 0 0 1 0" color-interpolation-filters="sRGB"/></filter><g/><clipPath id="c479f5b08f"><path d="M 1311.601562 164.882812 L 1511.421875 164.882812 L 1511.421875 355.046875 L 1311.601562 355.046875 Z M 1311.601562 164.882812 " clip-rule="nonzero"/></clipPath><clipPath id="8aff963e29"><path d="M 1411.359375 164.882812 L 1434.910156 237.519531 L 1511.117188 237.519531 L 1449.464844 282.410156 L 1473.011719 355.046875 L 1411.359375 310.15625 L 1349.707031 355.046875 L 1373.257812 282.410156 L 1311.601562 237.519531 L 1387.808594 237.519531 Z M 1411.359375 164.882812 " clip-rule="nonzero"/></clipPath><clipPath id="bbcd8810d0"><path d="M 0.601562 0.882812 L 200.289062 0.882812 L 200.289062 191.046875 L 0.601562 191.046875 Z M 0.601562 0.882812 " clip-rule="nonzero"/></clipPath><clipPath id="c13858dd40"><path d="M 100.359375 0.882812 L 123.910156 73.519531 L 200.117188 73.519531 L 138.464844 118.410156 L 162.011719 191.046875 L 100.359375 146.15625 L 38.707031 191.046875 L 62.257812 118.410156 L 0.601562 73.519531 L 76.808594 73.519531 Z M 100.359375 0.882812 " clip-rule="nonzero"/></clipPath><clipPath id="4d8b0b70f7"><rect x="0" width="201" y="0" height="192"/></clipPath><clipPath id="d51d66a22e"><path d="M 0 0.0429688 L 1591.5 0.0429688 L 1591.5 711.457031 L 0 711.457031 Z M 0 0.0429688 " clip-rule="nonzero"/></clipPath><clipPath id="c038860b35"><path d="M 0 0.0429688 L 1591.5 0.0429688 L 1591.5 711.457031 L 0 711.457031 Z M 0 0.0429688 " clip-rule="nonzero"/></clipPath><clipPath id="0a3a050a2c"><path d="M 0 0.0429688 L 1591.5 0.0429688 L 1591.5 711.457031 L 0 711.457031 Z M 0 0.0429688 " clip-rule="nonzero"/></clipPath><linearGradient x1="-106.524277" gradientTransform="matrix(0.749606, 0, 0, 0.749713, 79.851184, 123.940717)" y1="308.5" x2="2016.592851" gradientUnits="userSpaceOnUse" y2="308.5" id="b8d872b2ff"><stop stop-opacity="1" stop-color="rgb(80.389404%, 100%, 84.709167%)" offset="0"/><stop stop-opacity="1" stop-color="rgb(80.235291%, 99.810791%, 84.814453%)" offset="0.0625"/><stop stop-opacity="1" stop-color="rgb(79.985046%, 99.502563%, 84.985352%)" offset="0.0703125"/><stop stop-opacity="1" stop-color="rgb(79.79126%, 99.264526%, 85.118103%)" offset="0.078125"/><stop stop-opacity="1" stop-color="rgb(79.595947%, 99.024963%, 85.250854%)" offset="0.0859375"/><stop stop-opacity="1" stop-color="rgb(79.402161%, 98.786926%, 85.383606%)" offset="0.09375"/><stop stop-opacity="1" stop-color="rgb(79.206848%, 98.547363%, 85.516357%)" offset="0.101562"/><stop stop-opacity="1" stop-color="rgb(79.013062%, 98.309326%, 85.649109%)" offset="0.109375"/><stop stop-opacity="1" stop-color="rgb(78.819275%, 98.071289%, 85.783386%)" offset="0.117187"/><stop stop-opacity="1" stop-color="rgb(78.623962%, 97.831726%, 85.916138%)" offset="0.125"/><stop stop-opacity="1" stop-color="rgb(78.430176%, 97.593689%, 86.048889%)" offset="0.132812"/><stop stop-opacity="1" stop-color="rgb(78.236389%, 97.354126%, 86.181641%)" offset="0.140625"/><stop stop-opacity="1" stop-color="rgb(78.041077%, 97.116089%, 86.314392%)" offset="0.148438"/><stop stop-opacity="1" stop-color="rgb(77.84729%, 96.876526%, 86.447144%)" offset="0.15625"/><stop stop-opacity="1" stop-color="rgb(77.651978%, 96.638489%, 86.579895%)" offset="0.164062"/><stop stop-opacity="1" stop-color="rgb(77.458191%, 96.398926%, 86.714172%)" offset="0.171875"/><stop stop-opacity="1" stop-color="rgb(77.264404%, 96.160889%, 86.846924%)" offset="0.179688"/><stop stop-opacity="1" stop-color="rgb(77.069092%, 95.922852%, 86.979675%)" offset="0.1875"/><stop stop-opacity="1" stop-color="rgb(76.875305%, 95.683289%, 87.112427%)" offset="0.195312"/><stop stop-opacity="1" stop-color="rgb(76.679993%, 95.445251%, 87.245178%)" offset="0.203125"/><stop stop-opacity="1" stop-color="rgb(76.486206%, 95.205688%, 87.37793%)" offset="0.210938"/><stop stop-opacity="1" stop-color="rgb(76.292419%, 94.967651%, 87.510681%)" offset="0.21875"/><stop stop-opacity="1" stop-color="rgb(76.097107%, 94.728088%, 87.643433%)" offset="0.226562"/><stop stop-opacity="1" stop-color="rgb(75.90332%, 94.490051%, 87.77771%)" offset="0.234375"/><stop stop-opacity="1" stop-color="rgb(75.709534%, 94.250488%, 87.910461%)" offset="0.242188"/><stop stop-opacity="1" stop-color="rgb(75.514221%, 94.012451%, 88.043213%)" offset="0.25"/><stop stop-opacity="1" stop-color="rgb(75.320435%, 93.774414%, 88.175964%)" offset="0.257812"/><stop stop-opacity="1" stop-color="rgb(75.125122%, 93.534851%, 88.308716%)" offset="0.265625"/><stop stop-opacity="1" stop-color="rgb(74.931335%, 93.296814%, 88.441467%)" offset="0.273438"/><stop stop-opacity="1" stop-color="rgb(74.737549%, 93.057251%, 88.574219%)" offset="0.28125"/><stop stop-opacity="1" stop-color="rgb(74.542236%, 92.819214%, 88.708496%)" offset="0.289062"/><stop stop-opacity="1" stop-color="rgb(74.34845%, 92.579651%, 88.841248%)" offset="0.296875"/><stop stop-opacity="1" stop-color="rgb(74.154663%, 92.341614%, 88.973999%)" offset="0.304687"/><stop stop-opacity="1" stop-color="rgb(73.959351%, 92.102051%, 89.10675%)" offset="0.3125"/><stop stop-opacity="1" stop-color="rgb(73.765564%, 91.864014%, 89.239502%)" offset="0.320312"/><stop stop-opacity="1" stop-color="rgb(73.570251%, 91.625977%, 89.372253%)" offset="0.328125"/><stop stop-opacity="1" stop-color="rgb(73.376465%, 91.386414%, 89.505005%)" offset="0.335938"/><stop stop-opacity="1" stop-color="rgb(73.182678%, 91.148376%, 89.639282%)" offset="0.34375"/><stop stop-opacity="1" stop-color="rgb(72.987366%, 90.908813%, 89.772034%)" offset="0.351562"/><stop stop-opacity="1" stop-color="rgb(72.793579%, 90.670776%, 89.904785%)" offset="0.359375"/><stop stop-opacity="1" stop-color="rgb(72.599792%, 90.431213%, 90.037537%)" offset="0.367187"/><stop stop-opacity="1" stop-color="rgb(72.40448%, 90.193176%, 90.170288%)" offset="0.375"/><stop stop-opacity="1" stop-color="rgb(72.210693%, 89.953613%, 90.30304%)" offset="0.382812"/><stop stop-opacity="1" stop-color="rgb(72.015381%, 89.715576%, 90.435791%)" offset="0.390625"/><stop stop-opacity="1" stop-color="rgb(71.821594%, 89.477539%, 90.570068%)" offset="0.398438"/><stop stop-opacity="1" stop-color="rgb(71.627808%, 89.237976%, 90.70282%)" offset="0.40625"/><stop stop-opacity="1" stop-color="rgb(71.432495%, 88.999939%, 90.835571%)" offset="0.414062"/><stop stop-opacity="1" stop-color="rgb(71.238708%, 88.760376%, 90.968323%)" offset="0.421875"/><stop stop-opacity="1" stop-color="rgb(71.044922%, 88.522339%, 91.101074%)" offset="0.429687"/><stop stop-opacity="1" stop-color="rgb(70.849609%, 88.282776%, 91.233826%)" offset="0.4375"/><stop stop-opacity="1" stop-color="rgb(70.655823%, 88.044739%, 91.366577%)" offset="0.445312"/><stop stop-opacity="1" stop-color="rgb(70.46051%, 87.805176%, 91.500854%)" offset="0.453125"/><stop stop-opacity="1" stop-color="rgb(70.266724%, 87.567139%, 91.633606%)" offset="0.460938"/><stop stop-opacity="1" stop-color="rgb(70.072937%, 87.329102%, 91.766357%)" offset="0.46875"/><stop stop-opacity="1" stop-color="rgb(69.877625%, 87.089539%, 91.899109%)" offset="0.476562"/><stop stop-opacity="1" stop-color="rgb(69.683838%, 86.851501%, 92.03186%)" offset="0.484375"/><stop stop-opacity="1" stop-color="rgb(69.490051%, 86.611938%, 92.164612%)" offset="0.492188"/><stop stop-opacity="1" stop-color="rgb(69.294739%, 86.373901%, 92.297363%)" offset="0.5"/><stop stop-opacity="1" stop-color="rgb(69.100952%, 86.134338%, 92.431641%)" offset="0.507812"/><stop stop-opacity="1" stop-color="rgb(68.90564%, 85.896301%, 92.564392%)" offset="0.515625"/><stop stop-opacity="1" stop-color="rgb(68.711853%, 85.658264%, 92.697144%)" offset="0.523438"/><stop stop-opacity="1" stop-color="rgb(68.518066%, 85.418701%, 92.829895%)" offset="0.53125"/><stop stop-opacity="1" stop-color="rgb(68.322754%, 85.180664%, 92.962646%)" offset="0.539063"/><stop stop-opacity="1" stop-color="rgb(68.128967%, 84.941101%, 93.095398%)" offset="0.546875"/><stop stop-opacity="1" stop-color="rgb(67.935181%, 84.703064%, 93.228149%)" offset="0.554688"/><stop stop-opacity="1" stop-color="rgb(67.739868%, 84.463501%, 93.362427%)" offset="0.5625"/><stop stop-opacity="1" stop-color="rgb(67.546082%, 84.225464%, 93.495178%)" offset="0.570312"/><stop stop-opacity="1" stop-color="rgb(67.350769%, 83.985901%, 93.62793%)" offset="0.578125"/><stop stop-opacity="1" stop-color="rgb(67.156982%, 83.747864%, 93.760681%)" offset="0.585937"/><stop stop-opacity="1" stop-color="rgb(66.963196%, 83.509827%, 93.893433%)" offset="0.59375"/><stop stop-opacity="1" stop-color="rgb(66.767883%, 83.270264%, 94.026184%)" offset="0.601562"/><stop stop-opacity="1" stop-color="rgb(66.574097%, 83.032227%, 94.158936%)" offset="0.609375"/><stop stop-opacity="1" stop-color="rgb(66.378784%, 82.792664%, 94.293213%)" offset="0.617188"/><stop stop-opacity="1" stop-color="rgb(66.184998%, 82.554626%, 94.425964%)" offset="0.625"/><stop stop-opacity="1" stop-color="rgb(65.991211%, 82.315063%, 94.558716%)" offset="0.632812"/><stop stop-opacity="1" stop-color="rgb(65.795898%, 82.077026%, 94.691467%)" offset="0.640625"/><stop stop-opacity="1" stop-color="rgb(65.602112%, 81.837463%, 94.824219%)" offset="0.648438"/><stop stop-opacity="1" stop-color="rgb(65.408325%, 81.599426%, 94.95697%)" offset="0.65625"/><stop stop-opacity="1" stop-color="rgb(65.213013%, 81.361389%, 95.089722%)" offset="0.664063"/><stop stop-opacity="1" stop-color="rgb(65.019226%, 81.121826%, 95.223999%)" offset="0.671875"/><stop stop-opacity="1" stop-color="rgb(64.823914%, 80.883789%, 95.35675%)" offset="0.679688"/><stop stop-opacity="1" stop-color="rgb(64.630127%, 80.644226%, 95.489502%)" offset="0.6875"/><stop stop-opacity="1" stop-color="rgb(64.43634%, 80.406189%, 95.622253%)" offset="0.695312"/><stop stop-opacity="1" stop-color="rgb(64.241028%, 80.166626%, 95.755005%)" offset="0.703125"/><stop stop-opacity="1" stop-color="rgb(64.047241%, 79.928589%, 95.887756%)" offset="0.710937"/><stop stop-opacity="1" stop-color="rgb(63.853455%, 79.689026%, 96.020508%)" offset="0.71875"/><stop stop-opacity="1" stop-color="rgb(63.658142%, 79.450989%, 96.154785%)" offset="0.726562"/><stop stop-opacity="1" stop-color="rgb(63.464355%, 79.212952%, 96.287537%)" offset="0.734375"/><stop stop-opacity="1" stop-color="rgb(63.269043%, 78.973389%, 96.420288%)" offset="0.742188"/><stop stop-opacity="1" stop-color="rgb(63.075256%, 78.735352%, 96.55304%)" offset="0.75"/><stop stop-opacity="1" stop-color="rgb(62.88147%, 78.495789%, 96.685791%)" offset="0.757812"/><stop stop-opacity="1" stop-color="rgb(62.686157%, 78.257751%, 96.818542%)" offset="0.765625"/><stop stop-opacity="1" stop-color="rgb(62.492371%, 78.018188%, 96.951294%)" offset="0.773438"/><stop stop-opacity="1" stop-color="rgb(62.298584%, 77.780151%, 97.085571%)" offset="0.78125"/><stop stop-opacity="1" stop-color="rgb(62.103271%, 77.540588%, 97.218323%)" offset="0.789063"/><stop stop-opacity="1" stop-color="rgb(61.909485%, 77.302551%, 97.351074%)" offset="0.796875"/><stop stop-opacity="1" stop-color="rgb(61.714172%, 77.064514%, 97.483826%)" offset="0.804688"/><stop stop-opacity="1" stop-color="rgb(61.520386%, 76.824951%, 97.616577%)" offset="0.8125"/><stop stop-opacity="1" stop-color="rgb(61.326599%, 76.586914%, 97.749329%)" offset="0.820312"/><stop stop-opacity="1" stop-color="rgb(61.131287%, 76.347351%, 97.88208%)" offset="0.828125"/><stop stop-opacity="1" stop-color="rgb(60.9375%, 76.109314%, 98.014832%)" offset="0.835937"/><stop stop-opacity="1" stop-color="rgb(60.743713%, 75.869751%, 98.149109%)" offset="0.84375"/><stop stop-opacity="1" stop-color="rgb(60.548401%, 75.631714%, 98.28186%)" offset="0.851562"/><stop stop-opacity="1" stop-color="rgb(60.354614%, 75.392151%, 98.414612%)" offset="0.859375"/><stop stop-opacity="1" stop-color="rgb(60.159302%, 75.154114%, 98.547363%)" offset="0.867188"/><stop stop-opacity="1" stop-color="rgb(59.965515%, 74.916077%, 98.680115%)" offset="0.875"/><stop stop-opacity="1" stop-color="rgb(59.771729%, 74.676514%, 98.812866%)" offset="0.882812"/><stop stop-opacity="1" stop-color="rgb(59.576416%, 74.438477%, 98.945618%)" offset="0.890625"/><stop stop-opacity="1" stop-color="rgb(59.382629%, 74.198914%, 99.079895%)" offset="0.898438"/><stop stop-opacity="1" stop-color="rgb(59.188843%, 73.960876%, 99.212646%)" offset="0.90625"/><stop stop-opacity="1" stop-color="rgb(58.99353%, 73.721313%, 99.345398%)" offset="0.914063"/><stop stop-opacity="1" stop-color="rgb(58.799744%, 73.483276%, 99.478149%)" offset="0.921875"/><stop stop-opacity="1" stop-color="rgb(58.604431%, 73.243713%, 99.610901%)" offset="0.929688"/><stop stop-opacity="1" stop-color="rgb(58.410645%, 73.005676%, 99.743652%)" offset="0.9375"/><stop stop-opacity="1" stop-color="rgb(58.177185%, 72.717285%, 99.905396%)" offset="1"/></linearGradient><clipPath id="ed6a9c0808"><rect x="0" width="1592" y="0" height="712"/></clipPath><clipPath id="7f88756a4d"><path d="M 0 0.0429688 L 1591.5 0.0429688 L 1591.5 711.457031 L 0 711.457031 Z M 0 0.0429688 " clip-rule="nonzero"/></clipPath><clipPath id="70b3a77018"><rect x="0" width="1592" y="0" height="712"/></clipPath><clipPath id="e8dba07e45"><rect x="0" width="1592" y="0" height="712"/></clipPath><mask id="a8d3b39e78"><g filter="url(#e5524190bc)"><g transform="matrix(1, 0, 0, 1, 0, 0.000000000000044569)"><g clip-path="url(#e8dba07e45)"><g clip-path="url(#7f88756a4d)"><g transform="matrix(1, 0, 0, 1, 0, 0.000000000000044569)"><g clip-path="url(#70b3a77018)"><g fill="#000000" fill-opacity="1"><g transform="translate(79.940621, 349.594262)"><g><path d="M 169.734375 -188.65625 L 169.734375 -183.328125 C 166.359375 -182.617188 162.757812 -180.578125 158.9375 -177.203125 C 155.125 -173.828125 151.707031 -168.140625 148.6875 -160.140625 L 86.0625 1.328125 C 85.707031 1.328125 85.351562 1.328125 85 1.328125 C 84.644531 1.328125 84.289062 1.328125 83.9375 1.328125 C 83.582031 1.328125 83.226562 1.328125 82.875 1.328125 C 82.519531 1.328125 82.164062 1.328125 81.8125 1.328125 L 16.78125 -166.28125 C 14.125 -173.03125 11.109375 -177.515625 7.734375 -179.734375 C 4.359375 -181.953125 1.25 -183.148438 -1.59375 -183.328125 L -1.59375 -188.65625 C 1.957031 -188.476562 6.351562 -188.300781 11.59375 -188.125 C 16.832031 -187.945312 21.9375 -187.859375 26.90625 -187.859375 C 33.84375 -187.859375 40.328125 -187.945312 46.359375 -188.125 C 52.398438 -188.300781 57.285156 -188.476562 61.015625 -188.65625 L 61.015625 -183.328125 C 54.984375 -183.148438 50.410156 -182.4375 47.296875 -181.1875 C 44.191406 -179.945312 42.503906 -177.769531 42.234375 -174.65625 C 41.960938 -171.550781 42.984375 -166.984375 45.296875 -160.953125 L 94.859375 -29.578125 L 90.59375 -25.046875 L 136.96875 -145.484375 C 140.695312 -155.078125 142.472656 -162.582031 142.296875 -168 C 142.117188 -173.425781 140.070312 -177.289062 136.15625 -179.59375 C 132.25 -181.90625 126.566406 -183.148438 119.109375 -183.328125 L 119.109375 -188.65625 C 124.265625 -188.476562 129.503906 -188.300781 134.828125 -188.125 C 140.160156 -187.945312 145.132812 -187.859375 149.75 -187.859375 C 154.375 -187.859375 158.195312 -187.945312 161.21875 -188.125 C 164.238281 -188.300781 167.078125 -188.476562 169.734375 -188.65625 Z M 169.734375 -188.65625 "/></g></g></g><g fill="#000000" fill-opacity="1"><g transform="translate(254.206627, 349.594262)"><g><path d="M 38.09375 -203.84375 C 42.71875 -203.84375 46.71875 -202.15625 50.09375 -198.78125 C 53.46875 -195.40625 55.15625 -191.410156 55.15625 -186.796875 C 55.15625 -182.171875 53.46875 -178.171875 50.09375 -174.796875 C 46.71875 -171.421875 42.71875 -169.734375 38.09375 -169.734375 C 33.476562 -169.734375 29.484375 -171.421875 26.109375 -174.796875 C 22.734375 -178.171875 21.046875 -182.171875 21.046875 -186.796875 C 21.046875 -191.410156 22.734375 -195.40625 26.109375 -198.78125 C 29.484375 -202.15625 33.476562 -203.84375 38.09375 -203.84375 Z M 51.96875 -140.15625 L 51.96875 -24.78125 C 51.96875 -17.320312 53.519531 -12.257812 56.625 -9.59375 C 59.726562 -6.925781 64.925781 -5.59375 72.21875 -5.59375 L 72.21875 0 C 69.195312 -0.175781 64.617188 -0.394531 58.484375 -0.65625 C 52.359375 -0.925781 46.1875 -1.0625 39.96875 -1.0625 C 33.925781 -1.0625 27.796875 -0.925781 21.578125 -0.65625 C 15.359375 -0.394531 10.742188 -0.175781 7.734375 0 L 7.734375 -5.59375 C 15.015625 -5.59375 20.207031 -6.925781 23.3125 -9.59375 C 26.425781 -12.257812 27.984375 -17.320312 27.984375 -24.78125 L 27.984375 -108.1875 C 27.984375 -116.175781 26.5625 -122.082031 23.71875 -125.90625 C 20.875 -129.726562 15.546875 -131.640625 7.734375 -131.640625 L 7.734375 -137.234375 C 13.410156 -136.703125 18.914062 -136.4375 24.25 -136.4375 C 29.394531 -136.4375 34.320312 -136.742188 39.03125 -137.359375 C 43.738281 -137.984375 48.050781 -138.914062 51.96875 -140.15625 Z M 51.96875 -140.15625 "/></g></g></g><g fill="#000000" fill-opacity="1"><g transform="translate(338.675079, 349.594262)"><g><path d="M 50.09375 -208.90625 L 50.09375 -24.78125 C 50.09375 -17.320312 51.644531 -12.257812 54.75 -9.59375 C 57.863281 -6.925781 63.0625 -5.59375 70.34375 -5.59375 L 70.34375 0 C 67.320312 -0.175781 62.75 -0.394531 56.625 -0.65625 C 50.5 -0.925781 44.328125 -1.0625 38.109375 -1.0625 C 32.066406 -1.0625 25.9375 -0.925781 19.71875 -0.65625 C 13.5 -0.394531 8.878906 -0.175781 5.859375 0 L 5.859375 -5.59375 C 13.140625 -5.59375 18.332031 -6.925781 21.4375 -9.59375 C 24.550781 -12.257812 26.109375 -17.320312 26.109375 -24.78125 L 26.109375 -176.9375 C 26.109375 -184.925781 24.6875 -190.832031 21.84375 -194.65625 C 19.007812 -198.476562 13.679688 -200.390625 5.859375 -200.390625 L 5.859375 -205.984375 C 11.546875 -205.453125 17.054688 -205.1875 22.390625 -205.1875 C 27.535156 -205.1875 32.460938 -205.492188 37.171875 -206.109375 C 41.878906 -206.734375 46.1875 -207.664062 50.09375 -208.90625 Z M 50.09375 -208.90625 "/></g></g></g><g fill="#000000" fill-opacity="1"><g transform="translate(421.278348, 349.594262)"><g><path d="M 50.09375 -208.90625 L 50.09375 -24.78125 C 50.09375 -17.320312 51.644531 -12.257812 54.75 -9.59375 C 57.863281 -6.925781 63.0625 -5.59375 70.34375 -5.59375 L 70.34375 0 C 67.320312 -0.175781 62.75 -0.394531 56.625 -0.65625 C 50.5 -0.925781 44.328125 -1.0625 38.109375 -1.0625 C 32.066406 -1.0625 25.9375 -0.925781 19.71875 -0.65625 C 13.5 -0.394531 8.878906 -0.175781 5.859375 0 L 5.859375 -5.59375 C 13.140625 -5.59375 18.332031 -6.925781 21.4375 -9.59375 C 24.550781 -12.257812 26.109375 -17.320312 26.109375 -24.78125 L 26.109375 -176.9375 C 26.109375 -184.925781 24.6875 -190.832031 21.84375 -194.65625 C 19.007812 -198.476562 13.679688 -200.390625 5.859375 -200.390625 L 5.859375 -205.984375 C 11.546875 -205.453125 17.054688 -205.1875 22.390625 -205.1875 C 27.535156 -205.1875 32.460938 -205.492188 37.171875 -206.109375 C 41.878906 -206.734375 46.1875 -207.664062 50.09375 -208.90625 Z M 50.09375 -208.90625 "/></g></g></g><g fill="#000000" fill-opacity="1"><g transform="translate(503.881572, 349.594262)"><g><path d="M 45.5625 1.859375 C 38.28125 1.859375 31.972656 0.484375 26.640625 -2.265625 C 21.316406 -5.015625 17.273438 -8.875 14.515625 -13.84375 C 11.765625 -18.820312 10.390625 -24.597656 10.390625 -31.171875 C 10.390625 -38.992188 12.207031 -45.390625 15.84375 -50.359375 C 19.488281 -55.335938 24.15625 -59.335938 29.84375 -62.359375 C 35.53125 -65.378906 41.523438 -67.910156 47.828125 -69.953125 C 54.140625 -71.992188 60.132812 -73.945312 65.8125 -75.8125 C 71.5 -77.675781 76.160156 -79.847656 79.796875 -82.328125 C 83.441406 -84.816406 85.265625 -88.109375 85.265625 -92.203125 L 85.265625 -108.71875 C 85.265625 -116.175781 84.15625 -121.859375 81.9375 -125.765625 C 79.71875 -129.679688 76.742188 -132.300781 73.015625 -133.625 C 69.285156 -134.957031 65.109375 -135.625 60.484375 -135.625 C 56.046875 -135.625 51.296875 -135.003906 46.234375 -133.765625 C 41.171875 -132.523438 37.128906 -129.953125 34.109375 -126.046875 C 37.484375 -125.328125 40.410156 -123.546875 42.890625 -120.703125 C 45.378906 -117.867188 46.625 -114.226562 46.625 -109.78125 C 46.625 -105.34375 45.203125 -101.832031 42.359375 -99.25 C 39.523438 -96.675781 35.882812 -95.390625 31.4375 -95.390625 C 26.289062 -95.390625 22.515625 -97.03125 20.109375 -100.3125 C 17.710938 -103.601562 16.515625 -107.296875 16.515625 -111.390625 C 16.515625 -116.003906 17.671875 -119.734375 19.984375 -122.578125 C 22.296875 -125.421875 25.226562 -128.082031 28.78125 -130.5625 C 32.863281 -133.40625 38.144531 -135.847656 44.625 -137.890625 C 51.113281 -139.941406 58.445312 -140.96875 66.625 -140.96875 C 73.90625 -140.96875 80.117188 -140.125 85.265625 -138.4375 C 90.421875 -136.75 94.6875 -134.304688 98.0625 -131.109375 C 102.675781 -126.835938 105.691406 -121.640625 107.109375 -115.515625 C 108.535156 -109.390625 109.25 -102.0625 109.25 -93.53125 L 109.25 -19.453125 C 109.25 -15.015625 109.914062 -11.816406 111.25 -9.859375 C 112.582031 -7.898438 114.671875 -6.921875 117.515625 -6.921875 C 119.460938 -6.921875 121.320312 -7.363281 123.09375 -8.25 C 124.875 -9.144531 127.007812 -10.570312 129.5 -12.53125 L 132.4375 -8 C 128.707031 -5.15625 125.15625 -2.800781 121.78125 -0.9375 C 118.40625 0.925781 113.875 1.859375 108.1875 1.859375 C 103.03125 1.859375 98.765625 0.972656 95.390625 -0.796875 C 92.015625 -2.578125 89.484375 -5.195312 87.796875 -8.65625 C 86.109375 -12.125 85.265625 -16.519531 85.265625 -21.84375 C 80.472656 -13.851562 74.742188 -7.90625 68.078125 -4 C 61.421875 -0.09375 53.914062 1.859375 45.5625 1.859375 Z M 55.15625 -8.796875 C 61.019531 -8.796875 66.484375 -10.484375 71.546875 -13.859375 C 76.609375 -17.234375 81.179688 -22.296875 85.265625 -29.046875 L 85.265625 -81.265625 C 83.140625 -78.253906 80.03125 -75.722656 75.9375 -73.671875 C 71.851562 -71.628906 67.410156 -69.585938 62.609375 -67.546875 C 57.816406 -65.503906 53.242188 -63.101562 48.890625 -60.34375 C 44.546875 -57.59375 40.953125 -54 38.109375 -49.5625 C 35.265625 -45.125 33.84375 -39.351562 33.84375 -32.25 C 33.84375 -25.132812 35.75 -19.445312 39.5625 -15.1875 C 43.382812 -10.925781 48.582031 -8.796875 55.15625 -8.796875 Z M 55.15625 -8.796875 "/></g></g></g><g fill="#000000" fill-opacity="1"><g transform="translate(79.940621, 581.235142)"><g><path d="M 86.0625 -190 L 151.09375 -22.390625 C 153.75 -15.628906 156.765625 -11.140625 160.140625 -8.921875 C 163.515625 -6.703125 166.625 -5.503906 169.46875 -5.328125 L 169.46875 0 C 165.914062 -0.351562 161.5625 -0.570312 156.40625 -0.65625 C 151.257812 -0.75 146.113281 -0.796875 140.96875 -0.796875 C 134.03125 -0.796875 127.539062 -0.75 121.5 -0.65625 C 115.46875 -0.570312 110.585938 -0.351562 106.859375 0 L 106.859375 -5.328125 C 115.910156 -5.679688 121.679688 -7.234375 124.171875 -9.984375 C 126.660156 -12.742188 126.128906 -18.65625 122.578125 -27.71875 L 73.015625 -160.140625 L 77.28125 -163.609375 L 30.90625 -43.171875 C 28.0625 -36.066406 26.375 -30.070312 25.84375 -25.1875 C 25.3125 -20.300781 25.800781 -16.4375 27.3125 -13.59375 C 28.820312 -10.75 31.394531 -8.703125 35.03125 -7.453125 C 38.675781 -6.210938 43.253906 -5.503906 48.765625 -5.328125 L 48.765625 0 C 43.785156 -0.351562 38.585938 -0.570312 33.171875 -0.65625 C 27.753906 -0.75 22.738281 -0.796875 18.125 -0.796875 C 13.675781 -0.796875 9.894531 -0.75 6.78125 -0.65625 C 3.675781 -0.570312 0.796875 -0.351562 -1.859375 0 L -1.859375 -5.328125 C 1.691406 -6.210938 5.332031 -8.296875 9.0625 -11.578125 C 12.789062 -14.867188 16.164062 -20.515625 19.1875 -28.515625 L 81.8125 -190 C 82.519531 -190 83.226562 -190 83.9375 -190 C 84.644531 -190 85.351562 -190 86.0625 -190 Z M 118.578125 -76.75 L 118.578125 -71.40625 L 39.171875 -71.40625 L 41.828125 -76.75 Z M 118.578125 -76.75 "/></g></g></g><g fill="#000000" fill-opacity="1"><g transform="translate(254.206627, 581.235142)"><g><path d="M 129.5 -137.234375 L 129.5 -131.90625 C 126.125 -131.550781 123.015625 -130.039062 120.171875 -127.375 C 117.328125 -124.707031 114.664062 -120 112.1875 -113.25 L 68.484375 1.328125 C 67.773438 1.328125 67.0625 1.328125 66.34375 1.328125 C 65.632812 1.328125 64.835938 1.328125 63.953125 1.328125 L 14.921875 -116.71875 C 12.078125 -123.644531 9.273438 -127.863281 6.515625 -129.375 C 3.765625 -130.882812 1.414062 -131.640625 -0.53125 -131.640625 L -0.53125 -137.234375 C 3.019531 -137.054688 6.703125 -136.832031 10.515625 -136.5625 C 14.335938 -136.300781 18.472656 -136.171875 22.921875 -136.171875 C 28.421875 -136.171875 34.234375 -136.257812 40.359375 -136.4375 C 46.492188 -136.613281 52.226562 -136.878906 57.5625 -137.234375 L 57.5625 -131.640625 C 53.113281 -131.640625 49.15625 -131.328125 45.6875 -130.703125 C 42.226562 -130.078125 40.007812 -128.34375 39.03125 -125.5 C 38.0625 -122.664062 38.90625 -117.78125 41.5625 -110.84375 L 74.875 -28.515625 L 73.28125 -27.1875 L 103.65625 -106.859375 C 105.96875 -112.710938 106.898438 -117.375 106.453125 -120.84375 C 106.003906 -124.3125 104.226562 -126.929688 101.125 -128.703125 C 98.019531 -130.484375 93.269531 -131.550781 86.875 -131.90625 L 86.875 -137.234375 C 90.070312 -137.054688 92.820312 -136.921875 95.125 -136.828125 C 97.4375 -136.742188 99.703125 -136.65625 101.921875 -136.5625 C 104.140625 -136.476562 106.582031 -136.4375 109.25 -136.4375 C 113.332031 -136.4375 117.015625 -136.523438 120.296875 -136.703125 C 123.585938 -136.878906 126.65625 -137.054688 129.5 -137.234375 Z M 129.5 -137.234375 "/></g></g></g><g fill="#000000" fill-opacity="1"><g transform="translate(390.901546, 581.235142)"><g><path d="M 45.5625 1.859375 C 38.28125 1.859375 31.972656 0.484375 26.640625 -2.265625 C 21.316406 -5.015625 17.273438 -8.875 14.515625 -13.84375 C 11.765625 -18.820312 10.390625 -24.597656 10.390625 -31.171875 C 10.390625 -38.992188 12.207031 -45.390625 15.84375 -50.359375 C 19.488281 -55.335938 24.15625 -59.335938 29.84375 -62.359375 C 35.53125 -65.378906 41.523438 -67.910156 47.828125 -69.953125 C 54.140625 -71.992188 60.132812 -73.945312 65.8125 -75.8125 C 71.5 -77.675781 76.160156 -79.847656 79.796875 -82.328125 C 83.441406 -84.816406 85.265625 -88.109375 85.265625 -92.203125 L 85.265625 -108.71875 C 85.265625 -116.175781 84.15625 -121.859375 81.9375 -125.765625 C 79.71875 -129.679688 76.742188 -132.300781 73.015625 -133.625 C 69.285156 -134.957031 65.109375 -135.625 60.484375 -135.625 C 56.046875 -135.625 51.296875 -135.003906 46.234375 -133.765625 C 41.171875 -132.523438 37.128906 -129.953125 34.109375 -126.046875 C 37.484375 -125.328125 40.410156 -123.546875 42.890625 -120.703125 C 45.378906 -117.867188 46.625 -114.226562 46.625 -109.78125 C 46.625 -105.34375 45.203125 -101.832031 42.359375 -99.25 C 39.523438 -96.675781 35.882812 -95.390625 31.4375 -95.390625 C 26.289062 -95.390625 22.515625 -97.03125 20.109375 -100.3125 C 17.710938 -103.601562 16.515625 -107.296875 16.515625 -111.390625 C 16.515625 -116.003906 17.671875 -119.734375 19.984375 -122.578125 C 22.296875 -125.421875 25.226562 -128.082031 28.78125 -130.5625 C 32.863281 -133.40625 38.144531 -135.847656 44.625 -137.890625 C 51.113281 -139.941406 58.445312 -140.96875 66.625 -140.96875 C 73.90625 -140.96875 80.117188 -140.125 85.265625 -138.4375 C 90.421875 -136.75 94.6875 -134.304688 98.0625 -131.109375 C 102.675781 -126.835938 105.691406 -121.640625 107.109375 -115.515625 C 108.535156 -109.390625 109.25 -102.0625 109.25 -93.53125 L 109.25 -19.453125 C 109.25 -15.015625 109.914062 -11.816406 111.25 -9.859375 C 112.582031 -7.898438 114.671875 -6.921875 117.515625 -6.921875 C 119.460938 -6.921875 121.320312 -7.363281 123.09375 -8.25 C 124.875 -9.144531 127.007812 -10.570312 129.5 -12.53125 L 132.4375 -8 C 128.707031 -5.15625 125.15625 -2.800781 121.78125 -0.9375 C 118.40625 0.925781 113.875 1.859375 108.1875 1.859375 C 103.03125 1.859375 98.765625 0.972656 95.390625 -0.796875 C 92.015625 -2.578125 89.484375 -5.195312 87.796875 -8.65625 C 86.109375 -12.125 85.265625 -16.519531 85.265625 -21.84375 C 80.472656 -13.851562 74.742188 -7.90625 68.078125 -4 C 61.421875 -0.09375 53.914062 1.859375 45.5625 1.859375 Z M 55.15625 -8.796875 C 61.019531 -8.796875 66.484375 -10.484375 71.546875 -13.859375 C 76.609375 -17.234375 81.179688 -22.296875 85.265625 -29.046875 L 85.265625 -81.265625 C 83.140625 -78.253906 80.03125 -75.722656 75.9375 -73.671875 C 71.851562 -71.628906 67.410156 -69.585938 62.609375 -67.546875 C 57.816406 -65.503906 53.242188 -63.101562 48.890625 -60.34375 C 44.546875 -57.59375 40.953125 -54 38.109375 -49.5625 C 35.265625 -45.125 33.84375 -39.351562 33.84375 -32.25 C 33.84375 -25.132812 35.75 -19.445312 39.5625 -15.1875 C 43.382812 -10.925781 48.582031 -8.796875 55.15625 -8.796875 Z M 55.15625 -8.796875 "/></g></g></g><g fill="#000000" fill-opacity="1"><g transform="translate(529.994668, 581.235142)"><g><path d="M 97.265625 -140.96875 C 104.015625 -140.96875 109.65625 -140.078125 114.1875 -138.296875 C 118.71875 -136.515625 122.488281 -134.03125 125.5 -130.84375 C 128.875 -127.28125 131.269531 -122.832031 132.6875 -117.5 C 134.113281 -112.175781 134.828125 -104.984375 134.828125 -95.921875 L 134.828125 -24.78125 C 134.828125 -17.320312 136.378906 -12.257812 139.484375 -9.59375 C 142.597656 -6.925781 147.796875 -5.59375 155.078125 -5.59375 L 155.078125 0 C 152.066406 -0.175781 147.453125 -0.394531 141.234375 -0.65625 C 135.015625 -0.925781 128.972656 -1.0625 123.109375 -1.0625 C 117.242188 -1.0625 111.515625 -0.925781 105.921875 -0.65625 C 100.328125 -0.394531 96.109375 -0.175781 93.265625 0 L 93.265625 -5.59375 C 99.660156 -5.59375 104.1875 -6.925781 106.84375 -9.59375 C 109.507812 -12.257812 110.84375 -17.320312 110.84375 -24.78125 L 110.84375 -101.796875 C 110.84375 -107.296875 110.398438 -112.351562 109.515625 -116.96875 C 108.628906 -121.59375 106.628906 -125.328125 103.515625 -128.171875 C 100.410156 -131.015625 95.660156 -132.4375 89.265625 -132.4375 C 81.804688 -132.4375 75.273438 -130.300781 69.671875 -126.03125 C 64.078125 -121.769531 59.726562 -115.953125 56.625 -108.578125 C 53.519531 -101.210938 51.96875 -93 51.96875 -83.9375 L 51.96875 -24.78125 C 51.96875 -17.320312 53.296875 -12.257812 55.953125 -9.59375 C 58.617188 -6.925781 63.148438 -5.59375 69.546875 -5.59375 L 69.546875 0 C 66.703125 -0.175781 62.484375 -0.394531 56.890625 -0.65625 C 51.296875 -0.925781 45.566406 -1.0625 39.703125 -1.0625 C 33.835938 -1.0625 27.796875 -0.925781 21.578125 -0.65625 C 15.359375 -0.394531 10.742188 -0.175781 7.734375 0 L 7.734375 -5.59375 C 15.015625 -5.59375 20.207031 -6.925781 23.3125 -9.59375 C 26.425781 -12.257812 27.984375 -17.320312 27.984375 -24.78125 L 27.984375 -108.1875 C 27.984375 -116.175781 26.5625 -122.082031 23.71875 -125.90625 C 20.875 -129.726562 15.546875 -131.640625 7.734375 -131.640625 L 7.734375 -137.234375 C 13.410156 -136.703125 18.914062 -136.4375 24.25 -136.4375 C 29.394531 -136.4375 34.320312 -136.742188 39.03125 -137.359375 C 43.738281 -137.984375 48.050781 -138.914062 51.96875 -140.15625 L 51.96875 -108.71875 C 56.582031 -120.800781 63.019531 -129.195312 71.28125 -133.90625 C 79.539062 -138.613281 88.203125 -140.96875 97.265625 -140.96875 Z M 97.265625 -140.96875 "/></g></g></g><g fill="#000000" fill-opacity="1"><g transform="translate(695.467406, 581.235142)"><g><path d="M 50.625 -181.46875 L 50.625 -136.96875 L 90.0625 -136.96875 L 90.0625 -131.640625 L 50.625 -131.640625 L 50.625 -28.515625 C 50.625 -20.160156 52.132812 -14.296875 55.15625 -10.921875 C 58.175781 -7.546875 62.351562 -5.859375 67.6875 -5.859375 C 73.007812 -5.859375 77.625 -8.035156 81.53125 -12.390625 C 85.445312 -16.742188 88.828125 -24.070312 91.671875 -34.375 L 97 -33.046875 C 95.21875 -22.742188 91.707031 -14.035156 86.46875 -6.921875 C 81.226562 0.179688 73.191406 3.734375 62.359375 3.734375 C 56.316406 3.734375 51.335938 2.976562 47.421875 1.46875 C 43.515625 -0.0390625 40.054688 -2.21875 37.046875 -5.0625 C 33.128906 -9.144531 30.414062 -14.03125 28.90625 -19.71875 C 27.394531 -25.40625 26.640625 -32.957031 26.640625 -42.375 L 26.640625 -131.640625 L 1.0625 -131.640625 L 1.0625 -136.96875 L 26.640625 -136.96875 L 26.640625 -177.734375 C 31.085938 -177.910156 35.351562 -178.265625 39.4375 -178.796875 C 43.519531 -179.328125 47.25 -180.21875 50.625 -181.46875 Z M 50.625 -181.46875 "/></g></g></g><g fill="#000000" fill-opacity="1"><g transform="translate(796.190038, 581.235142)"><g><path d="M 56.765625 50.09375 C 47.347656 50.09375 38.460938 49.113281 30.109375 47.15625 C 21.765625 45.207031 15.054688 42.144531 9.984375 37.96875 C 4.921875 33.789062 2.390625 28.503906 2.390625 22.109375 C 2.390625 15.898438 4.878906 10.570312 9.859375 6.125 C 14.835938 1.6875 21.585938 -1.6875 30.109375 -4 L 31.703125 0.265625 C 27.796875 1.503906 24.6875 3.988281 22.375 7.71875 C 20.070312 11.457031 18.921875 15.632812 18.921875 20.25 C 18.921875 28.425781 22.691406 34.6875 30.234375 39.03125 C 37.785156 43.382812 47.601562 45.5625 59.6875 45.5625 C 67.6875 45.5625 75.503906 44.539062 83.140625 42.5 C 90.773438 40.457031 97.078125 37.035156 102.046875 32.234375 C 107.023438 27.441406 109.515625 21.140625 109.515625 13.328125 C 109.515625 7.460938 107.425781 2.625 103.25 -1.1875 C 99.082031 -5.007812 90.867188 -6.921875 78.609375 -6.921875 L 58.890625 -6.921875 C 53.203125 -6.921875 47.691406 -7.363281 42.359375 -8.25 C 37.035156 -9.144531 32.6875 -11.015625 29.3125 -13.859375 C 25.9375 -16.703125 24.25 -21.050781 24.25 -26.90625 C 24.25 -32.945312 26.734375 -38.765625 31.703125 -44.359375 C 36.679688 -49.960938 45.832031 -55.691406 59.15625 -61.546875 L 62.359375 -59.15625 C 56.316406 -55.957031 51.070312 -52.710938 46.625 -49.421875 C 42.1875 -46.140625 39.96875 -42.28125 39.96875 -37.84375 C 39.96875 -32.15625 44.234375 -29.3125 52.765625 -29.3125 L 86.0625 -29.3125 C 93.53125 -29.3125 100.414062 -28.242188 106.71875 -26.109375 C 113.03125 -23.984375 118.140625 -20.609375 122.046875 -15.984375 C 125.953125 -11.367188 127.90625 -5.332031 127.90625 2.125 C 127.90625 10.476562 125.238281 18.296875 119.90625 25.578125 C 114.582031 32.859375 106.632812 38.765625 96.0625 43.296875 C 85.488281 47.828125 72.390625 50.09375 56.765625 50.09375 Z M 58.09375 -56.765625 C 49.382812 -56.765625 41.476562 -58.226562 34.375 -61.15625 C 27.269531 -64.082031 21.671875 -68.65625 17.578125 -74.875 C 13.492188 -81.09375 11.453125 -89.085938 11.453125 -98.859375 C 11.453125 -108.628906 13.492188 -116.625 17.578125 -122.84375 C 21.671875 -129.0625 27.269531 -133.632812 34.375 -136.5625 C 41.476562 -139.5 49.382812 -140.96875 58.09375 -140.96875 C 66.96875 -140.96875 74.914062 -139.5 81.9375 -136.5625 C 88.957031 -133.632812 94.507812 -129.0625 98.59375 -122.84375 C 102.675781 -116.625 104.71875 -108.628906 104.71875 -98.859375 C 104.71875 -89.085938 102.675781 -81.09375 98.59375 -74.875 C 94.507812 -68.65625 88.957031 -64.082031 81.9375 -61.15625 C 74.914062 -58.226562 66.96875 -56.765625 58.09375 -56.765625 Z M 58.09375 -61.546875 C 64.84375 -61.546875 70.125 -64.210938 73.9375 -69.546875 C 77.757812 -74.878906 79.671875 -84.648438 79.671875 -98.859375 C 79.671875 -113.066406 77.757812 -122.835938 73.9375 -128.171875 C 70.125 -133.503906 64.84375 -136.171875 58.09375 -136.171875 C 51.519531 -136.171875 46.273438 -133.503906 42.359375 -128.171875 C 38.453125 -122.835938 36.5 -113.066406 36.5 -98.859375 C 36.5 -84.648438 38.453125 -74.878906 42.359375 -69.546875 C 46.273438 -64.210938 51.519531 -61.546875 58.09375 -61.546875 Z M 96.46875 -118.84375 L 91.671875 -120.703125 C 94.148438 -126.742188 98.410156 -132.070312 104.453125 -136.6875 C 110.492188 -141.3125 116.800781 -143.625 123.375 -143.625 C 127.988281 -143.625 131.71875 -142.335938 134.5625 -139.765625 C 137.40625 -137.191406 138.828125 -133.328125 138.828125 -128.171875 C 138.828125 -122.660156 137.359375 -118.796875 134.421875 -116.578125 C 131.492188 -114.359375 128.519531 -113.25 125.5 -113.25 C 122.84375 -113.25 120.359375 -114.179688 118.046875 -116.046875 C 115.734375 -117.910156 114.398438 -120.882812 114.046875 -124.96875 C 113.691406 -129.0625 114.9375 -134.304688 117.78125 -140.703125 L 121.25 -139.890625 C 113.78125 -137.046875 108.445312 -134.070312 105.25 -130.96875 C 102.050781 -127.863281 99.125 -123.820312 96.46875 -118.84375 Z M 96.46875 -118.84375 "/></g></g></g><g fill="#000000" fill-opacity="1"><g transform="translate(943.276937, 581.235142)"><g><path d="M 45.5625 1.859375 C 38.28125 1.859375 31.972656 0.484375 26.640625 -2.265625 C 21.316406 -5.015625 17.273438 -8.875 14.515625 -13.84375 C 11.765625 -18.820312 10.390625 -24.597656 10.390625 -31.171875 C 10.390625 -38.992188 12.207031 -45.390625 15.84375 -50.359375 C 19.488281 -55.335938 24.15625 -59.335938 29.84375 -62.359375 C 35.53125 -65.378906 41.523438 -67.910156 47.828125 -69.953125 C 54.140625 -71.992188 60.132812 -73.945312 65.8125 -75.8125 C 71.5 -77.675781 76.160156 -79.847656 79.796875 -82.328125 C 83.441406 -84.816406 85.265625 -88.109375 85.265625 -92.203125 L 85.265625 -108.71875 C 85.265625 -116.175781 84.15625 -121.859375 81.9375 -125.765625 C 79.71875 -129.679688 76.742188 -132.300781 73.015625 -133.625 C 69.285156 -134.957031 65.109375 -135.625 60.484375 -135.625 C 56.046875 -135.625 51.296875 -135.003906 46.234375 -133.765625 C 41.171875 -132.523438 37.128906 -129.953125 34.109375 -126.046875 C 37.484375 -125.328125 40.410156 -123.546875 42.890625 -120.703125 C 45.378906 -117.867188 46.625 -114.226562 46.625 -109.78125 C 46.625 -105.34375 45.203125 -101.832031 42.359375 -99.25 C 39.523438 -96.675781 35.882812 -95.390625 31.4375 -95.390625 C 26.289062 -95.390625 22.515625 -97.03125 20.109375 -100.3125 C 17.710938 -103.601562 16.515625 -107.296875 16.515625 -111.390625 C 16.515625 -116.003906 17.671875 -119.734375 19.984375 -122.578125 C 22.296875 -125.421875 25.226562 -128.082031 28.78125 -130.5625 C 32.863281 -133.40625 38.144531 -135.847656 44.625 -137.890625 C 51.113281 -139.941406 58.445312 -140.96875 66.625 -140.96875 C 73.90625 -140.96875 80.117188 -140.125 85.265625 -138.4375 C 90.421875 -136.75 94.6875 -134.304688 98.0625 -131.109375 C 102.675781 -126.835938 105.691406 -121.640625 107.109375 -115.515625 C 108.535156 -109.390625 109.25 -102.0625 109.25 -93.53125 L 109.25 -19.453125 C 109.25 -15.015625 109.914062 -11.816406 111.25 -9.859375 C 112.582031 -7.898438 114.671875 -6.921875 117.515625 -6.921875 C 119.460938 -6.921875 121.320312 -7.363281 123.09375 -8.25 C 124.875 -9.144531 127.007812 -10.570312 129.5 -12.53125 L 132.4375 -8 C 128.707031 -5.15625 125.15625 -2.800781 121.78125 -0.9375 C 118.40625 0.925781 113.875 1.859375 108.1875 1.859375 C 103.03125 1.859375 98.765625 0.972656 95.390625 -0.796875 C 92.015625 -2.578125 89.484375 -5.195312 87.796875 -8.65625 C 86.109375 -12.125 85.265625 -16.519531 85.265625 -21.84375 C 80.472656 -13.851562 74.742188 -7.90625 68.078125 -4 C 61.421875 -0.09375 53.914062 1.859375 45.5625 1.859375 Z M 55.15625 -8.796875 C 61.019531 -8.796875 66.484375 -10.484375 71.546875 -13.859375 C 76.609375 -17.234375 81.179688 -22.296875 85.265625 -29.046875 L 85.265625 -81.265625 C 83.140625 -78.253906 80.03125 -75.722656 75.9375 -73.671875 C 71.851562 -71.628906 67.410156 -69.585938 62.609375 -67.546875 C 57.816406 -65.503906 53.242188 -63.101562 48.890625 -60.34375 C 44.546875 -57.59375 40.953125 -54 38.109375 -49.5625 C 35.265625 -45.125 33.84375 -39.351562 33.84375 -32.25 C 33.84375 -25.132812 35.75 -19.445312 39.5625 -15.1875 C 43.382812 -10.925781 48.582031 -8.796875 55.15625 -8.796875 Z M 55.15625 -8.796875 "/></g></g></g><g fill="#000000" fill-opacity="1"><g transform="translate(1082.370104, 581.235142)"><g><path d="M 90.59375 -140.96875 C 95.394531 -140.96875 99.613281 -139.988281 103.25 -138.03125 C 106.894531 -136.070312 109.738281 -133.535156 111.78125 -130.421875 C 113.820312 -127.316406 114.84375 -123.8125 114.84375 -119.90625 C 114.84375 -115.46875 113.46875 -111.5625 110.71875 -108.1875 C 107.96875 -104.8125 104.28125 -103.125 99.65625 -103.125 C 95.925781 -103.125 92.640625 -104.320312 89.796875 -106.71875 C 86.953125 -109.113281 85.53125 -112.535156 85.53125 -116.984375 C 85.53125 -120.359375 86.460938 -123.242188 88.328125 -125.640625 C 90.191406 -128.035156 92.28125 -129.945312 94.59375 -131.375 C 93.351562 -133.144531 91.488281 -134.03125 89 -134.03125 C 83.488281 -134.03125 78.425781 -132.382812 73.8125 -129.09375 C 69.195312 -125.8125 65.289062 -121.59375 62.09375 -116.4375 C 58.894531 -111.289062 56.40625 -105.832031 54.625 -100.0625 C 52.851562 -94.289062 51.96875 -88.914062 51.96875 -83.9375 L 51.96875 -27.453125 C 51.96875 -18.742188 54.5 -12.921875 59.5625 -9.984375 C 64.625 -7.054688 71.503906 -5.59375 80.203125 -5.59375 L 80.203125 0 C 76.117188 -0.175781 70.34375 -0.394531 62.875 -0.65625 C 55.414062 -0.925781 47.515625 -1.0625 39.171875 -1.0625 C 33.128906 -1.0625 27.128906 -0.925781 21.171875 -0.65625 C 15.222656 -0.394531 10.742188 -0.175781 7.734375 0 L 7.734375 -5.59375 C 15.015625 -5.59375 20.207031 -6.925781 23.3125 -9.59375 C 26.425781 -12.257812 27.984375 -17.320312 27.984375 -24.78125 L 27.984375 -108.1875 C 27.984375 -116.175781 26.5625 -122.082031 23.71875 -125.90625 C 20.875 -129.726562 15.546875 -131.640625 7.734375 -131.640625 L 7.734375 -137.234375 C 13.410156 -136.703125 18.914062 -136.4375 24.25 -136.4375 C 29.394531 -136.4375 34.320312 -136.742188 39.03125 -137.359375 C 43.738281 -137.984375 48.050781 -138.914062 51.96875 -140.15625 L 51.96875 -106.859375 C 53.914062 -112.003906 56.707031 -117.195312 60.34375 -122.4375 C 63.988281 -127.675781 68.382812 -132.070312 73.53125 -135.625 C 78.6875 -139.1875 84.375 -140.96875 90.59375 -140.96875 Z M 90.59375 -140.96875 "/></g></g></g><g fill="#000000" fill-opacity="1"><g transform="translate(1207.340683, 581.235142)"><g><path d="M 128.96875 -208.90625 L 128.96875 -29.046875 C 128.96875 -21.046875 130.429688 -15.132812 133.359375 -11.3125 C 136.296875 -7.5 141.582031 -5.59375 149.21875 -5.59375 L 149.21875 0 C 143.71875 -0.53125 138.210938 -0.796875 132.703125 -0.796875 C 127.546875 -0.796875 122.613281 -0.53125 117.90625 0 C 113.195312 0.53125 108.890625 1.507812 104.984375 2.9375 L 104.984375 -176.9375 C 104.984375 -184.925781 103.5625 -190.832031 100.71875 -194.65625 C 97.882812 -198.476562 92.554688 -200.390625 84.734375 -200.390625 L 84.734375 -205.984375 C 90.421875 -205.453125 95.929688 -205.1875 101.265625 -205.1875 C 106.410156 -205.1875 111.335938 -205.492188 116.046875 -206.109375 C 120.753906 -206.734375 125.0625 -207.664062 128.96875 -208.90625 Z M 73.015625 -140.96875 C 80.828125 -140.96875 88.148438 -139.097656 94.984375 -135.359375 C 101.828125 -131.628906 106.40625 -125.238281 108.71875 -116.1875 L 105.25 -113.515625 C 102.769531 -120.972656 98.90625 -126.390625 93.65625 -129.765625 C 88.414062 -133.140625 82.242188 -134.828125 75.140625 -134.828125 C 64.660156 -134.828125 55.910156 -129.410156 48.890625 -118.578125 C 41.878906 -107.742188 38.460938 -91.046875 38.640625 -68.484375 C 38.640625 -54.097656 40.015625 -42.148438 42.765625 -32.640625 C 45.523438 -23.140625 49.613281 -16.035156 55.03125 -11.328125 C 60.445312 -6.617188 67.0625 -4.265625 74.875 -4.265625 C 82.332031 -4.265625 89.082031 -7.460938 95.125 -13.859375 C 101.164062 -20.253906 104.804688 -29.671875 106.046875 -42.109375 L 109.25 -38.375 C 107.832031 -24.875 103.523438 -14.476562 96.328125 -7.1875 C 89.128906 0.09375 79.40625 3.734375 67.15625 3.734375 C 56.132812 3.734375 46.492188 1.070312 38.234375 -4.25 C 29.972656 -9.582031 23.664062 -17.578125 19.3125 -28.234375 C 14.96875 -38.898438 12.796875 -52.316406 12.796875 -68.484375 C 12.796875 -84.648438 15.59375 -98.101562 21.1875 -108.84375 C 26.78125 -119.59375 34.148438 -127.632812 43.296875 -132.96875 C 52.453125 -138.300781 62.359375 -140.96875 73.015625 -140.96875 Z M 73.015625 -140.96875 "/></g></g></g><g fill="#000000" fill-opacity="1"><g transform="translate(1368.550082, 581.235142)"><g><path d="M 72.484375 -140.96875 C 88.109375 -140.96875 100.316406 -136.210938 109.109375 -126.703125 C 117.910156 -117.203125 122.3125 -102.414062 122.3125 -82.34375 L 28.25 -82.34375 L 27.984375 -87.40625 L 96.734375 -87.40625 C 97.085938 -96.101562 96.375 -104.140625 94.59375 -111.515625 C 92.820312 -118.890625 90.023438 -124.796875 86.203125 -129.234375 C 82.378906 -133.679688 77.445312 -135.90625 71.40625 -135.90625 C 63.238281 -135.90625 56 -131.816406 49.6875 -123.640625 C 43.382812 -115.472656 39.613281 -102.503906 38.375 -84.734375 L 39.171875 -83.671875 C 38.816406 -81.003906 38.550781 -78.070312 38.375 -74.875 C 38.195312 -71.675781 38.109375 -68.476562 38.109375 -65.28125 C 38.109375 -53.207031 40.0625 -42.816406 43.96875 -34.109375 C 47.875 -25.398438 52.976562 -18.78125 59.28125 -14.25 C 65.59375 -9.726562 72.125 -7.46875 78.875 -7.46875 C 84.207031 -7.46875 89.269531 -8.3125 94.0625 -10 C 98.863281 -11.6875 103.304688 -14.484375 107.390625 -18.390625 C 111.472656 -22.296875 115.023438 -27.535156 118.046875 -34.109375 L 123.375 -31.96875 C 121.414062 -26.113281 118.21875 -20.429688 113.78125 -14.921875 C 109.34375 -9.410156 103.75 -4.921875 97 -1.453125 C 90.25 2.003906 82.429688 3.734375 73.546875 3.734375 C 60.753906 3.734375 49.78125 0.800781 40.625 -5.0625 C 31.476562 -10.925781 24.460938 -19.050781 19.578125 -29.4375 C 14.691406 -39.832031 12.25 -51.78125 12.25 -65.28125 C 12.25 -80.914062 14.738281 -94.375 19.71875 -105.65625 C 24.695312 -116.9375 31.710938 -125.640625 40.765625 -131.765625 C 49.828125 -137.898438 60.398438 -140.96875 72.484375 -140.96875 Z M 72.484375 -140.96875 "/></g></g></g></g></g></g></g></g></g></mask><clipPath id="502af479e7"><path d="M 0 0.0429688 L 1591.5 0.0429688 L 1591.5 711.457031 L 0 711.457031 Z M 0 0.0429688 " clip-rule="nonzero"/></clipPath><clipPath id="bd30ee7012"><rect x="0" width="1592" y="0" height="712"/></clipPath><clipPath id="42e52f9e84"><rect x="0" width="1592" y="0" height="712"/></clipPath><clipPath id="2decbbfddf"><path d="M 1094.929688 164.882812 L 1294.746094 164.882812 L 1294.746094 355.046875 L 1094.929688 355.046875 Z M 1094.929688 164.882812 " clip-rule="nonzero"/></clipPath><clipPath id="4610ae6e85"><path d="M 1194.6875 164.882812 L 1218.234375 237.519531 L 1294.441406 237.519531 L 1232.789062 282.410156 L 1256.339844 355.046875 L 1194.6875 310.15625 L 1133.035156 355.046875 L 1156.582031 282.410156 L 1094.929688 237.519531 L 1171.136719 237.519531 Z M 1194.6875 164.882812 " clip-rule="nonzero"/></clipPath><clipPath id="c1cd3e7e2e"><path d="M 0.929688 0.882812 L 200.671875 0.882812 L 200.671875 191.046875 L 0.929688 191.046875 Z M 0.929688 0.882812 " clip-rule="nonzero"/></clipPath><clipPath id="0377896194"><path d="M 100.6875 0.882812 L 124.234375 73.519531 L 200.441406 73.519531 L 138.789062 118.410156 L 162.339844 191.046875 L 100.6875 146.15625 L 39.035156 191.046875 L 62.582031 118.410156 L 0.929688 73.519531 L 77.136719 73.519531 Z M 100.6875 0.882812 " clip-rule="nonzero"/></clipPath><clipPath id="8cbdcfaae5"><rect x="0" width="201" y="0" height="192"/></clipPath><clipPath id="2bc808eef0"><path d="M 878.257812 164.882812 L 1078 164.882812 L 1078 355.046875 L 878.257812 355.046875 Z M 878.257812 164.882812 " clip-rule="nonzero"/></clipPath><clipPath id="dc17e9c607"><path d="M 978.011719 164.882812 L 1001.5625 237.519531 L 1077.769531 237.519531 L 1016.117188 282.410156 L 1039.664062 355.046875 L 978.011719 310.15625 L 916.359375 355.046875 L 939.910156 282.410156 L 878.257812 237.519531 L 954.464844 237.519531 Z M 978.011719 164.882812 " clip-rule="nonzero"/></clipPath><clipPath id="11e1cfed63"><path d="M 0.257812 0.882812 L 199.8125 0.882812 L 199.8125 191.046875 L 0.257812 191.046875 Z M 0.257812 0.882812 " clip-rule="nonzero"/></clipPath><clipPath id="94ea638648"><path d="M 100.011719 0.882812 L 123.5625 73.519531 L 199.769531 73.519531 L 138.117188 118.410156 L 161.664062 191.046875 L 100.011719 146.15625 L 38.359375 191.046875 L 61.910156 118.410156 L 0.257812 73.519531 L 76.464844 73.519531 Z M 100.011719 0.882812 " clip-rule="nonzero"/></clipPath><clipPath id="5bb3d3933a"><rect x="0" width="200" y="0" height="192"/></clipPath><clipPath id="2a8d13a531"><path d="M 661.902344 164.882812 L 861.71875 164.882812 L 861.71875 355.046875 L 661.902344 355.046875 Z M 661.902344 164.882812 " clip-rule="nonzero"/></clipPath><clipPath id="7309b7a014"><path d="M 761.660156 164.882812 L 785.207031 237.519531 L 861.414062 237.519531 L 799.761719 282.410156 L 823.3125 355.046875 L 761.660156 310.15625 L 700.007812 355.046875 L 723.554688 282.410156 L 661.902344 237.519531 L 738.109375 237.519531 Z M 761.660156 164.882812 " clip-rule="nonzero"/></clipPath><clipPath id="6d26a02377"><path d="M 0.902344 0.882812 L 200.433594 0.882812 L 200.433594 191.046875 L 0.902344 191.046875 Z M 0.902344 0.882812 " clip-rule="nonzero"/></clipPath><clipPath id="68a9a4f0fb"><path d="M 100.660156 0.882812 L 124.207031 73.519531 L 200.414062 73.519531 L 138.761719 118.410156 L 162.3125 191.046875 L 100.660156 146.15625 L 39.007812 191.046875 L 62.554688 118.410156 L 0.902344 73.519531 L 77.109375 73.519531 Z M 100.660156 0.882812 " clip-rule="nonzero"/></clipPath><clipPath id="ff6c238be0"><rect x="0" width="201" y="0" height="192"/></clipPath></defs><g clip-path="url(#c479f5b08f)"><g clip-path="url(#8aff963e29)"><g transform="matrix(1, 0, 0, 1, 1311, 164)"><g clip-path="url(#4d8b0b70f7)"><g clip-path="url(#bbcd8810d0)"><g clip-path="url(#c13858dd40)"><path fill="#f3cb51" d="M 0.601562 0.882812 L 200.421875 0.882812 L 200.421875 191.046875 L 0.601562 191.046875 Z M 0.601562 0.882812 " fill-opacity="1" fill-rule="nonzero"/></g></g></g></g></g></g><g clip-path="url(#d51d66a22e)"><g transform="matrix(1, 0, 0, 1, 0, 0.000000000000044569)"><g clip-path="url(#42e52f9e84)"><g clip-path="url(#c038860b35)"><g mask="url(#a8d3b39e78)"><g transform="matrix(1, 0, 0, 1, 0, 0.000000000000044569)"><g clip-path="url(#bd30ee7012)"><g clip-path="url(#502af479e7)"><path fill="url(#b8d872b2ff)" d="M 0 0.0429688 L 0 711.457031 L 1591.5 711.457031 L 1591.5 0.0429688 Z M 0 0.0429688 " fill-rule="nonzero"/></g></g></g></g></g></g></g></g><g clip-path="url(#2decbbfddf)"><g clip-path="url(#4610ae6e85)"><g transform="matrix(1, 0, 0, 1, 1094, 164)"><g clip-path="url(#8cbdcfaae5)"><g clip-path="url(#c1cd3e7e2e)"><g clip-path="url(#0377896194)"><path fill="#f3cb51" d="M 0.929688 0.882812 L 200.746094 0.882812 L 200.746094 191.046875 L 0.929688 191.046875 Z M 0.929688 0.882812 " fill-opacity="1" fill-rule="nonzero"/></g></g></g></g></g></g><g clip-path="url(#2bc808eef0)"><g clip-path="url(#dc17e9c607)"><g transform="matrix(1, 0, 0, 1, 878, 164)"><g clip-path="url(#5bb3d3933a)"><g clip-path="url(#11e1cfed63)"><g clip-path="url(#94ea638648)"><path fill="#f3cb51" d="M 0.257812 0.882812 L 200.074219 0.882812 L 200.074219 191.046875 L 0.257812 191.046875 Z M 0.257812 0.882812 " fill-opacity="1" fill-rule="nonzero"/></g></g></g></g></g></g><g clip-path="url(#2a8d13a531)"><g clip-path="url(#7309b7a014)"><g transform="matrix(1, 0, 0, 1, 661, 164)"><g clip-path="url(#ff6c238be0)"><g clip-path="url(#6d26a02377)"><g clip-path="url(#68a9a4f0fb)"><path fill="#f3cb51" d="M 0.902344 0.882812 L 200.71875 0.882812 L 200.71875 191.046875 L 0.902344 191.046875 Z M 0.902344 0.882812 " fill-opacity="1" fill-rule="nonzero"/></g></g></g></g></g></g></svg>